{
.appVersion = "1352";
DisplayStrings = (
"áabcdefghijklmn\012opqrstuvwxyz",
"/space ABCDEFG/d.ss03 HdIJKLMNOPQRSTUVWXYZ"
);
copyright = "Copyright 2011 The Explora Project Authors (https://github.com/googlefonts/explora)";
customParameters = (
{
name = licenseURL;
value = "https://scripts.sil.org/OFL";
},
{
name = license;
value = "This Font Software is licensed under the SIL Open Font License, Version 1.1. This license is available with a FAQ at: https://scripts.sil.org/OFL";
},
{
name = panose;
value = (
2,
0,
6,
5,
6,
0,
0,
2,
0,
2
);
},
{
name = "Disable Subroutines";
value = 1;
},
{
name = glyphOrder;
value = (
.notdef,
CR,
NULL,
space,
nbspace
);
},
{
name = fsType;
value = (
);
},
{
name = "Use Typo Metrics";
value = 1;
},
{
name = Axes;
value = (
{
Name = Weight;
Tag = wght;
}
);
}
);
date = "2011-06-20 19:00:00 +0000";
designer = "Robert E. Leuschke";
designerURL = www.typesetit.com;
disablesNiceNames = 1;
familyName = Explora;
featurePrefixes = (
{
automatic = 1;
code = "languagesystem DFLT dflt;\012\012languagesystem latn dflt;\012languagesystem latn AZE;\012languagesystem latn CRT;\012languagesystem latn KAZ;\012languagesystem latn TAT;\012languagesystem latn TRK;\012languagesystem latn ROM;\012languagesystem latn MOL;\012languagesystem latn CAT;\012";
name = Languagesystems;
}
);
features = (
{
automatic = 1;
code = "feature locl;\012feature sups;\012feature frac;\012feature ordn;\012feature salt;\012feature ss01;\012feature ss02;\012feature ss03;\012feature clig;\012feature ss04;\012feature lnum;\012feature onum;\012feature case;\012";
name = aalt;
},
{
automatic = 1;

glyphs = (
{
color = 5;
glyphname = .notdef;
lastChange = "2021-08-02 16:25:37 +0000";
layers = (
{
background = {
paths = (
{
closed = 1;
nodes = (
"379 0 LINE",
"379 650 LINE",
"50 650 LINE",
"50 0 LINE"
);
},
{
closed = 1;
nodes = (
"95 70 OFFCURVE",
"154 191 OFFCURVE",
"214 313 CURVE",
"273 191 OFFCURVE",
"332 70 OFFCURVE",
"355 20 CURVE",
"72 20 LINE"
);
},
{
closed = 1;
nodes = (
"70 604 LINE",
"98 549 OFFCURVE",
"152 439 OFFCURVE",
"206 328 CURVE",
"152 217 OFFCURVE",
"98 108 OFFCURVE",
"70 51 CURVE"
);
},
{
closed = 1;
nodes = (
"333 100 OFFCURVE",
"277 212 OFFCURVE",
"221 328 CURVE",
"277 443 OFFCURVE",
"333 557 OFFCURVE",
"360 610 CURVE",
"360 45 LINE"
);
},
{
closed = 1;
nodes = (
"159 455 OFFCURVE",
"104 567 OFFCURVE",
"75 631 CURVE",
"352 631 LINE",
"323 567 OFFCURVE",
"268 455 OFFCURVE",
"214 343 CURVE"
);
}
);
};
layerId = "DB049CBD-EE5A-4C6A-B8D5-3A4D87564362";
paths = (
{
closed = 1;
nodes = (
"379 0 LINE",
"379 650 LINE",
"50 650 LINE",
"50 0 LINE"
);
},
{
closed = 1;
nodes = (
"95 70 OFFCURVE",
"154 191 OFFCURVE",
"214 313 CURVE",
"273 191 OFFCURVE",
"332 70 OFFCURVE",
"355 20 CURVE",
"72 20 LINE"
);
},
{
closed = 1;
nodes = (
"70 604 LINE",
"98 549 OFFCURVE",
"152 439 OFFCURVE",
"206 328 CURVE",
"152 217 OFFCURVE",
"98 108 OFFCURVE",
"70 51 CURVE"
);
},
{
closed = 1;
nodes = (
"333 100 OFFCURVE",
"277 212 OFFCURVE",
"221 328 CURVE",
"277 443 OFFCURVE",
"333 557 OFFCURVE",
"360 610 CURVE",
"360 45 LINE"
);
},
{
closed = 1;
nodes = (
"159 455 OFFCURVE",
"104 567 OFFCURVE",
"75 631 CURVE",
"352 631 LINE",
"323 567 OFFCURVE",
"268 455 OFFCURVE",
"214 343 CURVE"
);
}
);
width = 429;
}
);
note = .notdef;
},
{
color = 5;
glyphname = A;
lastChange = "2021-08-02 16:25:37 +0000";
layers = (
{
background = {
paths = (
{
closed = 1;
nodes = (
"0 -20 OFFCURVE",
"117 119 OFFCURVE",
"191 200 CURVE",
"232 203 OFFCURVE",
"328 208 OFFCURVE",
"401 208 CURVE SMOOTH",
"425 208 OFFCURVE",
"462 202 OFFCURVE",
"481 184 CURVE",
"467 94 LINE SMOOTH",
"462 64 OFFCURVE",
"457 31 OFFCURVE",
"456 4 CURVE SMOOTH",
"456 -9 OFFCURVE",
"463 -13 OFFCURVE",
"471 -13 CURVE SMOOTH",
"480 -13 OFFCURVE",
"491 -8 OFFCURVE",
"499 -5 CURVE SMOOTH",
"530 6 OFFCURVE",
"557 25 OFFCURVE",
"577 46 CURVE",
"582 50 OFFCURVE",
"581 57 OFFCURVE",
"576 51 CURVE SMOOTH",
"560 34 OFFCURVE",
"540 19 OFFCURVE",
"516 9 CURVE SMOOTH",
"510 6 OFFCURVE",
"506 5 OFFCURVE",
"502 5 CURVE SMOOTH",
"488 5 OFFCURVE",
"485 21 OFFCURVE",
"485 37 CURVE SMOOTH",
"485 44 OFFCURVE",
"485 52 OFFCURVE",
"486 58 CURVE SMOOTH",
"488 91 OFFCURVE",
"497 179 OFFCURVE",
"509 252 CURVE SMOOTH",
"525 353 OFFCURVE",
"554 489 OFFCURVE",
"559 512 CURVE SMOOTH",
"561 521 OFFCURVE",
"570 532 OFFCURVE",
"578 538 CURVE SMOOTH",
"583 541 OFFCURVE",
"578 544 OFFCURVE",
"574 541 CURVE SMOOTH",
"567 535 OFFCURVE",
"551 528 OFFCURVE",
"542 526 CURVE SMOOTH",
"529 523 OFFCURVE",
"520 520 OFFCURVE",
"512 514 CURVE SMOOTH",
"430 447 OFFCURVE",
"298 328 OFFCURVE",
"185 209 CURVE",
"168 209 LINE SMOOTH",
"142 208 OFFCURVE",
"84 214 OFFCURVE",
"67 240 CURVE SMOOTH",
"64 245 OFFCURVE",
"62 242 OFFCURVE",
"63 238 CURVE SMOOTH",
"74 204 OFFCURVE",
"101 197 OFFCURVE",
"132 197 CURVE SMOOTH",
"146 197 OFFCURVE",
"160 198 OFFCURVE",
"175 199 CURVE SMOOTH",
"176 199 LINE",
"150 172 OFFCURVE",
"126 145 OFFCURVE",
"104 119 CURVE SMOOTH",
"57 65 OFFCURVE",
"18 15 OFFCURVE",
"-6 -28 CURVE SMOOTH",
"-15 -43 OFFCURVE",
"-18 -57 OFFCURVE",
"-18 -67 CURVE SMOOTH",
"-18 -71 OFFCURVE",
"-18 -74 OFFCURVE",
"-17 -76 CURVE",
"-13 -96 OFFCURVE",
"10 -110 OFFCURVE",
"8 -95 CURVE SMOOTH"
);
},
{
closed = 1;
nodes = (
"478 204 OFFCURVE",
"472 211 OFFCURVE",
"467 215 CURVE SMOOTH",
"463 218 OFFCURVE",
"441 219 OFFCURVE",
"420 219 CURVE SMOOTH",
"402 219 OFFCURVE",
"385 218 OFFCURVE",
"379 218 CURVE SMOOTH",
"200 210 LINE",
"225 236 LINE SMOOTH",
"310 326 OFFCURVE",
"403 405 OFFCURVE",
"471 461 CURVE SMOOTH",
"496 481 OFFCURVE",
"510 491 OFFCURVE",
"518 491 CURVE SMOOTH",
"521 491 OFFCURVE",
"523 488 OFFCURVE",
"523 483 CURVE SMOOTH",
"523 458 OFFCURVE",
"502 322 OFFCURVE",
"483 196 CURVE"
);
}
);
};
layerId = "DB049CBD-EE5A-4C6A-B8D5-3A4D87564362";
paths = (
{
closed = 1;
nodes = (
"0 -20 OFFCURVE",
"117 119 OFFCURVE",
"191 200 CURVE",
"232 203 OFFCURVE",
"328 208 OFFCURVE",
"401 208 CURVE SMOOTH",
"425 208 OFFCURVE",
"462 202 OFFCURVE",
"481 184 CURVE",
"467 94 LINE SMOOTH",
"462 64 OFFCURVE",
"457 31 OFFCURVE",
"456 4 CURVE SMOOTH",
"456 -9 OFFCURVE",
"463 -13 OFFCURVE",
"471 -13 CURVE SMOOTH",
"480 -13 OFFCURVE",
"491 -8 OFFCURVE",
"499 -5 CURVE SMOOTH",
"530 6 OFFCURVE",
"557 25 OFFCURVE",
"577 46 CURVE",
"582 50 OFFCURVE",
"581 57 OFFCURVE",
"576 51 CURVE SMOOTH",
"560 34 OFFCURVE",
"540 19 OFFCURVE",
"516 9 CURVE SMOOTH",
"510 6 OFFCURVE",
"506 5 OFFCURVE",
"502 5 CURVE SMOOTH",
"488 5 OFFCURVE",
"485 21 OFFCURVE",
"485 37 CURVE SMOOTH",
"485 44 OFFCURVE",
"485 52 OFFCURVE",
"486 58 CURVE SMOOTH",
"488 91 OFFCURVE",
"497 179 OFFCURVE",
"509 252 CURVE SMOOTH",
"525 353 OFFCURVE",
"554 489 OFFCURVE",
"559 512 CURVE SMOOTH",
"561 521 OFFCURVE",
"570 532 OFFCURVE",
"578 538 CURVE SMOOTH",
"583 541 OFFCURVE",
"578 544 OFFCURVE",
"574 541 CURVE SMOOTH",
"567 535 OFFCURVE",
"551 528 OFFCURVE",
"542 526 CURVE SMOOTH",
"529 523 OFFCURVE",
"520 520 OFFCURVE",
"512 514 CURVE SMOOTH",
"430 447 OFFCURVE",
"298 328 OFFCURVE",
"185 209 CURVE",
"168 209 LINE SMOOTH",
"142 208 OFFCURVE",
"84 214 OFFCURVE",
"67 240 CURVE SMOOTH",
"64 245 OFFCURVE",
"62 242 OFFCURVE",
"63 238 CURVE SMOOTH",
"74 204 OFFCURVE",
"101 197 OFFCURVE",
"132 197 CURVE SMOOTH",
"146 197 OFFCURVE",
"160 198 OFFCURVE",
"175 199 CURVE SMOOTH",
"176 199 LINE",
"150 172 OFFCURVE",
"126 145 OFFCURVE",
"104 119 CURVE SMOOTH",
"57 65 OFFCURVE",
"18 15 OFFCURVE",
"-6 -28 CURVE SMOOTH",
"-15 -43 OFFCURVE",
"-18 -57 OFFCURVE",
"-18 -67 CURVE SMOOTH",
"-18 -71 OFFCURVE",
"-18 -74 OFFCURVE",
"-17 -76 CURVE",
"-13 -96 OFFCURVE",
"10 -110 OFFCURVE",
"8 -95 CURVE SMOOTH"
);
},
{
closed = 1;
nodes = (
"478 204 OFFCURVE",
"472 211 OFFCURVE",
"467 215 CURVE SMOOTH",
"463 218 OFFCURVE",
"441 219 OFFCURVE",
"420 219 CURVE SMOOTH",
"402 219 OFFCURVE",
"385 218 OFFCURVE",
"379 218 CURVE SMOOTH",
"200 210 LINE",
"225 236 LINE SMOOTH",
"310 326 OFFCURVE",
"403 405 OFFCURVE",
"471 461 CURVE SMOOTH",
"496 481 OFFCURVE",
"510 491 OFFCURVE",
"518 491 CURVE SMOOTH",
"521 491 OFFCURVE",
"523 488 OFFCURVE",
"523 483 CURVE SMOOTH",
"523 458 OFFCURVE",
"502 322 OFFCURVE",
"483 196 CURVE"
);
}
);
width = 563;
}
);
note = A;
unicode = 0041;
},
{
color = 11;
glyphname = Aacute;
lastChange = "2021-08-02 16:25:37 +0000";
layers = (
{
background = {
paths = (
{
closed = 1;
nodes = (
"0 -20 OFFCURVE",
"117 119 OFFCURVE",
"191 200 CURVE",
"232 203 OFFCURVE",
"328 208 OFFCURVE",
"401 208 CURVE SMOOTH",
"425 208 OFFCURVE",
"462 202 OFFCURVE",
"481 184 CURVE",
"467 94 LINE SMOOTH",
"462 64 OFFCURVE",
"457 31 OFFCURVE",
"456 4 CURVE SMOOTH",
"456 -9 OFFCURVE",
"463 -13 OFFCURVE",
"471 -13 CURVE SMOOTH",
"480 -13 OFFCURVE",
"491 -8 OFFCURVE",
"499 -5 CURVE SMOOTH",
"530 6 OFFCURVE",
"557 25 OFFCURVE",
"577 46 CURVE",
"582 50 OFFCURVE",
"581 57 OFFCURVE",
"576 51 CURVE SMOOTH",
"560 34 OFFCURVE",
"540 19 OFFCURVE",
"516 9 CURVE SMOOTH",
"510 6 OFFCURVE",
"506 5 OFFCURVE",
"502 5 CURVE SMOOTH",
"488 5 OFFCURVE",
"485 21 OFFCURVE",
"485 37 CURVE SMOOTH",
"485 44 OFFCURVE",
"485 52 OFFCURVE",
"486 58 CURVE SMOOTH",
"488 91 OFFCURVE",
"497 179 OFFCURVE",
"509 252 CURVE SMOOTH",
"525 353 OFFCURVE",
"554 489 OFFCURVE",
"559 512 CURVE SMOOTH",
"561 521 OFFCURVE",
"570 532 OFFCURVE",
"578 538 CURVE SMOOTH",
"583 541 OFFCURVE",
"578 544 OFFCURVE",
"574 541 CURVE SMOOTH",
"567 535 OFFCURVE",
"551 528 OFFCURVE",
"542 526 CURVE SMOOTH",
"529 523 OFFCURVE",
"520 520 OFFCURVE",
"512 514 CURVE SMOOTH",
"430 447 OFFCURVE",
"298 328 OFFCURVE",
"185 209 CURVE",
"168 209 LINE SMOOTH",
"142 208 OFFCURVE",
"84 214 OFFCURVE",
"67 240 CURVE SMOOTH",
"64 245 OFFCURVE",
"62 242 OFFCURVE",
"63 238 CURVE SMOOTH",
"74 204 OFFCURVE",
"101 197 OFFCURVE",
"132 197 CURVE SMOOTH",
"146 197 OFFCURVE",
"160 198 OFFCURVE",
"175 199 CURVE SMOOTH",
"176 199 LINE",
"150 172 OFFCURVE",
"126 145 OFFCURVE",
"104 119 CURVE SMOOTH",
"57 65 OFFCURVE",
"18 15 OFFCURVE",
"-6 -28 CURVE SMOOTH",
"-15 -43 OFFCURVE",
"-18 -57 OFFCURVE",
"-18 -67 CURVE SMOOTH",
"-18 -71 OFFCURVE",
"-18 -74 OFFCURVE",
"-17 -76 CURVE",
"-13 -96 OFFCURVE",
"10 -110 OFFCURVE",
"8 -95 CURVE SMOOTH"
);
},
{
closed = 1;
nodes = (
"478 204 OFFCURVE",
"472 211 OFFCURVE",
"467 215 CURVE SMOOTH",
"463 218 OFFCURVE",
"441 219 OFFCURVE",
"420 219 CURVE SMOOTH",
"402 219 OFFCURVE",
"385 218 OFFCURVE",
"379 218 CURVE SMOOTH",
"200 210 LINE",
"225 236 LINE SMOOTH",
"310 326 OFFCURVE",
"403 405 OFFCURVE",
"471 461 CURVE SMOOTH",
"496 481 OFFCURVE",
"510 491 OFFCURVE",
"518 491 CURVE SMOOTH",
"521 491 OFFCURVE",
"523 488 OFFCURVE",
"523 483 CURVE SMOOTH",
"523 458 OFFCURVE",
"502 322 OFFCURVE",
"483 196 CURVE"
);
},
{
closed = 1;
nodes = (
"556 594 OFFCURVE",
"624 632 OFFCURVE",
"636 641 CURVE SMOOTH",
"639 643 OFFCURVE",
"633 655 OFFCURVE",
"631 653 CURVE",
"541 590 LINE SMOOTH",
"538 588 OFFCURVE",
"537 580 OFFCURVE",
"541 583 CURVE SMOOTH"
);
}
);
};
layerId = "DB049CBD-EE5A-4C6A-B8D5-3A4D87564362";
paths = (
{
closed = 1;
nodes = (
"0 -20 OFFCURVE",
"117 119 OFFCURVE",
"191 200 CURVE",
"232 203 OFFCURVE",
"328 208 OFFCURVE",
"401 208 CURVE SMOOTH",
"425 208 OFFCURVE",
"462 202 OFFCURVE",
"481 184 CURVE",
"467 94 LINE SMOOTH",
"462 64 OFFCURVE",
"457 31 OFFCURVE",
"456 4 CURVE SMOOTH",
"456 -9 OFFCURVE",
"463 -13 OFFCURVE",
"471 -13 CURVE SMOOTH",
"480 -13 OFFCURVE",
"491 -8 OFFCURVE",
"499 -5 CURVE SMOOTH",
"530 6 OFFCURVE",
"557 25 OFFCURVE",
"577 46 CURVE",
"582 50 OFFCURVE",
"581 57 OFFCURVE",
"576 51 CURVE SMOOTH",
"560 34 OFFCURVE",
"540 19 OFFCURVE",
"516 9 CURVE SMOOTH",
"510 6 OFFCURVE",
"506 5 OFFCURVE",
"502 5 CURVE SMOOTH",
"488 5 OFFCURVE",
"485 21 OFFCURVE",
"485 37 CURVE SMOOTH",
"485 44 OFFCURVE",
"485 52 OFFCURVE",
"486 58 CURVE SMOOTH",
"488 91 OFFCURVE",
"497 179 OFFCURVE",
"509 252 CURVE SMOOTH",
"525 353 OFFCURVE",
"554 489 OFFCURVE",
"559 512 CURVE SMOOTH",
"561 521 OFFCURVE",
"570 532 OFFCURVE",
"578 538 CURVE SMOOTH",
"583 541 OFFCURVE",
"578 544 OFFCURVE",
"574 541 CURVE SMOOTH",
"567 535 OFFCURVE",
"551 528 OFFCURVE",
"542 526 CURVE SMOOTH",
"529 523 OFFCURVE",
"520 520 OFFCURVE",
"512 514 CURVE SMOOTH",
"430 447 OFFCURVE",
"298 328 OFFCURVE",
"185 209 CURVE",
"168 209 LINE SMOOTH",
"142 208 OFFCURVE",
"84 214 OFFCURVE",
"67 240 CURVE SMOOTH",
"64 245 OFFCURVE",
"62 242 OFFCURVE",
"63 238 CURVE SMOOTH",
"74 204 OFFCURVE",
"101 197 OFFCURVE",
"132 197 CURVE SMOOTH",
"146 197 OFFCURVE",
"160 198 OFFCURVE",
"175 199 CURVE SMOOTH",
"176 199 LINE",
"150 172 OFFCURVE",
"126 145 OFFCURVE",
"104 119 CURVE SMOOTH",
"57 65 OFFCURVE",
"18 15 OFFCURVE",
"-6 -28 CURVE SMOOTH",
"-15 -43 OFFCURVE",
"-18 -57 OFFCURVE",
"-18 -67 CURVE SMOOTH",
"-18 -71 OFFCURVE",
"-18 -74 OFFCURVE",
"-17 -76 CURVE",
"-13 -96 OFFCURVE",
"10 -110 OFFCURVE",
"8 -95 CURVE SMOOTH"
);
},
{
closed = 1;
nodes = (
"478 204 OFFCURVE",
"472 211 OFFCURVE",
"467 215 CURVE SMOOTH",
"463 218 OFFCURVE",
"441 219 OFFCURVE",
"420 219 CURVE SMOOTH",
"402 219 OFFCURVE",
"385 218 OFFCURVE",
"379 218 CURVE SMOOTH",
"200 210 LINE",
"225 236 LINE SMOOTH",
"310 326 OFFCURVE",
"403 405 OFFCURVE",
"471 461 CURVE SMOOTH",
"496 481 OFFCURVE",
"510 491 OFFCURVE",
"518 491 CURVE SMOOTH",
"521 491 OFFCURVE",
"523 488 OFFCURVE",
"523 483 CURVE SMOOTH",
"523 458 OFFCURVE",
"502 322 OFFCURVE",
"483 196 CURVE"
);
},
{
closed = 1;
nodes = (
"556 594 OFFCURVE",
"624 632 OFFCURVE",
"636 641 CURVE SMOOTH",
"639 643 OFFCURVE",
"633 655 OFFCURVE",
"631 653 CURVE",
"541 590 LINE SMOOTH",
"538 588 OFFCURVE",
"537 580 OFFCURVE",
"541 583 CURVE SMOOTH"
);
}
);
width = 563;
}
);
note = Aacute;
unicode = 00C1;
},
{
color = 11;
glyphname = Abreve;
lastChange = "2021-08-02 16:25:37 +0000";
layers = (
{
background = {
paths = (
{
closed = 1;
nodes = (
"0 -20 OFFCURVE",
"117 119 OFFCURVE",
"191 200 CURVE",
"232 203 OFFCURVE",
"328 208 OFFCURVE",
"401 208 CURVE SMOOTH",
"425 208 OFFCURVE",
"462 202 OFFCURVE",
"481 184 CURVE",
"467 94 LINE SMOOTH",
"462 64 OFFCURVE",
"457 31 OFFCURVE",
"456 4 CURVE SMOOTH",
"456 -9 OFFCURVE",
"463 -13 OFFCURVE",
"471 -13 CURVE SMOOTH",
"480 -13 OFFCURVE",
"491 -8 OFFCURVE",
"499 -5 CURVE SMOOTH",
"530 6 OFFCURVE",
"557 25 OFFCURVE",
"577 46 CURVE",
"582 50 OFFCURVE",
"581 57 OFFCURVE",
"576 51 CURVE SMOOTH",
"560 34 OFFCURVE",
"540 19 OFFCURVE",
"516 9 CURVE SMOOTH",
"510 6 OFFCURVE",
"506 5 OFFCURVE",
"502 5 CURVE SMOOTH",
"488 5 OFFCURVE",
"485 21 OFFCURVE",
"485 37 CURVE SMOOTH",
"485 44 OFFCURVE",
"485 52 OFFCURVE",
"486 58 CURVE SMOOTH",
"488 91 OFFCURVE",
"497 179 OFFCURVE",
"509 252 CURVE SMOOTH",
"525 353 OFFCURVE",
"554 489 OFFCURVE",
"559 512 CURVE SMOOTH",
"561 521 OFFCURVE",
"570 532 OFFCURVE",
"578 538 CURVE SMOOTH",
"583 541 OFFCURVE",
"578 544 OFFCURVE",
"574 541 CURVE SMOOTH",
"567 535 OFFCURVE",
"551 528 OFFCURVE",
"542 526 CURVE SMOOTH",
"529 523 OFFCURVE",
"520 520 OFFCURVE",
"512 514 CURVE SMOOTH",
"430 447 OFFCURVE",
"298 328 OFFCURVE",
"185 209 CURVE",
"168 209 LINE SMOOTH",
"142 208 OFFCURVE",
"84 214 OFFCURVE",
"67 240 CURVE SMOOTH",
"64 245 OFFCURVE",
"62 242 OFFCURVE",
"63 238 CURVE SMOOTH",
"74 204 OFFCURVE",
"101 197 OFFCURVE",
"132 197 CURVE SMOOTH",
"146 197 OFFCURVE",
"160 198 OFFCURVE",
"175 199 CURVE SMOOTH",
"176 199 LINE",
"150 172 OFFCURVE",
"126 145 OFFCURVE",
"104 119 CURVE SMOOTH",
"57 65 OFFCURVE",
"18 15 OFFCURVE",
"-6 -28 CURVE SMOOTH",
"-15 -43 OFFCURVE",
"-18 -57 OFFCURVE",
"-18 -67 CURVE SMOOTH",
"-18 -71 OFFCURVE",
"-18 -74 OFFCURVE",
"-17 -76 CURVE",
"-13 -96 OFFCURVE",
"10 -110 OFFCURVE",
"8 -95 CURVE SMOOTH"
);
},
{
closed = 1;
nodes = (
"478 204 OFFCURVE",
"472 211 OFFCURVE",
"467 215 CURVE SMOOTH",
"463 218 OFFCURVE",
"441 219 OFFCURVE",
"420 219 CURVE SMOOTH",
"402 219 OFFCURVE",
"385 218 OFFCURVE",
"379 218 CURVE SMOOTH",
"200 210 LINE",
"225 236 LINE SMOOTH",
"310 326 OFFCURVE",
"403 405 OFFCURVE",
"471 461 CURVE SMOOTH",
"496 481 OFFCURVE",
"510 491 OFFCURVE",
"518 491 CURVE SMOOTH",
"521 491 OFFCURVE",
"523 488 OFFCURVE",
"523 483 CURVE SMOOTH",
"523 458 OFFCURVE",
"502 322 OFFCURVE",
"483 196 CURVE"
);
},
{
closed = 1;
nodes = (
"587 586 OFFCURVE",
"618 607 OFFCURVE",
"637 631 CURVE SMOOTH",
"640 635 OFFCURVE",
"646 643 OFFCURVE",
"646 648 CURVE SMOOTH",
"646 650 OFFCURVE",
"645 650 OFFCURVE",
"643 650 CURVE SMOOTH",
"641 650 LINE",
"621 629 OFFCURVE",
"602 600 OFFCURVE",
"568 600 CURVE SMOOTH",
"542 600 OFFCURVE",
"536 621 OFFCURVE",
"536 643 CURVE SMOOTH",
"536 646 OFFCURVE",
"535 649 OFFCURVE",
"531 649 CURVE SMOOTH",
"521 649 OFFCURVE",
"513 639 OFFCURVE",
"513 629 CURVE SMOOTH",
"513 603 OFFCURVE",
"530 586 OFFCURVE",
"556 586 CURVE SMOOTH"
);
}
);
};
layerId = "DB049CBD-EE5A-4C6A-B8D5-3A4D87564362";
paths = (
{
closed = 1;
nodes = (
"0 -20 OFFCURVE",
"117 119 OFFCURVE",
"191 200 CURVE",
"232 203 OFFCURVE",
"328 208 OFFCURVE",
"401 208 CURVE SMOOTH",
"425 208 OFFCURVE",
"462 202 OFFCURVE",
"481 184 CURVE",
"467 94 LINE SMOOTH",
"462 64 OFFCURVE",
"457 31 OFFCURVE",
"456 4 CURVE SMOOTH",
"456 -9 OFFCURVE",
"463 -13 OFFCURVE",
"471 -13 CURVE SMOOTH",
"480 -13 OFFCURVE",
"491 -8 OFFCURVE",
"499 -5 CURVE SMOOTH",
"530 6 OFFCURVE",
"557 25 OFFCURVE",
"577 46 CURVE",
"582 50 OFFCURVE",
"581 57 OFFCURVE",
"576 51 CURVE SMOOTH",
"560 34 OFFCURVE",
"540 19 OFFCURVE",
"516 9 CURVE SMOOTH",
"510 6 OFFCURVE",
"506 5 OFFCURVE",
"502 5 CURVE SMOOTH",
"488 5 OFFCURVE",
"485 21 OFFCURVE",
"485 37 CURVE SMOOTH",
"485 44 OFFCURVE",
"485 52 OFFCURVE",
"486 58 CURVE SMOOTH",
"488 91 OFFCURVE",
"497 179 OFFCURVE",
"509 252 CURVE SMOOTH",
"525 353 OFFCURVE",
"554 489 OFFCURVE",
"559 512 CURVE SMOOTH",
"561 521 OFFCURVE",
"570 532 OFFCURVE",
"578 538 CURVE SMOOTH",
"583 541 OFFCURVE",
"578 544 OFFCURVE",
"574 541 CURVE SMOOTH",
"567 535 OFFCURVE",
"551 528 OFFCURVE",
"542 526 CURVE SMOOTH",
"529 523 OFFCURVE",
"520 520 OFFCURVE",
"512 514 CURVE SMOOTH",
"430 447 OFFCURVE",
"298 328 OFFCURVE",
"185 209 CURVE",
"168 209 LINE SMOOTH",
"142 208 OFFCURVE",
"84 214 OFFCURVE",
"67 240 CURVE SMOOTH",
"64 245 OFFCURVE",
"62 242 OFFCURVE",
"63 238 CURVE SMOOTH",
"74 204 OFFCURVE",
"101 197 OFFCURVE",
"132 197 CURVE SMOOTH",
"146 197 OFFCURVE",
"160 198 OFFCURVE",
"175 199 CURVE SMOOTH",
"176 199 LINE",
"150 172 OFFCURVE",
"126 145 OFFCURVE",
"104 119 CURVE SMOOTH",
"57 65 OFFCURVE",
"18 15 OFFCURVE",
"-6 -28 CURVE SMOOTH",
"-15 -43 OFFCURVE",
"-18 -57 OFFCURVE",
"-18 -67 CURVE SMOOTH",
"-18 -71 OFFCURVE",
"-18 -74 OFFCURVE",
"-17 -76 CURVE",
"-13 -96 OFFCURVE",
"10 -110 OFFCURVE",
"8 -95 CURVE SMOOTH"
);
},
{
closed = 1;
nodes = (
"478 204 OFFCURVE",
"472 211 OFFCURVE",
"467 215 CURVE SMOOTH",
"463 218 OFFCURVE",
"441 219 OFFCURVE",
"420 219 CURVE SMOOTH",
"402 219 OFFCURVE",
"385 218 OFFCURVE",
"379 218 CURVE SMOOTH",
"200 210 LINE",
"225 236 LINE SMOOTH",
"310 326 OFFCURVE",
"403 405 OFFCURVE",
"471 461 CURVE SMOOTH",
"496 481 OFFCURVE",
"510 491 OFFCURVE",
"518 491 CURVE SMOOTH",
"521 491 OFFCURVE",
"523 488 OFFCURVE",
"523 483 CURVE SMOOTH",
"523 458 OFFCURVE",
"502 322 OFFCURVE",
"483 196 CURVE"
);
},
{
closed = 1;
nodes = (
"587 586 OFFCURVE",
"618 607 OFFCURVE",
"637 631 CURVE SMOOTH",
"640 635 OFFCURVE",
"646 643 OFFCURVE",
"646 648 CURVE SMOOTH",
"646 650 OFFCURVE",
"645 650 OFFCURVE",
"643 650 CURVE SMOOTH",
"641 650 LINE",
"621 629 OFFCURVE",
"602 600 OFFCURVE",
"568 600 CURVE SMOOTH",
"542 600 OFFCURVE",
"536 621 OFFCURVE",
"536 643 CURVE SMOOTH",
"536 646 OFFCURVE",
"535 649 OFFCURVE",
"531 649 CURVE SMOOTH",
"521 649 OFFCURVE",
"513 639 OFFCURVE",
"513 629 CURVE SMOOTH",
"513 603 OFFCURVE",
"530 586 OFFCURVE",
"556 586 CURVE SMOOTH"
);
}
);
width = 563;
}
);
note = Abreve;
unicode = 0102;
},
{
color = 11;
glyphname = Acircumflex;
lastChange = "2021-08-02 16:25:37 +0000";
layers = (
{
background = {
paths = (
{
closed = 1;
nodes = (
"0 -20 OFFCURVE",
"117 119 OFFCURVE",
"191 200 CURVE",
"232 203 OFFCURVE",
"328 208 OFFCURVE",
"401 208 CURVE SMOOTH",
"425 208 OFFCURVE",
"462 202 OFFCURVE",
"481 184 CURVE",
"467 94 LINE SMOOTH",
"462 64 OFFCURVE",
"457 31 OFFCURVE",
"456 4 CURVE SMOOTH",
"456 -9 OFFCURVE",
"463 -13 OFFCURVE",
"471 -13 CURVE SMOOTH",
"480 -13 OFFCURVE",
"491 -8 OFFCURVE",
"499 -5 CURVE SMOOTH",
"530 6 OFFCURVE",
"557 25 OFFCURVE",
"577 46 CURVE",
"582 50 OFFCURVE",
"581 57 OFFCURVE",
"576 51 CURVE SMOOTH",
"560 34 OFFCURVE",
"540 19 OFFCURVE",
"516 9 CURVE SMOOTH",
"510 6 OFFCURVE",
"506 5 OFFCURVE",
"502 5 CURVE SMOOTH",
"488 5 OFFCURVE",
"485 21 OFFCURVE",
"485 37 CURVE SMOOTH",
"485 44 OFFCURVE",
"485 52 OFFCURVE",
"486 58 CURVE SMOOTH",
"488 91 OFFCURVE",
"497 179 OFFCURVE",
"509 252 CURVE SMOOTH",
"525 353 OFFCURVE",
"554 489 OFFCURVE",
"559 512 CURVE SMOOTH",
"561 521 OFFCURVE",
"570 532 OFFCURVE",
"578 538 CURVE SMOOTH",
"583 541 OFFCURVE",
"578 544 OFFCURVE",
"574 541 CURVE SMOOTH",
"567 535 OFFCURVE",
"551 528 OFFCURVE",
"542 526 CURVE SMOOTH",
"529 523 OFFCURVE",
"520 520 OFFCURVE",
"512 514 CURVE SMOOTH",
"430 447 OFFCURVE",
"298 328 OFFCURVE",
"185 209 CURVE",
"168 209 LINE SMOOTH",
"142 208 OFFCURVE",
"84 214 OFFCURVE",
"67 240 CURVE SMOOTH",
"64 245 OFFCURVE",
"62 242 OFFCURVE",
"63 238 CURVE SMOOTH",
"74 204 OFFCURVE",
"101 197 OFFCURVE",
"132 197 CURVE SMOOTH",
"146 197 OFFCURVE",
"160 198 OFFCURVE",
"175 199 CURVE SMOOTH",
"176 199 LINE",
"150 172 OFFCURVE",
"126 145 OFFCURVE",
"104 119 CURVE SMOOTH",
"57 65 OFFCURVE",
"18 15 OFFCURVE",
"-6 -28 CURVE SMOOTH",
"-15 -43 OFFCURVE",
"-18 -57 OFFCURVE",
"-18 -67 CURVE SMOOTH",
"-18 -71 OFFCURVE",
"-18 -74 OFFCURVE",
"-17 -76 CURVE",
"-13 -96 OFFCURVE",
"10 -110 OFFCURVE",
"8 -95 CURVE SMOOTH"
);
},
{
closed = 1;
nodes = (
"478 204 OFFCURVE",
"472 211 OFFCURVE",
"467 215 CURVE SMOOTH",
"463 218 OFFCURVE",
"441 219 OFFCURVE",
"420 219 CURVE SMOOTH",
"402 219 OFFCURVE",
"385 218 OFFCURVE",
"379 218 CURVE SMOOTH",
"200 210 LINE",
"225 236 LINE SMOOTH",
"310 326 OFFCURVE",
"403 405 OFFCURVE",
"471 461 CURVE SMOOTH",
"496 481 OFFCURVE",
"510 491 OFFCURVE",
"518 491 CURVE SMOOTH",
"521 491 OFFCURVE",
"523 488 OFFCURVE",
"523 483 CURVE SMOOTH",
"523 458 OFFCURVE",
"502 322 OFFCURVE",
"483 196 CURVE"
);
},
{
closed = 1;
nodes = (
"518 561 LINE SMOOTH",
"537 585 OFFCURVE",
"576 637 OFFCURVE",
"586 647 CURVE",
"591 638 OFFCURVE",
"617 572 OFFCURVE",
"617 564 CURVE",
"631 564 LINE",
"628 570 OFFCURVE",
"604 625 OFFCURVE",
"594 656 CURVE",
"586 656 LINE",
"586 656 OFFCURVE",
"530 588 OFFCURVE",
"516 573 CURVE",
"513 572 OFFCURVE",
"514 560 OFFCURVE",
"517 560 CURVE"
);
}
);
};
layerId = "DB049CBD-EE5A-4C6A-B8D5-3A4D87564362";
paths = (
{
closed = 1;
nodes = (
"0 -20 OFFCURVE",
"117 119 OFFCURVE",
"191 200 CURVE",
"232 203 OFFCURVE",
"328 208 OFFCURVE",
"401 208 CURVE SMOOTH",
"425 208 OFFCURVE",
"462 202 OFFCURVE",
"481 184 CURVE",
"467 94 LINE SMOOTH",
"462 64 OFFCURVE",
"457 31 OFFCURVE",
"456 4 CURVE SMOOTH",
"456 -9 OFFCURVE",
"463 -13 OFFCURVE",
"471 -13 CURVE SMOOTH",
"480 -13 OFFCURVE",
"491 -8 OFFCURVE",
"499 -5 CURVE SMOOTH",
"530 6 OFFCURVE",
"557 25 OFFCURVE",
"577 46 CURVE",
"582 50 OFFCURVE",
"581 57 OFFCURVE",
"576 51 CURVE SMOOTH",
"560 34 OFFCURVE",
"540 19 OFFCURVE",
"516 9 CURVE SMOOTH",
"510 6 OFFCURVE",
"506 5 OFFCURVE",
"502 5 CURVE SMOOTH",
"488 5 OFFCURVE",
"485 21 OFFCURVE",
"485 37 CURVE SMOOTH",
"485 44 OFFCURVE",
"485 52 OFFCURVE",
"486 58 CURVE SMOOTH",
"488 91 OFFCURVE",
"497 179 OFFCURVE",
"509 252 CURVE SMOOTH",
"525 353 OFFCURVE",
"554 489 OFFCURVE",
"559 512 CURVE SMOOTH",
"561 521 OFFCURVE",
"570 532 OFFCURVE",
"578 538 CURVE SMOOTH",
"583 541 OFFCURVE",
"578 544 OFFCURVE",
"574 541 CURVE SMOOTH",
"567 535 OFFCURVE",
"551 528 OFFCURVE",
"542 526 CURVE SMOOTH",
"529 523 OFFCURVE",
"520 520 OFFCURVE",
"512 514 CURVE SMOOTH",
"430 447 OFFCURVE",
"298 328 OFFCURVE",
"185 209 CURVE",
"168 209 LINE SMOOTH",
"142 208 OFFCURVE",
"84 214 OFFCURVE",
"67 240 CURVE SMOOTH",
"64 245 OFFCURVE",
"62 242 OFFCURVE",
"63 238 CURVE SMOOTH",
"74 204 OFFCURVE",
"101 197 OFFCURVE",
"132 197 CURVE SMOOTH",
"146 197 OFFCURVE",
"160 198 OFFCURVE",
"175 199 CURVE SMOOTH",
"176 199 LINE",
"150 172 OFFCURVE",
"126 145 OFFCURVE",
"104 119 CURVE SMOOTH",
"57 65 OFFCURVE",
"18 15 OFFCURVE",
"-6 -28 CURVE SMOOTH",
"-15 -43 OFFCURVE",
"-18 -57 OFFCURVE",
"-18 -67 CURVE SMOOTH",
"-18 -71 OFFCURVE",
"-18 -74 OFFCURVE",
"-17 -76 CURVE",
"-13 -96 OFFCURVE",
"10 -110 OFFCURVE",
"8 -95 CURVE SMOOTH"
);
},
{
closed = 1;
nodes = (
"478 204 OFFCURVE",
"472 211 OFFCURVE",
"467 215 CURVE SMOOTH",
"463 218 OFFCURVE",
"441 219 OFFCURVE",
"420 219 CURVE SMOOTH",
"402 219 OFFCURVE",
"385 218 OFFCURVE",
"379 218 CURVE SMOOTH",
"200 210 LINE",
"225 236 LINE SMOOTH",
"310 326 OFFCURVE",
"403 405 OFFCURVE",
"471 461 CURVE SMOOTH",
"496 481 OFFCURVE",
"510 491 OFFCURVE",
"518 491 CURVE SMOOTH",
"521 491 OFFCURVE",
"523 488 OFFCURVE",
"523 483 CURVE SMOOTH",
"523 458 OFFCURVE",
"502 322 OFFCURVE",
"483 196 CURVE"
);
},
{
closed = 1;
nodes = (
"518 561 LINE SMOOTH",
"537 585 OFFCURVE",
"576 637 OFFCURVE",
"586 647 CURVE",
"591 638 OFFCURVE",
"617 572 OFFCURVE",
"617 564 CURVE",
"631 564 LINE",
"628 570 OFFCURVE",
"604 625 OFFCURVE",
"594 656 CURVE",
"586 656 LINE",
"586 656 OFFCURVE",
"530 588 OFFCURVE",
"516 573 CURVE",
"513 572 OFFCURVE",
"514 560 OFFCURVE",
"517 560 CURVE"
);
}
);
width = 563;
}
);
note = Acircumflex;
unicode = 00C2;
},
{
color = 11;
glyphname = Adieresis;
lastChange = "2021-08-02 16:25:37 +0000";
layers = (
{
background = {
paths = (
{
closed = 1;
nodes = (
"0 -20 OFFCURVE",
"117 119 OFFCURVE",
"191 200 CURVE",
"232 203 OFFCURVE",
"328 208 OFFCURVE",
"401 208 CURVE SMOOTH",
"425 208 OFFCURVE",
"462 202 OFFCURVE",
"481 184 CURVE",
"467 94 LINE SMOOTH",
"462 64 OFFCURVE",
"457 31 OFFCURVE",
"456 4 CURVE SMOOTH",
"456 -9 OFFCURVE",
"463 -13 OFFCURVE",
"471 -13 CURVE SMOOTH",
"480 -13 OFFCURVE",
"491 -8 OFFCURVE",
"499 -5 CURVE SMOOTH",
"530 6 OFFCURVE",
"557 25 OFFCURVE",
"577 46 CURVE",
"582 50 OFFCURVE",
"581 57 OFFCURVE",
"576 51 CURVE SMOOTH",
"560 34 OFFCURVE",
"540 19 OFFCURVE",
"516 9 CURVE SMOOTH",
"510 6 OFFCURVE",
"506 5 OFFCURVE",
"502 5 CURVE SMOOTH",
"488 5 OFFCURVE",
"485 21 OFFCURVE",
"485 37 CURVE SMOOTH",
"485 44 OFFCURVE",
"485 52 OFFCURVE",
"486 58 CURVE SMOOTH",
"488 91 OFFCURVE",
"497 179 OFFCURVE",
"509 252 CURVE SMOOTH",
"525 353 OFFCURVE",
"554 489 OFFCURVE",
"559 512 CURVE SMOOTH",
"561 521 OFFCURVE",
"570 532 OFFCURVE",
"578 538 CURVE SMOOTH",
"583 541 OFFCURVE",
"578 544 OFFCURVE",
"574 541 CURVE SMOOTH",
"567 535 OFFCURVE",
"551 528 OFFCURVE",
"542 526 CURVE SMOOTH",
"529 523 OFFCURVE",
"520 520 OFFCURVE",
"512 514 CURVE SMOOTH",
"430 447 OFFCURVE",
"298 328 OFFCURVE",
"185 209 CURVE",
"168 209 LINE SMOOTH",
"142 208 OFFCURVE",
"84 214 OFFCURVE",
"67 240 CURVE SMOOTH",
"64 245 OFFCURVE",
"62 242 OFFCURVE",
"63 238 CURVE SMOOTH",
"74 204 OFFCURVE",
"101 197 OFFCURVE",
"132 197 CURVE SMOOTH",
"146 197 OFFCURVE",
"160 198 OFFCURVE",
"175 199 CURVE SMOOTH",
"176 199 LINE",
"150 172 OFFCURVE",
"126 145 OFFCURVE",
"104 119 CURVE SMOOTH",
"57 65 OFFCURVE",
"18 15 OFFCURVE",
"-6 -28 CURVE SMOOTH",
"-15 -43 OFFCURVE",
"-18 -57 OFFCURVE",
"-18 -67 CURVE SMOOTH",
"-18 -71 OFFCURVE",
"-18 -74 OFFCURVE",
"-17 -76 CURVE",
"-13 -96 OFFCURVE",
"10 -110 OFFCURVE",
"8 -95 CURVE SMOOTH"
);
},
{
closed = 1;
nodes = (
"478 204 OFFCURVE",
"472 211 OFFCURVE",
"467 215 CURVE SMOOTH",
"463 218 OFFCURVE",
"441 219 OFFCURVE",
"420 219 CURVE SMOOTH",
"402 219 OFFCURVE",
"385 218 OFFCURVE",
"379 218 CURVE SMOOTH",
"200 210 LINE",
"225 236 LINE SMOOTH",
"310 326 OFFCURVE",
"403 405 OFFCURVE",
"471 461 CURVE SMOOTH",
"496 481 OFFCURVE",
"510 491 OFFCURVE",
"518 491 CURVE SMOOTH",
"521 491 OFFCURVE",
"523 488 OFFCURVE",
"523 483 CURVE SMOOTH",
"523 458 OFFCURVE",
"502 322 OFFCURVE",
"483 196 CURVE"
);
},
{
closed = 1;
nodes = (
"530 598 OFFCURVE",
"533 599 OFFCURVE",
"536 603 CURVE SMOOTH",
"542 609 OFFCURVE",
"552 624 OFFCURVE",
"552 633 CURVE SMOOTH",
"552 645 OFFCURVE",
"521 631 OFFCURVE",
"517 613 CURVE",
"514 605 OFFCURVE",
"520 598 OFFCURVE",
"526 598 CURVE SMOOTH"
);
},
{
closed = 1;
nodes = (
"610 598 OFFCURVE",
"614 599 OFFCURVE",
"617 603 CURVE SMOOTH",
"623 609 OFFCURVE",
"631 623 OFFCURVE",
"632 632 CURVE SMOOTH",
"632 636 OFFCURVE",
"630 638 OFFCURVE",
"626 638 CURVE SMOOTH",
"616 638 OFFCURVE",
"596 625 OFFCURVE",
"596 610 CURVE SMOOTH",
"596 603 OFFCURVE",
"601 598 OFFCURVE",
"607 598 CURVE SMOOTH"
);
}
);
};
layerId = "DB049CBD-EE5A-4C6A-B8D5-3A4D87564362";
paths = (
{
closed = 1;
nodes = (
"0 -20 OFFCURVE",
"117 119 OFFCURVE",
"191 200 CURVE",
"232 203 OFFCURVE",
"328 208 OFFCURVE",
"401 208 CURVE SMOOTH",
"425 208 OFFCURVE",
"462 202 OFFCURVE",
"481 184 CURVE",
"467 94 LINE SMOOTH",
"462 64 OFFCURVE",
"457 31 OFFCURVE",
"456 4 CURVE SMOOTH",
"456 -9 OFFCURVE",
"463 -13 OFFCURVE",
"471 -13 CURVE SMOOTH",
"480 -13 OFFCURVE",
"491 -8 OFFCURVE",
"499 -5 CURVE SMOOTH",
"530 6 OFFCURVE",
"557 25 OFFCURVE",
"577 46 CURVE",
"582 50 OFFCURVE",
"581 57 OFFCURVE",
"576 51 CURVE SMOOTH",
"560 34 OFFCURVE",
"540 19 OFFCURVE",
"516 9 CURVE SMOOTH",
"510 6 OFFCURVE",
"506 5 OFFCURVE",
"502 5 CURVE SMOOTH",
"488 5 OFFCURVE",
"485 21 OFFCURVE",
"485 37 CURVE SMOOTH",
"485 44 OFFCURVE",
"485 52 OFFCURVE",
"486 58 CURVE SMOOTH",
"488 91 OFFCURVE",
"497 179 OFFCURVE",
"509 252 CURVE SMOOTH",
"525 353 OFFCURVE",
"554 489 OFFCURVE",
"559 512 CURVE SMOOTH",
"561 521 OFFCURVE",
"570 532 OFFCURVE",
"578 538 CURVE SMOOTH",
"583 541 OFFCURVE",
"578 544 OFFCURVE",
"574 541 CURVE SMOOTH",
"567 535 OFFCURVE",
"551 528 OFFCURVE",
"542 526 CURVE SMOOTH",
"529 523 OFFCURVE",
"520 520 OFFCURVE",
"512 514 CURVE SMOOTH",
"430 447 OFFCURVE",
"298 328 OFFCURVE",
"185 209 CURVE",
"168 209 LINE SMOOTH",
"142 208 OFFCURVE",
"84 214 OFFCURVE",
"67 240 CURVE SMOOTH",
"64 245 OFFCURVE",
"62 242 OFFCURVE",
"63 238 CURVE SMOOTH",
"74 204 OFFCURVE",
"101 197 OFFCURVE",
"132 197 CURVE SMOOTH",
"146 197 OFFCURVE",
"160 198 OFFCURVE",
"175 199 CURVE SMOOTH",
"176 199 LINE",
"150 172 OFFCURVE",
"126 145 OFFCURVE",
"104 119 CURVE SMOOTH",
"57 65 OFFCURVE",
"18 15 OFFCURVE",
"-6 -28 CURVE SMOOTH",
"-15 -43 OFFCURVE",
"-18 -57 OFFCURVE",
"-18 -67 CURVE SMOOTH",
"-18 -71 OFFCURVE",
"-18 -74 OFFCURVE",
"-17 -76 CURVE",
"-13 -96 OFFCURVE",
"10 -110 OFFCURVE",
"8 -95 CURVE SMOOTH"
);
},
{
closed = 1;
nodes = (
"478 204 OFFCURVE",
"472 211 OFFCURVE",
"467 215 CURVE SMOOTH",
"463 218 OFFCURVE",
"441 219 OFFCURVE",
"420 219 CURVE SMOOTH",
"402 219 OFFCURVE",
"385 218 OFFCURVE",
"379 218 CURVE SMOOTH",
"200 210 LINE",
"225 236 LINE SMOOTH",
"310 326 OFFCURVE",
"403 405 OFFCURVE",
"471 461 CURVE SMOOTH",
"496 481 OFFCURVE",
"510 491 OFFCURVE",
"518 491 CURVE SMOOTH",
"521 491 OFFCURVE",
"523 488 OFFCURVE",
"523 483 CURVE SMOOTH",
"523 458 OFFCURVE",
"502 322 OFFCURVE",
"483 196 CURVE"
);
},
{
closed = 1;
nodes = (
"530 598 OFFCURVE",
"533 599 OFFCURVE",
"536 603 CURVE SMOOTH",
"542 609 OFFCURVE",
"552 624 OFFCURVE",
"552 633 CURVE SMOOTH",
"552 645 OFFCURVE",
"521 631 OFFCURVE",
"517 613 CURVE",
"514 605 OFFCURVE",
"520 598 OFFCURVE",
"526 598 CURVE SMOOTH"
);
},
{
closed = 1;
nodes = (
"610 598 OFFCURVE",
"614 599 OFFCURVE",
"617 603 CURVE SMOOTH",
"623 609 OFFCURVE",
"631 623 OFFCURVE",
"632 632 CURVE SMOOTH",
"632 636 OFFCURVE",
"630 638 OFFCURVE",
"626 638 CURVE SMOOTH",
"616 638 OFFCURVE",
"596 625 OFFCURVE",
"596 610 CURVE SMOOTH",
"596 603 OFFCURVE",
"601 598 OFFCURVE",
"607 598 CURVE SMOOTH"
);
}
);
width = 563;
}
);
note = Adieresis;
unicode = 00C4;
},
{
color = 11;
glyphname = Agrave;
lastChange = "2021-08-02 16:25:37 +0000";
layers = (
{
background = {
paths = (
{
closed = 1;
nodes = (
"0 -20 OFFCURVE",
"117 119 OFFCURVE",
"191 200 CURVE",
"232 203 OFFCURVE",
"328 208 OFFCURVE",
"401 208 CURVE SMOOTH",
"425 208 OFFCURVE",
"462 202 OFFCURVE",
"481 184 CURVE",
"467 94 LINE SMOOTH",
"462 64 OFFCURVE",
"457 31 OFFCURVE",
"456 4 CURVE SMOOTH",
"456 -9 OFFCURVE",
"463 -13 OFFCURVE",
"471 -13 CURVE SMOOTH",
"480 -13 OFFCURVE",
"491 -8 OFFCURVE",
"499 -5 CURVE SMOOTH",
"530 6 OFFCURVE",
"557 25 OFFCURVE",
"577 46 CURVE",
"582 50 OFFCURVE",
"581 57 OFFCURVE",
"576 51 CURVE SMOOTH",
"560 34 OFFCURVE",
"540 19 OFFCURVE",
"516 9 CURVE SMOOTH",
"510 6 OFFCURVE",
"506 5 OFFCURVE",
"502 5 CURVE SMOOTH",
"488 5 OFFCURVE",
"485 21 OFFCURVE",
"485 37 CURVE SMOOTH",
"485 44 OFFCURVE",
"485 52 OFFCURVE",
"486 58 CURVE SMOOTH",
"488 91 OFFCURVE",
"497 179 OFFCURVE",
"509 252 CURVE SMOOTH",
"525 353 OFFCURVE",
"554 489 OFFCURVE",
"559 512 CURVE SMOOTH",
"561 521 OFFCURVE",
"570 532 OFFCURVE",
"578 538 CURVE SMOOTH",
"583 541 OFFCURVE",
"578 544 OFFCURVE",
"574 541 CURVE SMOOTH",
"567 535 OFFCURVE",
"551 528 OFFCURVE",
"542 526 CURVE SMOOTH",
"529 523 OFFCURVE",
"520 520 OFFCURVE",
"512 514 CURVE SMOOTH",
"430 447 OFFCURVE",
"298 328 OFFCURVE",
"185 209 CURVE",
"168 209 LINE SMOOTH",
"142 208 OFFCURVE",
"84 214 OFFCURVE",
"67 240 CURVE SMOOTH",
"64 245 OFFCURVE",
"62 242 OFFCURVE",
"63 238 CURVE SMOOTH",
"74 204 OFFCURVE",
"101 197 OFFCURVE",
"132 197 CURVE SMOOTH",
"146 197 OFFCURVE",
"160 198 OFFCURVE",
"175 199 CURVE SMOOTH",
"176 199 LINE",
"150 172 OFFCURVE",
"126 145 OFFCURVE",
"104 119 CURVE SMOOTH",
"57 65 OFFCURVE",
"18 15 OFFCURVE",
"-6 -28 CURVE SMOOTH",
"-15 -43 OFFCURVE",
"-18 -57 OFFCURVE",
"-18 -67 CURVE SMOOTH",
"-18 -71 OFFCURVE",
"-18 -74 OFFCURVE",
"-17 -76 CURVE",
"-13 -96 OFFCURVE",
"10 -110 OFFCURVE",
"8 -95 CURVE SMOOTH"
);
},
{
closed = 1;
nodes = (
"478 204 OFFCURVE",
"472 211 OFFCURVE",
"467 215 CURVE SMOOTH",
"463 218 OFFCURVE",
"441 219 OFFCURVE",
"420 219 CURVE SMOOTH",
"402 219 OFFCURVE",
"385 218 OFFCURVE",
"379 218 CURVE SMOOTH",
"200 210 LINE",
"225 236 LINE SMOOTH",
"310 326 OFFCURVE",
"403 405 OFFCURVE",
"471 461 CURVE SMOOTH",
"496 481 OFFCURVE",
"510 491 OFFCURVE",
"518 491 CURVE SMOOTH",
"521 491 OFFCURVE",
"523 488 OFFCURVE",
"523 483 CURVE SMOOTH",
"523 458 OFFCURVE",
"502 322 OFFCURVE",
"483 196 CURVE"
);
},
{
closed = 1;
nodes = (
"578 593 OFFCURVE",
"586 592 OFFCURVE",
"583 596 CURVE SMOOTH",
"572 611 OFFCURVE",
"534 679 OFFCURVE",
"525 691 CURVE SMOOTH",
"523 694 OFFCURVE",
"511 688 OFFCURVE",
"513 686 CURVE",
"576 596 LINE SMOOTH"
);
}
);
};
layerId = "DB049CBD-EE5A-4C6A-B8D5-3A4D87564362";
paths = (
{
closed = 1;
nodes = (
"0 -20 OFFCURVE",
"117 119 OFFCURVE",
"191 200 CURVE",
"232 203 OFFCURVE",
"328 208 OFFCURVE",
"401 208 CURVE SMOOTH",
"425 208 OFFCURVE",
"462 202 OFFCURVE",
"481 184 CURVE",
"467 94 LINE SMOOTH",
"462 64 OFFCURVE",
"457 31 OFFCURVE",
"456 4 CURVE SMOOTH",
"456 -9 OFFCURVE",
"463 -13 OFFCURVE",
"471 -13 CURVE SMOOTH",
"480 -13 OFFCURVE",
"491 -8 OFFCURVE",
"499 -5 CURVE SMOOTH",
"530 6 OFFCURVE",
"557 25 OFFCURVE",
"577 46 CURVE",
"582 50 OFFCURVE",
"581 57 OFFCURVE",
"576 51 CURVE SMOOTH",
"560 34 OFFCURVE",
"540 19 OFFCURVE",
"516 9 CURVE SMOOTH",
"510 6 OFFCURVE",
"506 5 OFFCURVE",
"502 5 CURVE SMOOTH",
"488 5 OFFCURVE",
"485 21 OFFCURVE",
"485 37 CURVE SMOOTH",
"485 44 OFFCURVE",
"485 52 OFFCURVE",
"486 58 CURVE SMOOTH",
"488 91 OFFCURVE",
"497 179 OFFCURVE",
"509 252 CURVE SMOOTH",
"525 353 OFFCURVE",
"554 489 OFFCURVE",
"559 512 CURVE SMOOTH",
"561 521 OFFCURVE",
"570 532 OFFCURVE",
"578 538 CURVE SMOOTH",
"583 541 OFFCURVE",
"578 544 OFFCURVE",
"574 541 CURVE SMOOTH",
"567 535 OFFCURVE",
"551 528 OFFCURVE",
"542 526 CURVE SMOOTH",
"529 523 OFFCURVE",
"520 520 OFFCURVE",
"512 514 CURVE SMOOTH",
"430 447 OFFCURVE",
"298 328 OFFCURVE",
"185 209 CURVE",
"168 209 LINE SMOOTH",
"142 208 OFFCURVE",
"84 214 OFFCURVE",
"67 240 CURVE SMOOTH",
"64 245 OFFCURVE",
"62 242 OFFCURVE",
"63 238 CURVE SMOOTH",
"74 204 OFFCURVE",
"101 197 OFFCURVE",
"132 197 CURVE SMOOTH",
"146 197 OFFCURVE",
"160 198 OFFCURVE",
"175 199 CURVE SMOOTH",
"176 199 LINE",
"150 172 OFFCURVE",
"126 145 OFFCURVE",
"104 119 CURVE SMOOTH",
"57 65 OFFCURVE",
"18 15 OFFCURVE",
"-6 -28 CURVE SMOOTH",
"-15 -43 OFFCURVE",
"-18 -57 OFFCURVE",
"-18 -67 CURVE SMOOTH",
"-18 -71 OFFCURVE",
"-18 -74 OFFCURVE",
"-17 -76 CURVE",
"-13 -96 OFFCURVE",
"10 -110 OFFCURVE",
"8 -95 CURVE SMOOTH"
);
},
{
closed = 1;
nodes = (
"478 204 OFFCURVE",
"472 211 OFFCURVE",
"467 215 CURVE SMOOTH",
"463 218 OFFCURVE",
"441 219 OFFCURVE",
"420 219 CURVE SMOOTH",
"402 219 OFFCURVE",
"385 218 OFFCURVE",
"379 218 CURVE SMOOTH",
"200 210 LINE",
"225 236 LINE SMOOTH",
"310 326 OFFCURVE",
"403 405 OFFCURVE",
"471 461 CURVE SMOOTH",
"496 481 OFFCURVE",
"510 491 OFFCURVE",
"518 491 CURVE SMOOTH",
"521 491 OFFCURVE",
"523 488 OFFCURVE",
"523 483 CURVE SMOOTH",
"523 458 OFFCURVE",
"502 322 OFFCURVE",
"483 196 CURVE"
);
},
{
closed = 1;
nodes = (
"578 593 OFFCURVE",
"586 592 OFFCURVE",
"583 596 CURVE SMOOTH",
"572 611 OFFCURVE",
"534 679 OFFCURVE",
"525 691 CURVE SMOOTH",
"523 694 OFFCURVE",
"511 688 OFFCURVE",
"513 686 CURVE",
"576 596 LINE SMOOTH"
);
}
);
width = 563;
}
);
note = Agrave;
unicode = 00C0;
},
{
color = 11;
glyphname = Amacron;
lastChange = "2021-08-02 16:25:37 +0000";
layers = (
{
background = {
paths = (
{
closed = 1;
nodes = (
"0 -20 OFFCURVE",
"117 119 OFFCURVE",
"191 200 CURVE",
"232 203 OFFCURVE",
"328 208 OFFCURVE",
"401 208 CURVE SMOOTH",
"425 208 OFFCURVE",
"462 202 OFFCURVE",
"481 184 CURVE",
"467 94 LINE SMOOTH",
"462 64 OFFCURVE",
"457 31 OFFCURVE",
"456 4 CURVE SMOOTH",
"456 -9 OFFCURVE",
"463 -13 OFFCURVE",
"471 -13 CURVE SMOOTH",
"480 -13 OFFCURVE",
"491 -8 OFFCURVE",
"499 -5 CURVE SMOOTH",
"530 6 OFFCURVE",
"557 25 OFFCURVE",
"577 46 CURVE",
"582 50 OFFCURVE",
"581 57 OFFCURVE",
"576 51 CURVE SMOOTH",
"560 34 OFFCURVE",
"540 19 OFFCURVE",
"516 9 CURVE SMOOTH",
"510 6 OFFCURVE",
"506 5 OFFCURVE",
"502 5 CURVE SMOOTH",
"488 5 OFFCURVE",
"485 21 OFFCURVE",
"485 37 CURVE SMOOTH",
"485 44 OFFCURVE",
"485 52 OFFCURVE",
"486 58 CURVE SMOOTH",
"488 91 OFFCURVE",
"497 179 OFFCURVE",
"509 252 CURVE SMOOTH",
"525 353 OFFCURVE",
"554 489 OFFCURVE",
"559 512 CURVE SMOOTH",
"561 521 OFFCURVE",
"570 532 OFFCURVE",
"578 538 CURVE SMOOTH",
"583 541 OFFCURVE",
"578 544 OFFCURVE",
"574 541 CURVE SMOOTH",
"567 535 OFFCURVE",
"551 528 OFFCURVE",
"542 526 CURVE SMOOTH",
"529 523 OFFCURVE",
"520 520 OFFCURVE",
"512 514 CURVE SMOOTH",
"430 447 OFFCURVE",
"298 328 OFFCURVE",
"185 209 CURVE",
"168 209 LINE SMOOTH",
"142 208 OFFCURVE",
"84 214 OFFCURVE",
"67 240 CURVE SMOOTH",
"64 245 OFFCURVE",
"62 242 OFFCURVE",
"63 238 CURVE SMOOTH",
"74 204 OFFCURVE",
"101 197 OFFCURVE",
"132 197 CURVE SMOOTH",
"146 197 OFFCURVE",
"160 198 OFFCURVE",
"175 199 CURVE SMOOTH",
"176 199 LINE",
"150 172 OFFCURVE",
"126 145 OFFCURVE",
"104 119 CURVE SMOOTH",
"57 65 OFFCURVE",
"18 15 OFFCURVE",
"-6 -28 CURVE SMOOTH",
"-15 -43 OFFCURVE",
"-18 -57 OFFCURVE",
"-18 -67 CURVE SMOOTH",
"-18 -71 OFFCURVE",
"-18 -74 OFFCURVE",
"-17 -76 CURVE",
"-13 -96 OFFCURVE",
"10 -110 OFFCURVE",
"8 -95 CURVE SMOOTH"
);
},
{
closed = 1;
nodes = (
"478 204 OFFCURVE",
"472 211 OFFCURVE",
"467 215 CURVE SMOOTH",
"463 218 OFFCURVE",
"441 219 OFFCURVE",
"420 219 CURVE SMOOTH",
"402 219 OFFCURVE",
"385 218 OFFCURVE",
"379 218 CURVE SMOOTH",
"200 210 LINE",
"225 236 LINE SMOOTH",
"310 326 OFFCURVE",
"403 405 OFFCURVE",
"471 461 CURVE SMOOTH",
"496 481 OFFCURVE",
"510 491 OFFCURVE",
"518 491 CURVE SMOOTH",
"521 491 OFFCURVE",
"523 488 OFFCURVE",
"523 483 CURVE SMOOTH",
"523 458 OFFCURVE",
"502 322 OFFCURVE",
"483 196 CURVE"
);
},
{
closed = 1;
nodes = (
"513 598 OFFCURVE",
"527 598 OFFCURVE",
"543 598 CURVE SMOOTH",
"631 598 LINE SMOOTH",
"633 598 OFFCURVE",
"636 608 OFFCURVE",
"636 612 CURVE SMOOTH",
"636 613 OFFCURVE",
"636 614 OFFCURVE",
"635 614 CURVE SMOOTH",
"513 614 LINE SMOOTH",
"511 614 OFFCURVE",
"507 604 OFFCURVE",
"507 600 CURVE SMOOTH",
"507 598 OFFCURVE",
"507 598 OFFCURVE",
"508 598 CURVE SMOOTH"
);
}
);
};
layerId = "DB049CBD-EE5A-4C6A-B8D5-3A4D87564362";
paths = (
{
closed = 1;
nodes = (
"0 -20 OFFCURVE",
"117 119 OFFCURVE",
"191 200 CURVE",
"232 203 OFFCURVE",
"328 208 OFFCURVE",
"401 208 CURVE SMOOTH",
"425 208 OFFCURVE",
"462 202 OFFCURVE",
"481 184 CURVE",
"467 94 LINE SMOOTH",
"462 64 OFFCURVE",
"457 31 OFFCURVE",
"456 4 CURVE SMOOTH",
"456 -9 OFFCURVE",
"463 -13 OFFCURVE",
"471 -13 CURVE SMOOTH",
"480 -13 OFFCURVE",
"491 -8 OFFCURVE",
"499 -5 CURVE SMOOTH",
"530 6 OFFCURVE",
"557 25 OFFCURVE",
"577 46 CURVE",
"582 50 OFFCURVE",
"581 57 OFFCURVE",
"576 51 CURVE SMOOTH",
"560 34 OFFCURVE",
"540 19 OFFCURVE",
"516 9 CURVE SMOOTH",
"510 6 OFFCURVE",
"506 5 OFFCURVE",
"502 5 CURVE SMOOTH",
"488 5 OFFCURVE",
"485 21 OFFCURVE",
"485 37 CURVE SMOOTH",
"485 44 OFFCURVE",
"485 52 OFFCURVE",
"486 58 CURVE SMOOTH",
"488 91 OFFCURVE",
"497 179 OFFCURVE",
"509 252 CURVE SMOOTH",
"525 353 OFFCURVE",
"554 489 OFFCURVE",
"559 512 CURVE SMOOTH",
"561 521 OFFCURVE",
"570 532 OFFCURVE",
"578 538 CURVE SMOOTH",
"583 541 OFFCURVE",
"578 544 OFFCURVE",
"574 541 CURVE SMOOTH",
"567 535 OFFCURVE",
"551 528 OFFCURVE",
"542 526 CURVE SMOOTH",
"529 523 OFFCURVE",
"520 520 OFFCURVE",
"512 514 CURVE SMOOTH",
"430 447 OFFCURVE",
"298 328 OFFCURVE",
"185 209 CURVE",
"168 209 LINE SMOOTH",
"142 208 OFFCURVE",
"84 214 OFFCURVE",
"67 240 CURVE SMOOTH",
"64 245 OFFCURVE",
"62 242 OFFCURVE",
"63 238 CURVE SMOOTH",
"74 204 OFFCURVE",
"101 197 OFFCURVE",
"132 197 CURVE SMOOTH",
"146 197 OFFCURVE",
"160 198 OFFCURVE",
"175 199 CURVE SMOOTH",
"176 199 LINE",
"150 172 OFFCURVE",
"126 145 OFFCURVE",
"104 119 CURVE SMOOTH",
"57 65 OFFCURVE",
"18 15 OFFCURVE",
"-6 -28 CURVE SMOOTH",
"-15 -43 OFFCURVE",
"-18 -57 OFFCURVE",
"-18 -67 CURVE SMOOTH",
"-18 -71 OFFCURVE",
"-18 -74 OFFCURVE",
"-17 -76 CURVE",
"-13 -96 OFFCURVE",
"10 -110 OFFCURVE",
"8 -95 CURVE SMOOTH"
);
},
{
closed = 1;
nodes = (
"478 204 OFFCURVE",
"472 211 OFFCURVE",
"467 215 CURVE SMOOTH",
"463 218 OFFCURVE",
"441 219 OFFCURVE",
"420 219 CURVE SMOOTH",
"402 219 OFFCURVE",
"385 218 OFFCURVE",
"379 218 CURVE SMOOTH",
"200 210 LINE",
"225 236 LINE SMOOTH",
"310 326 OFFCURVE",
"403 405 OFFCURVE",
"471 461 CURVE SMOOTH",
"496 481 OFFCURVE",
"510 491 OFFCURVE",
"518 491 CURVE SMOOTH",
"521 491 OFFCURVE",
"523 488 OFFCURVE",
"523 483 CURVE SMOOTH",
"523 458 OFFCURVE",
"502 322 OFFCURVE",
"483 196 CURVE"
);
},
{
closed = 1;
nodes = (
"513 598 OFFCURVE",
"527 598 OFFCURVE",
"543 598 CURVE SMOOTH",
"631 598 LINE SMOOTH",
"633 598 OFFCURVE",
"636 608 OFFCURVE",
"636 612 CURVE SMOOTH",
"636 613 OFFCURVE",
"636 614 OFFCURVE",
"635 614 CURVE SMOOTH",
"513 614 LINE SMOOTH",
"511 614 OFFCURVE",
"507 604 OFFCURVE",
"507 600 CURVE SMOOTH",
"507 598 OFFCURVE",
"507 598 OFFCURVE",
"508 598 CURVE SMOOTH"
);
}
);
width = 563;
}
);
note = Amacron;
unicode = 0100;
},
{
color = 11;
glyphname = Aogonek;
lastChange = "2021-08-02 16:25:37 +0000";
layers = (
{
background = {
paths = (
{
closed = 1;
nodes = (
"0 -20 OFFCURVE",
"117 119 OFFCURVE",
"191 200 CURVE",
"232 203 OFFCURVE",
"328 208 OFFCURVE",
"401 208 CURVE SMOOTH",
"425 208 OFFCURVE",
"462 202 OFFCURVE",
"481 184 CURVE",
"467 94 LINE SMOOTH",
"462 64 OFFCURVE",
"457 31 OFFCURVE",
"456 4 CURVE SMOOTH",
"456 -9 OFFCURVE",
"463 -13 OFFCURVE",
"471 -13 CURVE SMOOTH",
"480 -13 OFFCURVE",
"491 -8 OFFCURVE",
"499 -5 CURVE SMOOTH",
"530 6 OFFCURVE",
"557 25 OFFCURVE",
"577 46 CURVE",
"582 50 OFFCURVE",
"581 57 OFFCURVE",
"576 51 CURVE SMOOTH",
"560 34 OFFCURVE",
"540 19 OFFCURVE",
"516 9 CURVE SMOOTH",
"510 6 OFFCURVE",
"506 5 OFFCURVE",
"502 5 CURVE SMOOTH",
"488 5 OFFCURVE",
"485 21 OFFCURVE",
"485 37 CURVE SMOOTH",
"485 44 OFFCURVE",
"485 52 OFFCURVE",
"486 58 CURVE SMOOTH",
"488 91 OFFCURVE",
"497 179 OFFCURVE",
"509 252 CURVE SMOOTH",
"525 353 OFFCURVE",
"554 489 OFFCURVE",
"559 512 CURVE SMOOTH",
"561 521 OFFCURVE",
"570 532 OFFCURVE",
"578 538 CURVE SMOOTH",
"583 541 OFFCURVE",
"578 544 OFFCURVE",
"574 541 CURVE SMOOTH",
"567 535 OFFCURVE",
"551 528 OFFCURVE",
"542 526 CURVE SMOOTH",
"529 523 OFFCURVE",
"520 520 OFFCURVE",
"512 514 CURVE SMOOTH",
"430 447 OFFCURVE",
"298 328 OFFCURVE",
"185 209 CURVE",
"168 209 LINE SMOOTH",
"142 208 OFFCURVE",
"84 214 OFFCURVE",
"67 240 CURVE SMOOTH",
"64 245 OFFCURVE",
"62 242 OFFCURVE",
"63 238 CURVE SMOOTH",
"74 204 OFFCURVE",
"101 197 OFFCURVE",
"132 197 CURVE SMOOTH",
"146 197 OFFCURVE",
"160 198 OFFCURVE",
"175 199 CURVE SMOOTH",
"176 199 LINE",
"150 172 OFFCURVE",
"126 145 OFFCURVE",
"104 119 CURVE SMOOTH",
"57 65 OFFCURVE",
"18 15 OFFCURVE",
"-6 -28 CURVE SMOOTH",
"-15 -43 OFFCURVE",
"-18 -57 OFFCURVE",
"-18 -67 CURVE SMOOTH",
"-18 -71 OFFCURVE",
"-18 -74 OFFCURVE",
"-17 -76 CURVE",
"-13 -96 OFFCURVE",
"10 -110 OFFCURVE",
"8 -95 CURVE SMOOTH"
);
},
{
closed = 1;
nodes = (
"397 -196 OFFCURVE",
"409 -189 OFFCURVE",
"419 -181 CURVE SMOOTH",
"439 -166 OFFCURVE",
"464 -137 OFFCURVE",
"478 -118 CURVE SMOOTH",
"482 -113 OFFCURVE",
"478 -106 OFFCURVE",
"477 -108 CURVE SMOOTH",
"463 -127 OFFCURVE",
"439 -162 OFFCURVE",
"419 -175 CURVE SMOOTH",
"412 -179 OFFCURVE",
"407 -182 OFFCURVE",
"402 -182 CURVE SMOOTH",
"396 -182 OFFCURVE",
"393 -177 OFFCURVE",
"393 -164 CURVE SMOOTH",
"393 -98 OFFCURVE",
"439 -37 OFFCURVE",
"471 -18 CURVE SMOOTH",
"475 -16 OFFCURVE",
"476 -8 OFFCURVE",
"472 -8 CURVE SMOOTH",
"471 -8 OFFCURVE",
"470 -8 OFFCURVE",
"469 -9 CURVE SMOOTH",
"421 -46 OFFCURVE",
"376 -116 OFFCURVE",
"376 -176 CURVE SMOOTH",
"376 -191 OFFCURVE",
"381 -196 OFFCURVE",
"389 -196 CURVE SMOOTH"
);
},
{
closed = 1;
nodes = (
"478 204 OFFCURVE",
"472 211 OFFCURVE",
"467 215 CURVE SMOOTH",
"463 218 OFFCURVE",
"441 219 OFFCURVE",
"420 219 CURVE SMOOTH",
"402 219 OFFCURVE",
"385 218 OFFCURVE",
"379 218 CURVE SMOOTH",
"200 210 LINE",
"225 236 LINE SMOOTH",
"310 326 OFFCURVE",
"403 405 OFFCURVE",
"471 461 CURVE SMOOTH",
"496 481 OFFCURVE",
"510 491 OFFCURVE",
"518 491 CURVE SMOOTH",
"521 491 OFFCURVE",
"523 488 OFFCURVE",
"523 483 CURVE SMOOTH",
"523 458 OFFCURVE",
"502 322 OFFCURVE",
"483 196 CURVE"
);
}
);
};
layerId = "DB049CBD-EE5A-4C6A-B8D5-3A4D87564362";
paths = (
{
closed = 1;
nodes = (
"0 -20 OFFCURVE",
"117 119 OFFCURVE",
"191 200 CURVE",
"232 203 OFFCURVE",
"328 208 OFFCURVE",
"401 208 CURVE SMOOTH",
"425 208 OFFCURVE",
"462 202 OFFCURVE",
"481 184 CURVE",
"467 94 LINE SMOOTH",
"462 64 OFFCURVE",
"457 31 OFFCURVE",
"456 4 CURVE SMOOTH",
"456 -9 OFFCURVE",
"463 -13 OFFCURVE",
"471 -13 CURVE SMOOTH",
"480 -13 OFFCURVE",
"491 -8 OFFCURVE",
"499 -5 CURVE SMOOTH",
"530 6 OFFCURVE",
"557 25 OFFCURVE",
"577 46 CURVE",
"582 50 OFFCURVE",
"581 57 OFFCURVE",
"576 51 CURVE SMOOTH",
"560 34 OFFCURVE",
"540 19 OFFCURVE",
"516 9 CURVE SMOOTH",
"510 6 OFFCURVE",
"506 5 OFFCURVE",
"502 5 CURVE SMOOTH",
"488 5 OFFCURVE",
"485 21 OFFCURVE",
"485 37 CURVE SMOOTH",
"485 44 OFFCURVE",
"485 52 OFFCURVE",
"486 58 CURVE SMOOTH",
"488 91 OFFCURVE",
"497 179 OFFCURVE",
"509 252 CURVE SMOOTH",
"525 353 OFFCURVE",
"554 489 OFFCURVE",
"559 512 CURVE SMOOTH",
"561 521 OFFCURVE",
"570 532 OFFCURVE",
"578 538 CURVE SMOOTH",
"583 541 OFFCURVE",
"578 544 OFFCURVE",
"574 541 CURVE SMOOTH",
"567 535 OFFCURVE",
"551 528 OFFCURVE",
"542 526 CURVE SMOOTH",
"529 523 OFFCURVE",
"520 520 OFFCURVE",
"512 514 CURVE SMOOTH",
"430 447 OFFCURVE",
"298 328 OFFCURVE",
"185 209 CURVE",
"168 209 LINE SMOOTH",
"142 208 OFFCURVE",
"84 214 OFFCURVE",
"67 240 CURVE SMOOTH",
"64 245 OFFCURVE",
"62 242 OFFCURVE",
"63 238 CURVE SMOOTH",
"74 204 OFFCURVE",
"101 197 OFFCURVE",
"132 197 CURVE SMOOTH",
"146 197 OFFCURVE",
"160 198 OFFCURVE",
"175 199 CURVE SMOOTH",
"176 199 LINE",
"150 172 OFFCURVE",
"126 145 OFFCURVE",
"104 119 CURVE SMOOTH",
"57 65 OFFCURVE",
"18 15 OFFCURVE",
"-6 -28 CURVE SMOOTH",
"-15 -43 OFFCURVE",
"-18 -57 OFFCURVE",
"-18 -67 CURVE SMOOTH",
"-18 -71 OFFCURVE",
"-18 -74 OFFCURVE",
"-17 -76 CURVE",
"-13 -96 OFFCURVE",
"10 -110 OFFCURVE",
"8 -95 CURVE SMOOTH"
);
},
{
closed = 1;
nodes = (
"397 -196 OFFCURVE",
"409 -189 OFFCURVE",
"419 -181 CURVE SMOOTH",
"439 -166 OFFCURVE",
"464 -137 OFFCURVE",
"478 -118 CURVE SMOOTH",
"482 -113 OFFCURVE",
"478 -106 OFFCURVE",
"477 -108 CURVE SMOOTH",
"463 -127 OFFCURVE",
"439 -162 OFFCURVE",
"419 -175 CURVE SMOOTH",
"412 -179 OFFCURVE",
"407 -182 OFFCURVE",
"402 -182 CURVE SMOOTH",
"396 -182 OFFCURVE",
"393 -177 OFFCURVE",
"393 -164 CURVE SMOOTH",
"393 -98 OFFCURVE",
"439 -37 OFFCURVE",
"471 -18 CURVE SMOOTH",
"475 -16 OFFCURVE",
"476 -8 OFFCURVE",
"472 -8 CURVE SMOOTH",
"471 -8 OFFCURVE",
"470 -8 OFFCURVE",
"469 -9 CURVE SMOOTH",
"421 -46 OFFCURVE",
"376 -116 OFFCURVE",
"376 -176 CURVE SMOOTH",
"376 -191 OFFCURVE",
"381 -196 OFFCURVE",
"389 -196 CURVE SMOOTH"
);
},
{
closed = 1;
nodes = (
"478 204 OFFCURVE",
"472 211 OFFCURVE",
"467 215 CURVE SMOOTH",
"463 218 OFFCURVE",
"441 219 OFFCURVE",
"420 219 CURVE SMOOTH",
"402 219 OFFCURVE",
"385 218 OFFCURVE",
"379 218 CURVE SMOOTH",
"200 210 LINE",
"225 236 LINE SMOOTH",
"310 326 OFFCURVE",
"403 405 OFFCURVE",
"471 461 CURVE SMOOTH",
"496 481 OFFCURVE",
"510 491 OFFCURVE",
"518 491 CURVE SMOOTH",
"521 491 OFFCURVE",
"523 488 OFFCURVE",
"523 483 CURVE SMOOTH",
"523 458 OFFCURVE",
"502 322 OFFCURVE",
"483 196 CURVE"
);
}
);
width = 563;
}
);
note = Aogonek;
unicode = 0104;
},
{
color = 11;
glyphname = Aring;
lastChange = "2021-08-02 16:25:37 +0000";
layers = (
{
background = {
paths = (
{
closed = 1;
nodes = (
"0 -20 OFFCURVE",
"117 119 OFFCURVE",
"191 200 CURVE",
"232 203 OFFCURVE",
"328 208 OFFCURVE",
"401 208 CURVE SMOOTH",
"425 208 OFFCURVE",
"462 202 OFFCURVE",
"481 184 CURVE",
"467 94 LINE SMOOTH",
"462 64 OFFCURVE",
"457 31 OFFCURVE",
"456 4 CURVE SMOOTH",
"456 -9 OFFCURVE",
"463 -13 OFFCURVE",
"471 -13 CURVE SMOOTH",
"480 -13 OFFCURVE",
"491 -8 OFFCURVE",
"499 -5 CURVE SMOOTH",
"530 6 OFFCURVE",
"557 25 OFFCURVE",
"577 46 CURVE",
"582 50 OFFCURVE",
"581 57 OFFCURVE",
"576 51 CURVE SMOOTH",
"560 34 OFFCURVE",
"540 19 OFFCURVE",
"516 9 CURVE SMOOTH",
"510 6 OFFCURVE",
"506 5 OFFCURVE",
"502 5 CURVE SMOOTH",
"488 5 OFFCURVE",
"485 21 OFFCURVE",
"485 37 CURVE SMOOTH",
"485 44 OFFCURVE",
"485 52 OFFCURVE",
"486 58 CURVE SMOOTH",
"488 91 OFFCURVE",
"497 179 OFFCURVE",
"509 252 CURVE SMOOTH",
"525 353 OFFCURVE",
"554 489 OFFCURVE",
"559 512 CURVE SMOOTH",
"561 521 OFFCURVE",
"570 532 OFFCURVE",
"578 538 CURVE SMOOTH",
"583 541 OFFCURVE",
"578 544 OFFCURVE",
"574 541 CURVE SMOOTH",
"567 535 OFFCURVE",
"551 528 OFFCURVE",
"542 526 CURVE SMOOTH",
"529 523 OFFCURVE",
"520 520 OFFCURVE",
"512 514 CURVE SMOOTH",
"430 447 OFFCURVE",
"298 328 OFFCURVE",
"185 209 CURVE",
"168 209 LINE SMOOTH",
"142 208 OFFCURVE",
"84 214 OFFCURVE",
"67 240 CURVE SMOOTH",
"64 245 OFFCURVE",
"62 242 OFFCURVE",
"63 238 CURVE SMOOTH",
"74 204 OFFCURVE",
"101 197 OFFCURVE",
"132 197 CURVE SMOOTH",
"146 197 OFFCURVE",
"160 198 OFFCURVE",
"175 199 CURVE SMOOTH",
"176 199 LINE",
"150 172 OFFCURVE",
"126 145 OFFCURVE",
"104 119 CURVE SMOOTH",
"57 65 OFFCURVE",
"18 15 OFFCURVE",
"-6 -28 CURVE SMOOTH",
"-15 -43 OFFCURVE",
"-18 -57 OFFCURVE",
"-18 -67 CURVE SMOOTH",
"-18 -71 OFFCURVE",
"-18 -74 OFFCURVE",
"-17 -76 CURVE",
"-13 -96 OFFCURVE",
"10 -110 OFFCURVE",
"8 -95 CURVE SMOOTH"
);
},
{
closed = 1;
nodes = (
"478 204 OFFCURVE",
"472 211 OFFCURVE",
"467 215 CURVE SMOOTH",
"463 218 OFFCURVE",
"441 219 OFFCURVE",
"420 219 CURVE SMOOTH",
"402 219 OFFCURVE",
"385 218 OFFCURVE",
"379 218 CURVE SMOOTH",
"200 210 LINE",
"225 236 LINE SMOOTH",
"310 326 OFFCURVE",
"403 405 OFFCURVE",
"471 461 CURVE SMOOTH",
"496 481 OFFCURVE",
"510 491 OFFCURVE",
"518 491 CURVE SMOOTH",
"521 491 OFFCURVE",
"523 488 OFFCURVE",
"523 483 CURVE SMOOTH",
"523 458 OFFCURVE",
"502 322 OFFCURVE",
"483 196 CURVE"
);
},
{
closed = 1;
nodes = (
"584 529 OFFCURVE",
"618 557 OFFCURVE",
"618 598 CURVE SMOOTH",
"618 626 OFFCURVE",
"598 640 OFFCURVE",
"572 640 CURVE SMOOTH",
"532 640 OFFCURVE",
"497 613 OFFCURVE",
"497 571 CURVE SMOOTH",
"497 543 OFFCURVE",
"518 529 OFFCURVE",
"544 529 CURVE SMOOTH"
);
},
{
closed = 1;
nodes = (
"524 535 OFFCURVE",
"512 554 OFFCURVE",
"512 577 CURVE SMOOTH",
"512 610 OFFCURVE",
"535 634 OFFCURVE",
"568 634 CURVE SMOOTH",
"592 634 OFFCURVE",
"602 616 OFFCURVE",
"602 594 CURVE SMOOTH",
"602 563 OFFCURVE",
"582 535 OFFCURVE",
"549 535 CURVE SMOOTH"
);
}
);
};
layerId = "DB049CBD-EE5A-4C6A-B8D5-3A4D87564362";
paths = (
{
closed = 1;
nodes = (
"0 -20 OFFCURVE",
"117 119 OFFCURVE",
"191 200 CURVE",
"232 203 OFFCURVE",
"328 208 OFFCURVE",
"401 208 CURVE SMOOTH",
"425 208 OFFCURVE",
"462 202 OFFCURVE",
"481 184 CURVE",
"467 94 LINE SMOOTH",
"462 64 OFFCURVE",
"457 31 OFFCURVE",
"456 4 CURVE SMOOTH",
"456 -9 OFFCURVE",
"463 -13 OFFCURVE",
"471 -13 CURVE SMOOTH",
"480 -13 OFFCURVE",
"491 -8 OFFCURVE",
"499 -5 CURVE SMOOTH",
"530 6 OFFCURVE",
"557 25 OFFCURVE",
"577 46 CURVE",
"582 50 OFFCURVE",
"581 57 OFFCURVE",
"576 51 CURVE SMOOTH",
"560 34 OFFCURVE",
"540 19 OFFCURVE",
"516 9 CURVE SMOOTH",
"510 6 OFFCURVE",
"506 5 OFFCURVE",
"502 5 CURVE SMOOTH",
"488 5 OFFCURVE",
"485 21 OFFCURVE",
"485 37 CURVE SMOOTH",
"485 44 OFFCURVE",
"485 52 OFFCURVE",
"486 58 CURVE SMOOTH",
"488 91 OFFCURVE",
"497 179 OFFCURVE",
"509 252 CURVE SMOOTH",
"525 353 OFFCURVE",
"554 489 OFFCURVE",
"559 512 CURVE SMOOTH",
"561 521 OFFCURVE",
"570 532 OFFCURVE",
"578 538 CURVE SMOOTH",
"583 541 OFFCURVE",
"578 544 OFFCURVE",
"574 541 CURVE SMOOTH",
"567 535 OFFCURVE",
"551 528 OFFCURVE",
"542 526 CURVE SMOOTH",
"529 523 OFFCURVE",
"520 520 OFFCURVE",
"512 514 CURVE SMOOTH",
"430 447 OFFCURVE",
"298 328 OFFCURVE",
"185 209 CURVE",
"168 209 LINE SMOOTH",
"142 208 OFFCURVE",
"84 214 OFFCURVE",
"67 240 CURVE SMOOTH",
"64 245 OFFCURVE",
"62 242 OFFCURVE",
"63 238 CURVE SMOOTH",
"74 204 OFFCURVE",
"101 197 OFFCURVE",
"132 197 CURVE SMOOTH",
"146 197 OFFCURVE",
"160 198 OFFCURVE",
"175 199 CURVE SMOOTH",
"176 199 LINE",
"150 172 OFFCURVE",
"126 145 OFFCURVE",
"104 119 CURVE SMOOTH",
"57 65 OFFCURVE",
"18 15 OFFCURVE",
"-6 -28 CURVE SMOOTH",
"-15 -43 OFFCURVE",
"-18 -57 OFFCURVE",
"-18 -67 CURVE SMOOTH",
"-18 -71 OFFCURVE",
"-18 -74 OFFCURVE",
"-17 -76 CURVE",
"-13 -96 OFFCURVE",
"10 -110 OFFCURVE",
"8 -95 CURVE SMOOTH"
);
},
{
closed = 1;
nodes = (
"478 204 OFFCURVE",
"472 211 OFFCURVE",
"467 215 CURVE SMOOTH",
"463 218 OFFCURVE",
"441 219 OFFCURVE",
"420 219 CURVE SMOOTH",
"402 219 OFFCURVE",
"385 218 OFFCURVE",
"379 218 CURVE SMOOTH",
"200 210 LINE",
"225 236 LINE SMOOTH",
"310 326 OFFCURVE",
"403 405 OFFCURVE",
"471 461 CURVE SMOOTH",
"496 481 OFFCURVE",
"510 491 OFFCURVE",
"518 491 CURVE SMOOTH",
"521 491 OFFCURVE",
"523 488 OFFCURVE",
"523 483 CURVE SMOOTH",
"523 458 OFFCURVE",
"502 322 OFFCURVE",
"483 196 CURVE"
);
},
{
closed = 1;
nodes = (
"584 529 OFFCURVE",
"618 557 OFFCURVE",
"618 598 CURVE SMOOTH",
"618 626 OFFCURVE",
"598 640 OFFCURVE",
"572 640 CURVE SMOOTH",
"532 640 OFFCURVE",
"497 613 OFFCURVE",
"497 571 CURVE SMOOTH",
"497 543 OFFCURVE",
"518 529 OFFCURVE",
"544 529 CURVE SMOOTH"
);
},
{
closed = 1;
nodes = (
"524 535 OFFCURVE",
"512 554 OFFCURVE",
"512 577 CURVE SMOOTH",
"512 610 OFFCURVE",
"535 634 OFFCURVE",
"568 634 CURVE SMOOTH",
"592 634 OFFCURVE",
"602 616 OFFCURVE",
"602 594 CURVE SMOOTH",
"602 563 OFFCURVE",
"582 535 OFFCURVE",
"549 535 CURVE SMOOTH"
);
}
);
width = 563;
}
);
note = Aring;
unicode = 00C5;
},
{
color = 11;
glyphname = Atilde;
lastChange = "2021-08-02 16:25:37 +0000";
layers = (
{
background = {
paths = (
{
closed = 1;
nodes = (
"0 -20 OFFCURVE",
"117 119 OFFCURVE",
"191 200 CURVE",
"232 203 OFFCURVE",
"328 208 OFFCURVE",
"401 208 CURVE SMOOTH",
"425 208 OFFCURVE",
"462 202 OFFCURVE",
"481 184 CURVE",
"467 94 LINE SMOOTH",
"462 64 OFFCURVE",
"457 31 OFFCURVE",
"456 4 CURVE SMOOTH",
"456 -9 OFFCURVE",
"463 -13 OFFCURVE",
"471 -13 CURVE SMOOTH",
"480 -13 OFFCURVE",
"491 -8 OFFCURVE",
"499 -5 CURVE SMOOTH",
"530 6 OFFCURVE",
"557 25 OFFCURVE",
"577 46 CURVE",
"582 50 OFFCURVE",
"581 57 OFFCURVE",
"576 51 CURVE SMOOTH",
"560 34 OFFCURVE",
"540 19 OFFCURVE",
"516 9 CURVE SMOOTH",
"510 6 OFFCURVE",
"506 5 OFFCURVE",
"502 5 CURVE SMOOTH",
"488 5 OFFCURVE",
"485 21 OFFCURVE",
"485 37 CURVE SMOOTH",
"485 44 OFFCURVE",
"485 52 OFFCURVE",
"486 58 CURVE SMOOTH",
"488 91 OFFCURVE",
"497 179 OFFCURVE",
"509 252 CURVE SMOOTH",
"525 353 OFFCURVE",
"554 489 OFFCURVE",
"559 512 CURVE SMOOTH",
"561 521 OFFCURVE",
"570 532 OFFCURVE",
"578 538 CURVE SMOOTH",
"583 541 OFFCURVE",
"578 544 OFFCURVE",
"574 541 CURVE SMOOTH",
"567 535 OFFCURVE",
"551 528 OFFCURVE",
"542 526 CURVE SMOOTH",
"529 523 OFFCURVE",
"520 520 OFFCURVE",
"512 514 CURVE SMOOTH",
"430 447 OFFCURVE",
"298 328 OFFCURVE",
"185 209 CURVE",
"168 209 LINE SMOOTH",
"142 208 OFFCURVE",
"84 214 OFFCURVE",
"67 240 CURVE SMOOTH",
"64 245 OFFCURVE",
"62 242 OFFCURVE",
"63 238 CURVE SMOOTH",
"74 204 OFFCURVE",
"101 197 OFFCURVE",
"132 197 CURVE SMOOTH",
"146 197 OFFCURVE",
"160 198 OFFCURVE",
"175 199 CURVE SMOOTH",
"176 199 LINE",
"150 172 OFFCURVE",
"126 145 OFFCURVE",
"104 119 CURVE SMOOTH",
"57 65 OFFCURVE",
"18 15 OFFCURVE",
"-6 -28 CURVE SMOOTH",
"-15 -43 OFFCURVE",
"-18 -57 OFFCURVE",
"-18 -67 CURVE SMOOTH",
"-18 -71 OFFCURVE",
"-18 -74 OFFCURVE",
"-17 -76 CURVE",
"-13 -96 OFFCURVE",
"10 -110 OFFCURVE",
"8 -95 CURVE SMOOTH"
);
},
{
closed = 1;
nodes = (
"478 204 OFFCURVE",
"472 211 OFFCURVE",
"467 215 CURVE SMOOTH",
"463 218 OFFCURVE",
"441 219 OFFCURVE",
"420 219 CURVE SMOOTH",
"402 219 OFFCURVE",
"385 218 OFFCURVE",
"379 218 CURVE SMOOTH",
"200 210 LINE",
"225 236 LINE SMOOTH",
"310 326 OFFCURVE",
"403 405 OFFCURVE",
"471 461 CURVE SMOOTH",
"496 481 OFFCURVE",
"510 491 OFFCURVE",
"518 491 CURVE SMOOTH",
"521 491 OFFCURVE",
"523 488 OFFCURVE",
"523 483 CURVE SMOOTH",
"523 458 OFFCURVE",
"502 322 OFFCURVE",
"483 196 CURVE"
);
},
{
closed = 1;
nodes = (
"634 606 OFFCURVE",
"646 616 OFFCURVE",
"656 638 CURVE SMOOTH",
"657 641 OFFCURVE",
"657 649 OFFCURVE",
"656 646 CURVE SMOOTH",
"647 628 OFFCURVE",
"638 619 OFFCURVE",
"625 619 CURVE SMOOTH",
"612 619 OFFCURVE",
"595 628 OFFCURVE",
"572 643 CURVE SMOOTH",
"558 652 OFFCURVE",
"546 656 OFFCURVE",
"535 656 CURVE SMOOTH",
"512 656 OFFCURVE",
"496 638 OFFCURVE",
"487 617 CURVE SMOOTH",
"486 614 OFFCURVE",
"486 606 OFFCURVE",
"487 609 CURVE SMOOTH",
"495 628 OFFCURVE",
"507 642 OFFCURVE",
"526 642 CURVE SMOOTH",
"536 642 OFFCURVE",
"548 638 OFFCURVE",
"563 628 CURVE SMOOTH",
"585 613 OFFCURVE",
"602 606 OFFCURVE",
"617 606 CURVE SMOOTH"
);
}
);
};
layerId = "DB049CBD-EE5A-4C6A-B8D5-3A4D87564362";
paths = (
{
closed = 1;
nodes = (
"0 -20 OFFCURVE",
"117 119 OFFCURVE",
"191 200 CURVE",
"232 203 OFFCURVE",
"328 208 OFFCURVE",
"401 208 CURVE SMOOTH",
"425 208 OFFCURVE",
"462 202 OFFCURVE",
"481 184 CURVE",
"467 94 LINE SMOOTH",
"462 64 OFFCURVE",
"457 31 OFFCURVE",
"456 4 CURVE SMOOTH",
"456 -9 OFFCURVE",
"463 -13 OFFCURVE",
"471 -13 CURVE SMOOTH",
"480 -13 OFFCURVE",
"491 -8 OFFCURVE",
"499 -5 CURVE SMOOTH",
"530 6 OFFCURVE",
"557 25 OFFCURVE",
"577 46 CURVE",
"582 50 OFFCURVE",
"581 57 OFFCURVE",
"576 51 CURVE SMOOTH",
"560 34 OFFCURVE",
"540 19 OFFCURVE",
"516 9 CURVE SMOOTH",
"510 6 OFFCURVE",
"506 5 OFFCURVE",
"502 5 CURVE SMOOTH",
"488 5 OFFCURVE",
"485 21 OFFCURVE",
"485 37 CURVE SMOOTH",
"485 44 OFFCURVE",
"485 52 OFFCURVE",
"486 58 CURVE SMOOTH",
"488 91 OFFCURVE",
"497 179 OFFCURVE",
"509 252 CURVE SMOOTH",
"525 353 OFFCURVE",
"554 489 OFFCURVE",
"559 512 CURVE SMOOTH",
"561 521 OFFCURVE",
"570 532 OFFCURVE",
"578 538 CURVE SMOOTH",
"583 541 OFFCURVE",
"578 544 OFFCURVE",
"574 541 CURVE SMOOTH",
"567 535 OFFCURVE",
"551 528 OFFCURVE",
"542 526 CURVE SMOOTH",
"529 523 OFFCURVE",
"520 520 OFFCURVE",
"512 514 CURVE SMOOTH",
"430 447 OFFCURVE",
"298 328 OFFCURVE",
"185 209 CURVE",
"168 209 LINE SMOOTH",
"142 208 OFFCURVE",
"84 214 OFFCURVE",
"67 240 CURVE SMOOTH",
"64 245 OFFCURVE",
"62 242 OFFCURVE",
"63 238 CURVE SMOOTH",
"74 204 OFFCURVE",
"101 197 OFFCURVE",
"132 197 CURVE SMOOTH",
"146 197 OFFCURVE",
"160 198 OFFCURVE",
"175 199 CURVE SMOOTH",
"176 199 LINE",
"150 172 OFFCURVE",
"126 145 OFFCURVE",
"104 119 CURVE SMOOTH",
"57 65 OFFCURVE",
"18 15 OFFCURVE",
"-6 -28 CURVE SMOOTH",
"-15 -43 OFFCURVE",
"-18 -57 OFFCURVE",
"-18 -67 CURVE SMOOTH",
"-18 -71 OFFCURVE",
"-18 -74 OFFCURVE",
"-17 -76 CURVE",
"-13 -96 OFFCURVE",
"10 -110 OFFCURVE",
"8 -95 CURVE SMOOTH"
);
},
{
closed = 1;
nodes = (
"478 204 OFFCURVE",
"472 211 OFFCURVE",
"467 215 CURVE SMOOTH",
"463 218 OFFCURVE",
"441 219 OFFCURVE",
"420 219 CURVE SMOOTH",
"402 219 OFFCURVE",
"385 218 OFFCURVE",
"379 218 CURVE SMOOTH",
"200 210 LINE",
"225 236 LINE SMOOTH",
"310 326 OFFCURVE",
"403 405 OFFCURVE",
"471 461 CURVE SMOOTH",
"496 481 OFFCURVE",
"510 491 OFFCURVE",
"518 491 CURVE SMOOTH",
"521 491 OFFCURVE",
"523 488 OFFCURVE",
"523 483 CURVE SMOOTH",
"523 458 OFFCURVE",
"502 322 OFFCURVE",
"483 196 CURVE"
);
},
{
closed = 1;
nodes = (
"634 606 OFFCURVE",
"646 616 OFFCURVE",
"656 638 CURVE SMOOTH",
"657 641 OFFCURVE",
"657 649 OFFCURVE",
"656 646 CURVE SMOOTH",
"647 628 OFFCURVE",
"638 619 OFFCURVE",
"625 619 CURVE SMOOTH",
"612 619 OFFCURVE",
"595 628 OFFCURVE",
"572 643 CURVE SMOOTH",
"558 652 OFFCURVE",
"546 656 OFFCURVE",
"535 656 CURVE SMOOTH",
"512 656 OFFCURVE",
"496 638 OFFCURVE",
"487 617 CURVE SMOOTH",
"486 614 OFFCURVE",
"486 606 OFFCURVE",
"487 609 CURVE SMOOTH",
"495 628 OFFCURVE",
"507 642 OFFCURVE",
"526 642 CURVE SMOOTH",
"536 642 OFFCURVE",
"548 638 OFFCURVE",
"563 628 CURVE SMOOTH",
"585 613 OFFCURVE",
"602 606 OFFCURVE",
"617 606 CURVE SMOOTH"
);
}
);
width = 563;
}
);
note = Atilde;
unicode = 00C3;
},
{
color = 5;
glyphname = AE;
lastChange = "2021-08-02 16:25:37 +0000";
layers = (
{
background = {
paths = (
{
closed = 1;
nodes = (
"-1 -8 OFFCURVE",
"183 169 OFFCURVE",
"254 236 CURVE SMOOTH",
"269 250 LINE",
"323 253 OFFCURVE",
"397 256 OFFCURVE",
"469 257 CURVE",
"446 203 OFFCURVE",
"424 150 OFFCURVE",
"405 101 CURVE SMOOTH",
"397 81 OFFCURVE",
"382 38 OFFCURVE",
"382 15 CURVE SMOOTH",
"382 5 OFFCURVE",
"385 -2 OFFCURVE",
"392 -2 CURVE SMOOTH",
"423 -2 OFFCURVE",
"498 -3 OFFCURVE",
"570 -3 CURVE SMOOTH",
"635 -3 OFFCURVE",
"696 -2 OFFCURVE",
"719 2 CURVE SMOOTH",
"730 4 OFFCURVE",
"748 64 OFFCURVE",
"758 97 CURVE SMOOTH",
"759 99 OFFCURVE",
"749 97 OFFCURVE",
"749 96 CURVE SMOOTH",
"744 62 OFFCURVE",
"724 37 OFFCURVE",
"718 33 CURVE SMOOTH",
"699 19 OFFCURVE",
"658 13 OFFCURVE",
"616 9 CURVE SMOOTH",
"594 7 OFFCURVE",
"569 7 OFFCURVE",
"544 7 CURVE SMOOTH",
"507 7 OFFCURVE",
"471 8 OFFCURVE",
"454 10 CURVE SMOOTH",
"423 12 OFFCURVE",
"414 26 OFFCURVE",
"414 45 CURVE SMOOTH",
"414 58 OFFCURVE",
"418 73 OFFCURVE",
"422 88 CURVE SMOOTH",
"436 135 OFFCURVE",
"459 195 OFFCURVE",
"484 257 CURVE",
"502 257 LINE SMOOTH",
"554 257 OFFCURVE",
"601 257 OFFCURVE",
"631 257 CURVE SMOOTH",
"663 257 LINE SMOOTH",
"713 255 OFFCURVE",
"742 249 OFFCURVE",
"742 227 CURVE SMOOTH",
"742 214 OFFCURVE",
"731 189 OFFCURVE",
"728 184 CURVE SMOOTH",
"726 180 OFFCURVE",
"735 180 OFFCURVE",
"736 185 CURVE SMOOTH",
"753 238 LINE SMOOTH",
"755 244 OFFCURVE",
"759 254 OFFCURVE",
"762 258 CURVE SMOOTH",
"763 259 OFFCURVE",
"768 267 OFFCURVE",
"762 267 CURVE SMOOTH",
"734 267 OFFCURVE",
"619 267 OFFCURVE",
"506 266 CURVE SMOOTH",
"487 266 LINE",
"523 355 OFFCURVE",
"563 443 OFFCURVE",
"584 487 CURVE SMOOTH",
"593 507 OFFCURVE",
"596 512 OFFCURVE",
"620 515 CURVE SMOOTH",
"643 518 OFFCURVE",
"668 519 OFFCURVE",
"693 519 CURVE SMOOTH",
"705 519 OFFCURVE",
"717 518 OFFCURVE",
"729 518 CURVE SMOOTH",
"783 516 OFFCURVE",
"811 508 OFFCURVE",
"806 482 CURVE SMOOTH",
"804 469 OFFCURVE",
"793 434 OFFCURVE",
"789 424 CURVE",
"787 421 OFFCURVE",
"794 422 OFFCURVE",
"797 425 CURVE",
"797 426 OFFCURVE",
"811 478 OFFCURVE",
"819 499 CURVE SMOOTH",
"821 505 OFFCURVE",
"825 514 OFFCURVE",
"828 519 CURVE",
"828 520 OFFCURVE",
"833 527 OFFCURVE",
"828 527 CURVE SMOOTH",
"773 527 OFFCURVE",
"722 526 OFFCURVE",
"668 525 CURVE SMOOTH",
"638 524 OFFCURVE",
"606 524 OFFCURVE",
"575 524 CURVE SMOOTH",
"548 524 OFFCURVE",
"522 524 OFFCURVE",
"499 525 CURVE SMOOTH",
"495 525 OFFCURVE",
"490 520 OFFCURVE",
"490 518 CURVE SMOOTH",
"490 517 OFFCURVE",
"491 517 OFFCURVE",
"492 517 CURVE SMOOTH",
"498 517 OFFCURVE",
"519 520 OFFCURVE",
"535 520 CURVE SMOOTH",
"541 520 OFFCURVE",
"546 519 OFFCURVE",
"551 519 CURVE",
"560 517 OFFCURVE",
"564 515 OFFCURVE",
"564 509 CURVE SMOOTH",
"564 507 LINE",
"488 450 OFFCURVE",
"378 359 OFFCURVE",
"272 264 CURVE",
"241 263 OFFCURVE",
"210 263 OFFCURVE",
"179 263 CURVE SMOOTH",
"167 263 OFFCURVE",
"135 239 OFFCURVE",
"146 239 CURVE SMOOTH",
"156 239 OFFCURVE",
"172 240 OFFCURVE",
"194 244 CURVE",
"255 249 LINE",
"207 206 OFFCURVE",
"160 161 OFFCURVE",
"119 119 CURVE SMOOTH",
"66 65 OFFCURVE",
"22 15 OFFCURVE",
"-8 -28 CURVE SMOOTH",
"-20 -46 OFFCURVE",
"-24 -63 OFFCURVE",
"-24 -73 CURVE SMOOTH",
"-24 -95 OFFCURVE",
"-1 -111 OFFCURVE",
"-1 -95 CURVE SMOOTH"
);
},
{
closed = 1;
nodes = (
"371 342 OFFCURVE",
"460 411 OFFCURVE",
"527 461 CURVE SMOOTH",
"558 485 LINE",
"556 477 OFFCURVE",
"552 470 OFFCURVE",
"550 462 CURVE SMOOTH",
"528 400 OFFCURVE",
"501 333 OFFCURVE",
"473 266 CURVE",
"391 265 OFFCURVE",
"317 264 OFFCURVE",
"284 264 CURVE"
);
}
);
};
layerId = "DB049CBD-EE5A-4C6A-B8D5-3A4D87564362";
paths = (
{
closed = 1;
nodes = (
"-1 -8 OFFCURVE",
"183 169 OFFCURVE",
"254 236 CURVE SMOOTH",
"269 250 LINE",
"323 253 OFFCURVE",
"397 256 OFFCURVE",
"469 257 CURVE",
"446 203 OFFCURVE",
"424 150 OFFCURVE",
"405 101 CURVE SMOOTH",
"397 81 OFFCURVE",
"382 38 OFFCURVE",
"382 15 CURVE SMOOTH",
"382 5 OFFCURVE",
"385 -2 OFFCURVE",
"392 -2 CURVE SMOOTH",
"423 -2 OFFCURVE",
"498 -3 OFFCURVE",
"570 -3 CURVE SMOOTH",
"635 -3 OFFCURVE",
"696 -2 OFFCURVE",
"719 2 CURVE SMOOTH",
"730 4 OFFCURVE",
"748 64 OFFCURVE",
"758 97 CURVE SMOOTH",
"759 99 OFFCURVE",
"749 97 OFFCURVE",
"749 96 CURVE SMOOTH",
"744 62 OFFCURVE",
"724 37 OFFCURVE",
"718 33 CURVE SMOOTH",
"699 19 OFFCURVE",
"658 13 OFFCURVE",
"616 9 CURVE SMOOTH",
"594 7 OFFCURVE",
"569 7 OFFCURVE",
"544 7 CURVE SMOOTH",
"507 7 OFFCURVE",
"471 8 OFFCURVE",
"454 10 CURVE SMOOTH",
"423 12 OFFCURVE",
"414 26 OFFCURVE",
"414 45 CURVE SMOOTH",
"414 58 OFFCURVE",
"418 73 OFFCURVE",
"422 88 CURVE SMOOTH",
"436 135 OFFCURVE",
"459 195 OFFCURVE",
"484 257 CURVE",
"502 257 LINE SMOOTH",
"554 257 OFFCURVE",
"601 257 OFFCURVE",
"631 257 CURVE SMOOTH",
"663 257 LINE SMOOTH",
"713 255 OFFCURVE",
"742 249 OFFCURVE",
"742 227 CURVE SMOOTH",
"742 214 OFFCURVE",
"731 189 OFFCURVE",
"728 184 CURVE SMOOTH",
"726 180 OFFCURVE",
"735 180 OFFCURVE",
"736 185 CURVE SMOOTH",
"753 238 LINE SMOOTH",
"755 244 OFFCURVE",
"759 254 OFFCURVE",
"762 258 CURVE SMOOTH",
"763 259 OFFCURVE",
"768 267 OFFCURVE",
"762 267 CURVE SMOOTH",
"734 267 OFFCURVE",
"619 267 OFFCURVE",
"506 266 CURVE SMOOTH",
"487 266 LINE",
"523 355 OFFCURVE",
"563 443 OFFCURVE",
"584 487 CURVE SMOOTH",
"593 507 OFFCURVE",
"596 512 OFFCURVE",
"620 515 CURVE SMOOTH",
"643 518 OFFCURVE",
"668 519 OFFCURVE",
"693 519 CURVE SMOOTH",
"705 519 OFFCURVE",
"717 518 OFFCURVE",
"729 518 CURVE SMOOTH",
"783 516 OFFCURVE",
"811 508 OFFCURVE",
"806 482 CURVE SMOOTH",
"804 469 OFFCURVE",
"793 434 OFFCURVE",
"789 424 CURVE",
"787 421 OFFCURVE",
"794 422 OFFCURVE",
"797 425 CURVE",
"797 426 OFFCURVE",
"811 478 OFFCURVE",
"819 499 CURVE SMOOTH",
"821 505 OFFCURVE",
"825 514 OFFCURVE",
"828 519 CURVE",
"828 520 OFFCURVE",
"833 527 OFFCURVE",
"828 527 CURVE SMOOTH",
"773 527 OFFCURVE",
"722 526 OFFCURVE",
"668 525 CURVE SMOOTH",
"638 524 OFFCURVE",
"606 524 OFFCURVE",
"575 524 CURVE SMOOTH",
"548 524 OFFCURVE",
"522 524 OFFCURVE",
"499 525 CURVE SMOOTH",
"495 525 OFFCURVE",
"490 520 OFFCURVE",
"490 518 CURVE SMOOTH",
"490 517 OFFCURVE",
"491 517 OFFCURVE",
"492 517 CURVE SMOOTH",
"498 517 OFFCURVE",
"519 520 OFFCURVE",
"535 520 CURVE SMOOTH",
"541 520 OFFCURVE",
"546 519 OFFCURVE",
"551 519 CURVE",
"560 517 OFFCURVE",
"564 515 OFFCURVE",
"564 509 CURVE SMOOTH",
"564 507 LINE",
"488 450 OFFCURVE",
"378 359 OFFCURVE",
"272 264 CURVE",
"241 263 OFFCURVE",
"210 263 OFFCURVE",
"179 263 CURVE SMOOTH",
"167 263 OFFCURVE",
"135 239 OFFCURVE",
"146 239 CURVE SMOOTH",
"156 239 OFFCURVE",
"172 240 OFFCURVE",
"194 244 CURVE",
"255 249 LINE",
"207 206 OFFCURVE",
"160 161 OFFCURVE",
"119 119 CURVE SMOOTH",
"66 65 OFFCURVE",
"22 15 OFFCURVE",
"-8 -28 CURVE SMOOTH",
"-20 -46 OFFCURVE",
"-24 -63 OFFCURVE",
"-24 -73 CURVE SMOOTH",
"-24 -95 OFFCURVE",
"-1 -111 OFFCURVE",
"-1 -95 CURVE SMOOTH"
);
},
{
closed = 1;
nodes = (
"371 342 OFFCURVE",
"460 411 OFFCURVE",
"527 461 CURVE SMOOTH",
"558 485 LINE",
"556 477 OFFCURVE",
"552 470 OFFCURVE",
"550 462 CURVE SMOOTH",
"528 400 OFFCURVE",
"501 333 OFFCURVE",
"473 266 CURVE",
"391 265 OFFCURVE",
"317 264 OFFCURVE",
"284 264 CURVE"
);
}
);
width = 802;
}
);
note = AE;
unicode = 00C6;
},
{
color = 11;
glyphname = AEacute;
lastChange = "2021-08-02 16:25:37 +0000";
layers = (
{
background = {
paths = (
{
closed = 1;
nodes = (
"-1 -8 OFFCURVE",
"183 169 OFFCURVE",
"254 236 CURVE SMOOTH",
"269 250 LINE",
"323 253 OFFCURVE",
"397 256 OFFCURVE",
"469 257 CURVE",
"446 203 OFFCURVE",
"424 150 OFFCURVE",
"405 101 CURVE SMOOTH",
"397 81 OFFCURVE",
"382 38 OFFCURVE",
"382 15 CURVE SMOOTH",
"382 5 OFFCURVE",
"385 -2 OFFCURVE",
"392 -2 CURVE SMOOTH",
"423 -2 OFFCURVE",
"498 -3 OFFCURVE",
"570 -3 CURVE SMOOTH",
"635 -3 OFFCURVE",
"696 -2 OFFCURVE",
"719 2 CURVE SMOOTH",
"730 4 OFFCURVE",
"748 64 OFFCURVE",
"758 97 CURVE SMOOTH",
"759 99 OFFCURVE",
"749 97 OFFCURVE",
"749 96 CURVE SMOOTH",
"744 62 OFFCURVE",
"724 37 OFFCURVE",
"718 33 CURVE SMOOTH",
"699 19 OFFCURVE",
"658 13 OFFCURVE",
"616 9 CURVE SMOOTH",
"594 7 OFFCURVE",
"569 7 OFFCURVE",
"544 7 CURVE SMOOTH",
"507 7 OFFCURVE",
"471 8 OFFCURVE",
"454 10 CURVE SMOOTH",
"423 12 OFFCURVE",
"414 26 OFFCURVE",
"414 45 CURVE SMOOTH",
"414 58 OFFCURVE",
"418 73 OFFCURVE",
"422 88 CURVE SMOOTH",
"436 135 OFFCURVE",
"459 195 OFFCURVE",
"484 257 CURVE",
"502 257 LINE SMOOTH",
"554 257 OFFCURVE",
"601 257 OFFCURVE",
"631 257 CURVE SMOOTH",
"663 257 LINE SMOOTH",
"713 255 OFFCURVE",
"742 249 OFFCURVE",
"742 227 CURVE SMOOTH",
"742 214 OFFCURVE",
"731 189 OFFCURVE",
"728 184 CURVE SMOOTH",
"726 180 OFFCURVE",
"735 180 OFFCURVE",
"736 185 CURVE SMOOTH",
"753 238 LINE SMOOTH",
"755 244 OFFCURVE",
"759 254 OFFCURVE",
"762 258 CURVE SMOOTH",
"763 259 OFFCURVE",
"768 267 OFFCURVE",
"762 267 CURVE SMOOTH",
"734 267 OFFCURVE",
"619 267 OFFCURVE",
"506 266 CURVE SMOOTH",
"487 266 LINE",
"523 355 OFFCURVE",
"563 443 OFFCURVE",
"584 487 CURVE SMOOTH",
"593 507 OFFCURVE",
"596 512 OFFCURVE",
"620 515 CURVE SMOOTH",
"643 518 OFFCURVE",
"668 519 OFFCURVE",
"693 519 CURVE SMOOTH",
"705 519 OFFCURVE",
"717 518 OFFCURVE",
"729 518 CURVE SMOOTH",
"783 516 OFFCURVE",
"811 508 OFFCURVE",
"806 482 CURVE SMOOTH",
"804 469 OFFCURVE",
"793 434 OFFCURVE",
"789 424 CURVE",
"787 421 OFFCURVE",
"794 422 OFFCURVE",
"797 425 CURVE",
"797 426 OFFCURVE",
"811 478 OFFCURVE",
"819 499 CURVE SMOOTH",
"821 505 OFFCURVE",
"825 514 OFFCURVE",
"828 519 CURVE",
"828 520 OFFCURVE",
"833 527 OFFCURVE",
"828 527 CURVE SMOOTH",
"773 527 OFFCURVE",
"722 526 OFFCURVE",
"668 525 CURVE SMOOTH",
"638 524 OFFCURVE",
"606 524 OFFCURVE",
"575 524 CURVE SMOOTH",
"548 524 OFFCURVE",
"522 524 OFFCURVE",
"499 525 CURVE SMOOTH",
"495 525 OFFCURVE",
"490 520 OFFCURVE",
"490 518 CURVE SMOOTH",
"490 517 OFFCURVE",
"491 517 OFFCURVE",
"492 517 CURVE SMOOTH",
"498 517 OFFCURVE",
"519 520 OFFCURVE",
"535 520 CURVE SMOOTH",
"541 520 OFFCURVE",
"546 519 OFFCURVE",
"551 519 CURVE",
"560 517 OFFCURVE",
"564 515 OFFCURVE",
"564 509 CURVE SMOOTH",
"564 507 LINE",
"488 450 OFFCURVE",
"378 359 OFFCURVE",
"272 264 CURVE",
"241 263 OFFCURVE",
"210 263 OFFCURVE",
"179 263 CURVE SMOOTH",
"167 263 OFFCURVE",
"135 239 OFFCURVE",
"146 239 CURVE SMOOTH",
"156 239 OFFCURVE",
"172 240 OFFCURVE",
"194 244 CURVE",
"255 249 LINE",
"207 206 OFFCURVE",
"160 161 OFFCURVE",
"119 119 CURVE SMOOTH",
"66 65 OFFCURVE",
"22 15 OFFCURVE",
"-8 -28 CURVE SMOOTH",
"-20 -46 OFFCURVE",
"-24 -63 OFFCURVE",
"-24 -73 CURVE SMOOTH",
"-24 -95 OFFCURVE",
"-1 -111 OFFCURVE",
"-1 -95 CURVE SMOOTH"
);
},
{
closed = 1;
nodes = (
"371 342 OFFCURVE",
"460 411 OFFCURVE",
"527 461 CURVE SMOOTH",
"558 485 LINE",
"556 477 OFFCURVE",
"552 470 OFFCURVE",
"550 462 CURVE SMOOTH",
"528 400 OFFCURVE",
"501 333 OFFCURVE",
"473 266 CURVE",
"391 265 OFFCURVE",
"317 264 OFFCURVE",
"284 264 CURVE"
);
},
{
closed = 1;
nodes = (
"718 595 OFFCURVE",
"786 633 OFFCURVE",
"798 642 CURVE SMOOTH",
"801 644 OFFCURVE",
"795 656 OFFCURVE",
"793 654 CURVE",
"703 591 LINE SMOOTH",
"700 589 OFFCURVE",
"699 581 OFFCURVE",
"703 584 CURVE SMOOTH"
);
}
);
};
layerId = "DB049CBD-EE5A-4C6A-B8D5-3A4D87564362";
paths = (
{
closed = 1;
nodes = (
"-1 -8 OFFCURVE",
"183 169 OFFCURVE",
"254 236 CURVE SMOOTH",
"269 250 LINE",
"323 253 OFFCURVE",
"397 256 OFFCURVE",
"469 257 CURVE",
"446 203 OFFCURVE",
"424 150 OFFCURVE",
"405 101 CURVE SMOOTH",
"397 81 OFFCURVE",
"382 38 OFFCURVE",
"382 15 CURVE SMOOTH",
"382 5 OFFCURVE",
"385 -2 OFFCURVE",
"392 -2 CURVE SMOOTH",
"423 -2 OFFCURVE",
"498 -3 OFFCURVE",
"570 -3 CURVE SMOOTH",
"635 -3 OFFCURVE",
"696 -2 OFFCURVE",
"719 2 CURVE SMOOTH",
"730 4 OFFCURVE",
"748 64 OFFCURVE",
"758 97 CURVE SMOOTH",
"759 99 OFFCURVE",
"749 97 OFFCURVE",
"749 96 CURVE SMOOTH",
"744 62 OFFCURVE",
"724 37 OFFCURVE",
"718 33 CURVE SMOOTH",
"699 19 OFFCURVE",
"658 13 OFFCURVE",
"616 9 CURVE SMOOTH",
"594 7 OFFCURVE",
"569 7 OFFCURVE",
"544 7 CURVE SMOOTH",
"507 7 OFFCURVE",
"471 8 OFFCURVE",
"454 10 CURVE SMOOTH",
"423 12 OFFCURVE",
"414 26 OFFCURVE",
"414 45 CURVE SMOOTH",
"414 58 OFFCURVE",
"418 73 OFFCURVE",
"422 88 CURVE SMOOTH",
"436 135 OFFCURVE",
"459 195 OFFCURVE",
"484 257 CURVE",
"502 257 LINE SMOOTH",
"554 257 OFFCURVE",
"601 257 OFFCURVE",
"631 257 CURVE SMOOTH",
"663 257 LINE SMOOTH",
"713 255 OFFCURVE",
"742 249 OFFCURVE",
"742 227 CURVE SMOOTH",
"742 214 OFFCURVE",
"731 189 OFFCURVE",
"728 184 CURVE SMOOTH",
"726 180 OFFCURVE",
"735 180 OFFCURVE",
"736 185 CURVE SMOOTH",
"753 238 LINE SMOOTH",
"755 244 OFFCURVE",
"759 254 OFFCURVE",
"762 258 CURVE SMOOTH",
"763 259 OFFCURVE",
"768 267 OFFCURVE",
"762 267 CURVE SMOOTH",
"734 267 OFFCURVE",
"619 267 OFFCURVE",
"506 266 CURVE SMOOTH",
"487 266 LINE",
"523 355 OFFCURVE",
"563 443 OFFCURVE",
"584 487 CURVE SMOOTH",
"593 507 OFFCURVE",
"596 512 OFFCURVE",
"620 515 CURVE SMOOTH",
"643 518 OFFCURVE",
"668 519 OFFCURVE",
"693 519 CURVE SMOOTH",
"705 519 OFFCURVE",
"717 518 OFFCURVE",
"729 518 CURVE SMOOTH",
"783 516 OFFCURVE",
"811 508 OFFCURVE",
"806 482 CURVE SMOOTH",
"804 469 OFFCURVE",
"793 434 OFFCURVE",
"789 424 CURVE",
"787 421 OFFCURVE",
"794 422 OFFCURVE",
"797 425 CURVE",
"797 426 OFFCURVE",
"811 478 OFFCURVE",
"819 499 CURVE SMOOTH",
"821 505 OFFCURVE",
"825 514 OFFCURVE",
"828 519 CURVE",
"828 520 OFFCURVE",
"833 527 OFFCURVE",
"828 527 CURVE SMOOTH",
"773 527 OFFCURVE",
"722 526 OFFCURVE",
"668 525 CURVE SMOOTH",
"638 524 OFFCURVE",
"606 524 OFFCURVE",
"575 524 CURVE SMOOTH",
"548 524 OFFCURVE",
"522 524 OFFCURVE",
"499 525 CURVE SMOOTH",
"495 525 OFFCURVE",
"490 520 OFFCURVE",
"490 518 CURVE SMOOTH",
"490 517 OFFCURVE",
"491 517 OFFCURVE",
"492 517 CURVE SMOOTH",
"498 517 OFFCURVE",
"519 520 OFFCURVE",
"535 520 CURVE SMOOTH",
"541 520 OFFCURVE",
"546 519 OFFCURVE",
"551 519 CURVE",
"560 517 OFFCURVE",
"564 515 OFFCURVE",
"564 509 CURVE SMOOTH",
"564 507 LINE",
"488 450 OFFCURVE",
"378 359 OFFCURVE",
"272 264 CURVE",
"241 263 OFFCURVE",
"210 263 OFFCURVE",
"179 263 CURVE SMOOTH",
"167 263 OFFCURVE",
"135 239 OFFCURVE",
"146 239 CURVE SMOOTH",
"156 239 OFFCURVE",
"172 240 OFFCURVE",
"194 244 CURVE",
"255 249 LINE",
"207 206 OFFCURVE",
"160 161 OFFCURVE",
"119 119 CURVE SMOOTH",
"66 65 OFFCURVE",
"22 15 OFFCURVE",
"-8 -28 CURVE SMOOTH",
"-20 -46 OFFCURVE",
"-24 -63 OFFCURVE",
"-24 -73 CURVE SMOOTH",
"-24 -95 OFFCURVE",
"-1 -111 OFFCURVE",
"-1 -95 CURVE SMOOTH"
);
},
{
closed = 1;
nodes = (
"371 342 OFFCURVE",
"460 411 OFFCURVE",
"527 461 CURVE SMOOTH",
"558 485 LINE",
"556 477 OFFCURVE",
"552 470 OFFCURVE",
"550 462 CURVE SMOOTH",
"528 400 OFFCURVE",
"501 333 OFFCURVE",
"473 266 CURVE",
"391 265 OFFCURVE",
"317 264 OFFCURVE",
"284 264 CURVE"
);
},
{
closed = 1;
nodes = (
"718 595 OFFCURVE",
"786 633 OFFCURVE",
"798 642 CURVE SMOOTH",
"801 644 OFFCURVE",
"795 656 OFFCURVE",
"793 654 CURVE",
"703 591 LINE SMOOTH",
"700 589 OFFCURVE",
"699 581 OFFCURVE",
"703 584 CURVE SMOOTH"
);
}
);
width = 802;
}
);
note = AEacute;
unicode = 01FC;
},
{
color = 5;
glyphname = B;
lastChange = "2021-08-02 16:25:37 +0000";
layers = (
{
background = {
paths = (
{
closed = 1;
nodes = (
"11 -32 OFFCURVE",
"25 -22 OFFCURVE",
"37 -9 CURVE SMOOTH",
"53 8 OFFCURVE",
"62 30 OFFCURVE",
"71 55 CURVE SMOOTH",
"97 126 OFFCURVE",
"124 197 OFFCURVE",
"154 267 CURVE SMOOTH",
"200 377 OFFCURVE",
"250 483 OFFCURVE",
"264 509 CURVE SMOOTH",
"273 525 OFFCURVE",
"305 528 OFFCURVE",
"330 528 CURVE SMOOTH",
"341 528 OFFCURVE",
"350 528 OFFCURVE",
"356 527 CURVE SMOOTH",
"426 519 OFFCURVE",
"455 484 OFFCURVE",
"455 445 CURVE SMOOTH",
"455 390 OFFCURVE",
"399 325 OFFCURVE",
"314 309 CURVE",
"303 310 OFFCURVE",
"294 311 OFFCURVE",
"284 311 CURVE SMOOTH",
"278 311 OFFCURVE",
"271 310 OFFCURVE",
"264 308 CURVE SMOOTH",
"260 307 OFFCURVE",
"258 303 OFFCURVE",
"258 300 CURVE SMOOTH",
"258 297 OFFCURVE",
"261 294 OFFCURVE",
"268 294 CURVE SMOOTH",
"270 294 LINE SMOOTH",
"283 294 OFFCURVE",
"297 297 OFFCURVE",
"318 304 CURVE",
"407 291 OFFCURVE",
"447 239 OFFCURVE",
"447 182 CURVE SMOOTH",
"447 96 OFFCURVE",
"355 -4 OFFCURVE",
"205 -4 CURVE SMOOTH",
"162 -4 OFFCURVE",
"128 7 OFFCURVE",
"104 24 CURVE SMOOTH",
"100 27 OFFCURVE",
"100 11 OFFCURVE",
"105 8 CURVE SMOOTH",
"130 -7 OFFCURVE",
"167 -13 OFFCURVE",
"205 -13 CURVE SMOOTH",
"371 -13 OFFCURVE",
"474 88 OFFCURVE",
"474 177 CURVE SMOOTH",
"474 236 OFFCURVE",
"430 289 OFFCURVE",
"332 308 CURVE",
"430 333 OFFCURVE",
"485 393 OFFCURVE",
"485 445 CURVE SMOOTH",
"485 494 OFFCURVE",
"438 535 OFFCURVE",
"335 535 CURVE SMOOTH",
"328 535 OFFCURVE",
"320 534 OFFCURVE",
"312 534 CURVE SMOOTH",
"288 533 OFFCURVE",
"260 532 OFFCURVE",
"231 532 CURVE SMOOTH",
"208 532 OFFCURVE",
"185 533 OFFCURVE",
"164 534 CURVE",
"160 535 OFFCURVE",
"157 529 OFFCURVE",
"157 526 CURVE SMOOTH",
"157 525 OFFCURVE",
"158 524 OFFCURVE",
"159 524 CURVE SMOOTH",
"177 526 OFFCURVE",
"195 527 OFFCURVE",
"210 527 CURVE SMOOTH",
"228 526 OFFCURVE",
"233 525 OFFCURVE",
"233 519 CURVE SMOOTH",
"233 515 OFFCURVE",
"232 511 OFFCURVE",
"230 505 CURVE SMOOTH",
"211 454 OFFCURVE",
"179 362 OFFCURVE",
"142 271 CURVE SMOOTH",
"118 210 OFFCURVE",
"27 -10 OFFCURVE",
"-11 -29 CURVE",
"-9 -34 LINE"
);
}
);
};
layerId = "DB049CBD-EE5A-4C6A-B8D5-3A4D87564362";
paths = (
{
closed = 1;
nodes = (
"11 -32 OFFCURVE",
"25 -22 OFFCURVE",
"37 -9 CURVE SMOOTH",
"53 8 OFFCURVE",
"62 30 OFFCURVE",
"71 55 CURVE SMOOTH",
"97 126 OFFCURVE",
"124 197 OFFCURVE",
"154 267 CURVE SMOOTH",
"200 377 OFFCURVE",
"250 483 OFFCURVE",
"264 509 CURVE SMOOTH",
"273 525 OFFCURVE",
"305 528 OFFCURVE",
"330 528 CURVE SMOOTH",
"341 528 OFFCURVE",
"350 528 OFFCURVE",
"356 527 CURVE SMOOTH",
"426 519 OFFCURVE",
"455 484 OFFCURVE",
"455 445 CURVE SMOOTH",
"455 390 OFFCURVE",
"399 325 OFFCURVE",
"314 309 CURVE",
"303 310 OFFCURVE",
"294 311 OFFCURVE",
"284 311 CURVE SMOOTH",
"278 311 OFFCURVE",
"271 310 OFFCURVE",
"264 308 CURVE SMOOTH",
"260 307 OFFCURVE",
"258 303 OFFCURVE",
"258 300 CURVE SMOOTH",
"258 297 OFFCURVE",
"261 294 OFFCURVE",
"268 294 CURVE SMOOTH",
"270 294 LINE SMOOTH",
"283 294 OFFCURVE",
"297 297 OFFCURVE",
"318 304 CURVE",
"407 291 OFFCURVE",
"447 239 OFFCURVE",
"447 182 CURVE SMOOTH",
"447 96 OFFCURVE",
"355 -4 OFFCURVE",
"205 -4 CURVE SMOOTH",
"162 -4 OFFCURVE",
"128 7 OFFCURVE",
"104 24 CURVE SMOOTH",
"100 27 OFFCURVE",
"100 11 OFFCURVE",
"105 8 CURVE SMOOTH",
"130 -7 OFFCURVE",
"167 -13 OFFCURVE",
"205 -13 CURVE SMOOTH",
"371 -13 OFFCURVE",
"474 88 OFFCURVE",
"474 177 CURVE SMOOTH",
"474 236 OFFCURVE",
"430 289 OFFCURVE",
"332 308 CURVE",
"430 333 OFFCURVE",
"485 393 OFFCURVE",
"485 445 CURVE SMOOTH",
"485 494 OFFCURVE",
"438 535 OFFCURVE",
"335 535 CURVE SMOOTH",
"328 535 OFFCURVE",
"320 534 OFFCURVE",
"312 534 CURVE SMOOTH",
"288 533 OFFCURVE",
"260 532 OFFCURVE",
"231 532 CURVE SMOOTH",
"208 532 OFFCURVE",
"185 533 OFFCURVE",
"164 534 CURVE",
"160 535 OFFCURVE",
"157 529 OFFCURVE",
"157 526 CURVE SMOOTH",
"157 525 OFFCURVE",
"158 524 OFFCURVE",
"159 524 CURVE SMOOTH",
"177 526 OFFCURVE",
"195 527 OFFCURVE",
"210 527 CURVE SMOOTH",
"228 526 OFFCURVE",
"233 525 OFFCURVE",
"233 519 CURVE SMOOTH",
"233 515 OFFCURVE",
"232 511 OFFCURVE",
"230 505 CURVE SMOOTH",
"211 454 OFFCURVE",
"179 362 OFFCURVE",
"142 271 CURVE SMOOTH",
"118 210 OFFCURVE",
"27 -10 OFFCURVE",
"-11 -29 CURVE",
"-9 -34 LINE"
);
}
);
width = 477;
}
);
note = B;
unicode = 0042;
},
{
color = 5;
glyphname = C;
lastChange = "2021-08-02 16:25:37 +0000";
layers = (
{
background = {
paths = (
{
closed = 1;
nodes = (
"327 -12 OFFCURVE",
"393 16 OFFCURVE",
"439 47 CURVE SMOOTH",
"466 65 OFFCURVE",
"519 112 OFFCURVE",
"531 145 CURVE SMOOTH",
"534 153 OFFCURVE",
"528 152 OFFCURVE",
"523 145 CURVE SMOOTH",
"499 111 OFFCURVE",
"470 80 OFFCURVE",
"438 56 CURVE SMOOTH",
"385 17 OFFCURVE",
"320 -4 OFFCURVE",
"248 -4 CURVE SMOOTH",
"112 -4 OFFCURVE",
"55 71 OFFCURVE",
"55 165 CURVE SMOOTH",
"55 323 OFFCURVE",
"217 536 OFFCURVE",
"430 536 CURVE SMOOTH",
"468 536 OFFCURVE",
"541 526 OFFCURVE",
"541 478 CURVE SMOOTH",
"541 475 OFFCURVE",
"540 472 OFFCURVE",
"540 469 CURVE SMOOTH",
"538 455 OFFCURVE",
"528 419 OFFCURVE",
"523 410 CURVE SMOOTH",
"521 406 OFFCURVE",
"529 407 OFFCURVE",
"531 410 CURVE SMOOTH",
"532 411 OFFCURVE",
"538 432 OFFCURVE",
"544 453 CURVE SMOOTH",
"550 473 OFFCURVE",
"557 492 OFFCURVE",
"564 512 CURVE SMOOTH",
"565 515 OFFCURVE",
"567 518 OFFCURVE",
"567 521 CURVE SMOOTH",
"567 524 OFFCURVE",
"564 527 OFFCURVE",
"556 529 CURVE SMOOTH",
"521 537 OFFCURVE",
"487 544 OFFCURVE",
"450 544 CURVE SMOOTH",
"202 544 OFFCURVE",
"27 331 OFFCURVE",
"27 168 CURVE SMOOTH",
"27 69 OFFCURVE",
"93 -12 OFFCURVE",
"249 -12 CURVE SMOOTH"
);
}
);
};
layerId = "DB049CBD-EE5A-4C6A-B8D5-3A4D87564362";
paths = (
{
closed = 1;
nodes = (
"327 -12 OFFCURVE",
"393 16 OFFCURVE",
"439 47 CURVE SMOOTH",
"466 65 OFFCURVE",
"519 112 OFFCURVE",
"531 145 CURVE SMOOTH",
"534 153 OFFCURVE",
"528 152 OFFCURVE",
"523 145 CURVE SMOOTH",
"499 111 OFFCURVE",
"470 80 OFFCURVE",
"438 56 CURVE SMOOTH",
"385 17 OFFCURVE",
"320 -4 OFFCURVE",
"248 -4 CURVE SMOOTH",
"112 -4 OFFCURVE",
"55 71 OFFCURVE",
"55 165 CURVE SMOOTH",
"55 323 OFFCURVE",
"217 536 OFFCURVE",
"430 536 CURVE SMOOTH",
"468 536 OFFCURVE",
"541 526 OFFCURVE",
"541 478 CURVE SMOOTH",
"541 475 OFFCURVE",
"540 472 OFFCURVE",
"540 469 CURVE SMOOTH",
"538 455 OFFCURVE",
"528 419 OFFCURVE",
"523 410 CURVE SMOOTH",
"521 406 OFFCURVE",
"529 407 OFFCURVE",
"531 410 CURVE SMOOTH",
"532 411 OFFCURVE",
"538 432 OFFCURVE",
"544 453 CURVE SMOOTH",
"550 473 OFFCURVE",
"557 492 OFFCURVE",
"564 512 CURVE SMOOTH",
"565 515 OFFCURVE",
"567 518 OFFCURVE",
"567 521 CURVE SMOOTH",
"567 524 OFFCURVE",
"564 527 OFFCURVE",
"556 529 CURVE SMOOTH",
"521 537 OFFCURVE",
"487 544 OFFCURVE",
"450 544 CURVE SMOOTH",
"202 544 OFFCURVE",
"27 331 OFFCURVE",
"27 168 CURVE SMOOTH",
"27 69 OFFCURVE",
"93 -12 OFFCURVE",
"249 -12 CURVE SMOOTH"
);
}
);
width = 518;
}
);
note = C;
unicode = 0043;
},
{
color = 11;
glyphname = Cacute;
lastChange = "2021-08-02 16:25:37 +0000";
layers = (
{
background = {
paths = (
{
closed = 1;
nodes = (
"327 -12 OFFCURVE",
"393 16 OFFCURVE",
"439 47 CURVE SMOOTH",
"466 65 OFFCURVE",
"519 112 OFFCURVE",
"531 145 CURVE SMOOTH",
"534 153 OFFCURVE",
"528 152 OFFCURVE",
"523 145 CURVE SMOOTH",
"499 111 OFFCURVE",
"470 80 OFFCURVE",
"438 56 CURVE SMOOTH",
"385 17 OFFCURVE",
"320 -4 OFFCURVE",
"248 -4 CURVE SMOOTH",
"112 -4 OFFCURVE",
"55 71 OFFCURVE",
"55 165 CURVE SMOOTH",
"55 323 OFFCURVE",
"217 536 OFFCURVE",
"430 536 CURVE SMOOTH",
"468 536 OFFCURVE",
"541 526 OFFCURVE",
"541 478 CURVE SMOOTH",
"541 475 OFFCURVE",
"540 472 OFFCURVE",
"540 469 CURVE SMOOTH",
"538 455 OFFCURVE",
"528 419 OFFCURVE",
"523 410 CURVE SMOOTH",
"521 406 OFFCURVE",
"529 407 OFFCURVE",
"531 410 CURVE SMOOTH",
"532 411 OFFCURVE",
"538 432 OFFCURVE",
"544 453 CURVE SMOOTH",
"550 473 OFFCURVE",
"557 492 OFFCURVE",
"564 512 CURVE SMOOTH",
"565 515 OFFCURVE",
"567 518 OFFCURVE",
"567 521 CURVE SMOOTH",
"567 524 OFFCURVE",
"564 527 OFFCURVE",
"556 529 CURVE SMOOTH",
"521 537 OFFCURVE",
"487 544 OFFCURVE",
"450 544 CURVE SMOOTH",
"202 544 OFFCURVE",
"27 331 OFFCURVE",
"27 168 CURVE SMOOTH",
"27 69 OFFCURVE",
"93 -12 OFFCURVE",
"249 -12 CURVE SMOOTH"
);
},
{
closed = 1;
nodes = (
"477 592 OFFCURVE",
"545 630 OFFCURVE",
"557 639 CURVE SMOOTH",
"560 641 OFFCURVE",
"554 653 OFFCURVE",
"552 651 CURVE",
"462 588 LINE SMOOTH",
"459 586 OFFCURVE",
"458 578 OFFCURVE",
"462 581 CURVE SMOOTH"
);
}
);
};
layerId = "DB049CBD-EE5A-4C6A-B8D5-3A4D87564362";
paths = (
{
closed = 1;
nodes = (
"327 -12 OFFCURVE",
"393 16 OFFCURVE",
"439 47 CURVE SMOOTH",
"466 65 OFFCURVE",
"519 112 OFFCURVE",
"531 145 CURVE SMOOTH",
"534 153 OFFCURVE",
"528 152 OFFCURVE",
"523 145 CURVE SMOOTH",
"499 111 OFFCURVE",
"470 80 OFFCURVE",
"438 56 CURVE SMOOTH",
"385 17 OFFCURVE",
"320 -4 OFFCURVE",
"248 -4 CURVE SMOOTH",
"112 -4 OFFCURVE",
"55 71 OFFCURVE",
"55 165 CURVE SMOOTH",
"55 323 OFFCURVE",
"217 536 OFFCURVE",
"430 536 CURVE SMOOTH",
"468 536 OFFCURVE",
"541 526 OFFCURVE",
"541 478 CURVE SMOOTH",
"541 475 OFFCURVE",
"540 472 OFFCURVE",
"540 469 CURVE SMOOTH",
"538 455 OFFCURVE",
"528 419 OFFCURVE",
"523 410 CURVE SMOOTH",
"521 406 OFFCURVE",
"529 407 OFFCURVE",
"531 410 CURVE SMOOTH",
"532 411 OFFCURVE",
"538 432 OFFCURVE",
"544 453 CURVE SMOOTH",
"550 473 OFFCURVE",
"557 492 OFFCURVE",
"564 512 CURVE SMOOTH",
"565 515 OFFCURVE",
"567 518 OFFCURVE",
"567 521 CURVE SMOOTH",
"567 524 OFFCURVE",
"564 527 OFFCURVE",
"556 529 CURVE SMOOTH",
"521 537 OFFCURVE",
"487 544 OFFCURVE",
"450 544 CURVE SMOOTH",
"202 544 OFFCURVE",
"27 331 OFFCURVE",
"27 168 CURVE SMOOTH",
"27 69 OFFCURVE",
"93 -12 OFFCURVE",
"249 -12 CURVE SMOOTH"
);
},
{
closed = 1;
nodes = (
"477 592 OFFCURVE",
"545 630 OFFCURVE",
"557 639 CURVE SMOOTH",
"560 641 OFFCURVE",
"554 653 OFFCURVE",
"552 651 CURVE",
"462 588 LINE SMOOTH",
"459 586 OFFCURVE",
"458 578 OFFCURVE",
"462 581 CURVE SMOOTH"
);
}
);
width = 518;
}
);
note = Cacute;
unicode = 0106;
},
{
color = 11;
glyphname = Ccaron;
lastChange = "2021-08-02 16:25:37 +0000";
layers = (
{
background = {
paths = (
{
closed = 1;
nodes = (
"327 -12 OFFCURVE",
"393 16 OFFCURVE",
"439 47 CURVE SMOOTH",
"466 65 OFFCURVE",
"519 112 OFFCURVE",
"531 145 CURVE SMOOTH",
"534 153 OFFCURVE",
"528 152 OFFCURVE",
"523 145 CURVE SMOOTH",
"499 111 OFFCURVE",
"470 80 OFFCURVE",
"438 56 CURVE SMOOTH",
"385 17 OFFCURVE",
"320 -4 OFFCURVE",
"248 -4 CURVE SMOOTH",
"112 -4 OFFCURVE",
"55 71 OFFCURVE",
"55 165 CURVE SMOOTH",
"55 323 OFFCURVE",
"217 536 OFFCURVE",
"430 536 CURVE SMOOTH",
"468 536 OFFCURVE",
"541 526 OFFCURVE",
"541 478 CURVE SMOOTH",
"541 475 OFFCURVE",
"540 472 OFFCURVE",
"540 469 CURVE SMOOTH",
"538 455 OFFCURVE",
"528 419 OFFCURVE",
"523 410 CURVE SMOOTH",
"521 406 OFFCURVE",
"529 407 OFFCURVE",
"531 410 CURVE SMOOTH",
"532 411 OFFCURVE",
"538 432 OFFCURVE",
"544 453 CURVE SMOOTH",
"550 473 OFFCURVE",
"557 492 OFFCURVE",
"564 512 CURVE SMOOTH",
"565 515 OFFCURVE",
"567 518 OFFCURVE",
"567 521 CURVE SMOOTH",
"567 524 OFFCURVE",
"564 527 OFFCURVE",
"556 529 CURVE SMOOTH",
"521 537 OFFCURVE",
"487 544 OFFCURVE",
"450 544 CURVE SMOOTH",
"202 544 OFFCURVE",
"27 331 OFFCURVE",
"27 168 CURVE SMOOTH",
"27 69 OFFCURVE",
"93 -12 OFFCURVE",
"249 -12 CURVE SMOOTH"
);
},
{
closed = 1;
nodes = (
"469 565 LINE",
"469 565 OFFCURVE",
"525 633 OFFCURVE",
"539 648 CURVE",
"542 649 OFFCURVE",
"541 661 OFFCURVE",
"538 661 CURVE",
"537 660 LINE SMOOTH",
"518 636 OFFCURVE",
"479 584 OFFCURVE",
"469 574 CURVE",
"464 583 OFFCURVE",
"438 649 OFFCURVE",
"438 657 CURVE",
"424 657 LINE",
"427 651 OFFCURVE",
"451 596 OFFCURVE",
"461 565 CURVE"
);
}
);
};
layerId = "DB049CBD-EE5A-4C6A-B8D5-3A4D87564362";
paths = (
{
closed = 1;
nodes = (
"327 -12 OFFCURVE",
"393 16 OFFCURVE",
"439 47 CURVE SMOOTH",
"466 65 OFFCURVE",
"519 112 OFFCURVE",
"531 145 CURVE SMOOTH",
"534 153 OFFCURVE",
"528 152 OFFCURVE",
"523 145 CURVE SMOOTH",
"499 111 OFFCURVE",
"470 80 OFFCURVE",
"438 56 CURVE SMOOTH",
"385 17 OFFCURVE",
"320 -4 OFFCURVE",
"248 -4 CURVE SMOOTH",
"112 -4 OFFCURVE",
"55 71 OFFCURVE",
"55 165 CURVE SMOOTH",
"55 323 OFFCURVE",
"217 536 OFFCURVE",
"430 536 CURVE SMOOTH",
"468 536 OFFCURVE",
"541 526 OFFCURVE",
"541 478 CURVE SMOOTH",
"541 475 OFFCURVE",
"540 472 OFFCURVE",
"540 469 CURVE SMOOTH",
"538 455 OFFCURVE",
"528 419 OFFCURVE",
"523 410 CURVE SMOOTH",
"521 406 OFFCURVE",
"529 407 OFFCURVE",
"531 410 CURVE SMOOTH",
"532 411 OFFCURVE",
"538 432 OFFCURVE",
"544 453 CURVE SMOOTH",
"550 473 OFFCURVE",
"557 492 OFFCURVE",
"564 512 CURVE SMOOTH",
"565 515 OFFCURVE",
"567 518 OFFCURVE",
"567 521 CURVE SMOOTH",
"567 524 OFFCURVE",
"564 527 OFFCURVE",
"556 529 CURVE SMOOTH",
"521 537 OFFCURVE",
"487 544 OFFCURVE",
"450 544 CURVE SMOOTH",
"202 544 OFFCURVE",
"27 331 OFFCURVE",
"27 168 CURVE SMOOTH",
"27 69 OFFCURVE",
"93 -12 OFFCURVE",
"249 -12 CURVE SMOOTH"
);
},
{
closed = 1;
nodes = (
"469 565 LINE",
"469 565 OFFCURVE",
"525 633 OFFCURVE",
"539 648 CURVE",
"542 649 OFFCURVE",
"541 661 OFFCURVE",
"538 661 CURVE",
"537 660 LINE SMOOTH",
"518 636 OFFCURVE",
"479 584 OFFCURVE",
"469 574 CURVE",
"464 583 OFFCURVE",
"438 649 OFFCURVE",
"438 657 CURVE",
"424 657 LINE",
"427 651 OFFCURVE",
"451 596 OFFCURVE",
"461 565 CURVE"
);
}
);
width = 518;
}
);
note = Ccaron;
unicode = 010C;
},
{
color = 11;
glyphname = Ccedilla;
lastChange = "2021-08-02 16:25:37 +0000";
layers = (
{
background = {
paths = (
{
closed = 1;
nodes = (
"327 -12 OFFCURVE",
"393 16 OFFCURVE",
"439 47 CURVE SMOOTH",
"466 65 OFFCURVE",
"519 112 OFFCURVE",
"531 145 CURVE SMOOTH",
"534 153 OFFCURVE",
"528 152 OFFCURVE",
"523 145 CURVE SMOOTH",
"499 111 OFFCURVE",
"470 80 OFFCURVE",
"438 56 CURVE SMOOTH",
"385 17 OFFCURVE",
"320 -4 OFFCURVE",
"248 -4 CURVE SMOOTH",
"112 -4 OFFCURVE",
"55 71 OFFCURVE",
"55 165 CURVE SMOOTH",
"55 323 OFFCURVE",
"217 536 OFFCURVE",
"430 536 CURVE SMOOTH",
"468 536 OFFCURVE",
"541 526 OFFCURVE",
"541 478 CURVE SMOOTH",
"541 475 OFFCURVE",
"540 472 OFFCURVE",
"540 469 CURVE SMOOTH",
"538 455 OFFCURVE",
"528 419 OFFCURVE",
"523 410 CURVE SMOOTH",
"521 406 OFFCURVE",
"529 407 OFFCURVE",
"531 410 CURVE SMOOTH",
"532 411 OFFCURVE",
"538 432 OFFCURVE",
"544 453 CURVE SMOOTH",
"550 473 OFFCURVE",
"557 492 OFFCURVE",
"564 512 CURVE SMOOTH",
"565 515 OFFCURVE",
"567 518 OFFCURVE",
"567 521 CURVE SMOOTH",
"567 524 OFFCURVE",
"564 527 OFFCURVE",
"556 529 CURVE SMOOTH",
"521 537 OFFCURVE",
"487 544 OFFCURVE",
"450 544 CURVE SMOOTH",
"202 544 OFFCURVE",
"27 331 OFFCURVE",
"27 168 CURVE SMOOTH",
"27 69 OFFCURVE",
"93 -12 OFFCURVE",
"249 -12 CURVE SMOOTH"
);
},
{
closed = 1;
nodes = (
"157 -182 OFFCURVE",
"203 -162 OFFCURVE",
"212 -124 CURVE SMOOTH",
"218 -94 OFFCURVE",
"175 -81 OFFCURVE",
"153 -60 CURVE SMOOTH",
"148 -55 OFFCURVE",
"146 -50 OFFCURVE",
"146 -45 CURVE SMOOTH",
"146 -27 OFFCURVE",
"179 -12 OFFCURVE",
"195 -9 CURVE SMOOTH",
"201 -8 OFFCURVE",
"203 0 OFFCURVE",
"191 -4 CURVE SMOOTH",
"160 -14 OFFCURVE",
"131 -33 OFFCURVE",
"131 -52 CURVE SMOOTH",
"131 -59 OFFCURVE",
"134 -65 OFFCURVE",
"142 -71 CURVE SMOOTH",
"158 -84 OFFCURVE",
"178 -95 OFFCURVE",
"188 -113 CURVE SMOOTH",
"193 -121 OFFCURVE",
"195 -129 OFFCURVE",
"195 -135 CURVE SMOOTH",
"195 -160 OFFCURVE",
"165 -172 OFFCURVE",
"133 -172 CURVE SMOOTH",
"118 -172 OFFCURVE",
"103 -169 OFFCURVE",
"90 -164 CURVE SMOOTH",
"80 -160 OFFCURVE",
"81 -176 OFFCURVE",
"99 -180 CURVE SMOOTH",
"105 -181 OFFCURVE",
"111 -182 OFFCURVE",
"118 -182 CURVE SMOOTH"
);
}
);
};
layerId = "DB049CBD-EE5A-4C6A-B8D5-3A4D87564362";
paths = (
{
closed = 1;
nodes = (
"327 -12 OFFCURVE",
"393 16 OFFCURVE",
"439 47 CURVE SMOOTH",
"466 65 OFFCURVE",
"519 112 OFFCURVE",
"531 145 CURVE SMOOTH",
"534 153 OFFCURVE",
"528 152 OFFCURVE",
"523 145 CURVE SMOOTH",
"499 111 OFFCURVE",
"470 80 OFFCURVE",
"438 56 CURVE SMOOTH",
"385 17 OFFCURVE",
"320 -4 OFFCURVE",
"248 -4 CURVE SMOOTH",
"112 -4 OFFCURVE",
"55 71 OFFCURVE",
"55 165 CURVE SMOOTH",
"55 323 OFFCURVE",
"217 536 OFFCURVE",
"430 536 CURVE SMOOTH",
"468 536 OFFCURVE",
"541 526 OFFCURVE",
"541 478 CURVE SMOOTH",
"541 475 OFFCURVE",
"540 472 OFFCURVE",
"540 469 CURVE SMOOTH",
"538 455 OFFCURVE",
"528 419 OFFCURVE",
"523 410 CURVE SMOOTH",
"521 406 OFFCURVE",
"529 407 OFFCURVE",
"531 410 CURVE SMOOTH",
"532 411 OFFCURVE",
"538 432 OFFCURVE",
"544 453 CURVE SMOOTH",
"550 473 OFFCURVE",
"557 492 OFFCURVE",
"564 512 CURVE SMOOTH",
"565 515 OFFCURVE",
"567 518 OFFCURVE",
"567 521 CURVE SMOOTH",
"567 524 OFFCURVE",
"564 527 OFFCURVE",
"556 529 CURVE SMOOTH",
"521 537 OFFCURVE",
"487 544 OFFCURVE",
"450 544 CURVE SMOOTH",
"202 544 OFFCURVE",
"27 331 OFFCURVE",
"27 168 CURVE SMOOTH",
"27 69 OFFCURVE",
"93 -12 OFFCURVE",
"249 -12 CURVE SMOOTH"
);
},
{
closed = 1;
nodes = (
"157 -182 OFFCURVE",
"203 -162 OFFCURVE",
"212 -124 CURVE SMOOTH",
"218 -94 OFFCURVE",
"175 -81 OFFCURVE",
"153 -60 CURVE SMOOTH",
"148 -55 OFFCURVE",
"146 -50 OFFCURVE",
"146 -45 CURVE SMOOTH",
"146 -27 OFFCURVE",
"179 -12 OFFCURVE",
"195 -9 CURVE SMOOTH",
"201 -8 OFFCURVE",
"203 0 OFFCURVE",
"191 -4 CURVE SMOOTH",
"160 -14 OFFCURVE",
"131 -33 OFFCURVE",
"131 -52 CURVE SMOOTH",
"131 -59 OFFCURVE",
"134 -65 OFFCURVE",
"142 -71 CURVE SMOOTH",
"158 -84 OFFCURVE",
"178 -95 OFFCURVE",
"188 -113 CURVE SMOOTH",
"193 -121 OFFCURVE",
"195 -129 OFFCURVE",
"195 -135 CURVE SMOOTH",
"195 -160 OFFCURVE",
"165 -172 OFFCURVE",
"133 -172 CURVE SMOOTH",
"118 -172 OFFCURVE",
"103 -169 OFFCURVE",
"90 -164 CURVE SMOOTH",
"80 -160 OFFCURVE",
"81 -176 OFFCURVE",
"99 -180 CURVE SMOOTH",
"105 -181 OFFCURVE",
"111 -182 OFFCURVE",
"118 -182 CURVE SMOOTH"
);
}
);
width = 518;
}
);
note = Ccedilla;
unicode = 00C7;
},
{
color = 11;
glyphname = Ccircumflex;
lastChange = "2021-08-02 16:25:37 +0000";
layers = (
{
background = {
paths = (
{
closed = 1;
nodes = (
"327 -12 OFFCURVE",
"393 16 OFFCURVE",
"439 47 CURVE SMOOTH",
"466 65 OFFCURVE",
"519 112 OFFCURVE",
"531 145 CURVE SMOOTH",
"534 153 OFFCURVE",
"528 152 OFFCURVE",
"523 145 CURVE SMOOTH",
"499 111 OFFCURVE",
"470 80 OFFCURVE",
"438 56 CURVE SMOOTH",
"385 17 OFFCURVE",
"320 -4 OFFCURVE",
"248 -4 CURVE SMOOTH",
"112 -4 OFFCURVE",
"55 71 OFFCURVE",
"55 165 CURVE SMOOTH",
"55 323 OFFCURVE",
"217 536 OFFCURVE",
"430 536 CURVE SMOOTH",
"468 536 OFFCURVE",
"541 526 OFFCURVE",
"541 478 CURVE SMOOTH",
"541 475 OFFCURVE",
"540 472 OFFCURVE",
"540 469 CURVE SMOOTH",
"538 455 OFFCURVE",
"528 419 OFFCURVE",
"523 410 CURVE SMOOTH",
"521 406 OFFCURVE",
"529 407 OFFCURVE",
"531 410 CURVE SMOOTH",
"532 411 OFFCURVE",
"538 432 OFFCURVE",
"544 453 CURVE SMOOTH",
"550 473 OFFCURVE",
"557 492 OFFCURVE",
"564 512 CURVE SMOOTH",
"565 515 OFFCURVE",
"567 518 OFFCURVE",
"567 521 CURVE SMOOTH",
"567 524 OFFCURVE",
"564 527 OFFCURVE",
"556 529 CURVE SMOOTH",
"521 537 OFFCURVE",
"487 544 OFFCURVE",
"450 544 CURVE SMOOTH",
"202 544 OFFCURVE",
"27 331 OFFCURVE",
"27 168 CURVE SMOOTH",
"27 69 OFFCURVE",
"93 -12 OFFCURVE",
"249 -12 CURVE SMOOTH"
);
},
{
closed = 1;
nodes = (
"412 566 LINE SMOOTH",
"431 590 OFFCURVE",
"470 642 OFFCURVE",
"480 652 CURVE",
"485 643 OFFCURVE",
"511 577 OFFCURVE",
"511 569 CURVE",
"525 569 LINE",
"522 575 OFFCURVE",
"498 630 OFFCURVE",
"488 661 CURVE",
"480 661 LINE",
"480 661 OFFCURVE",
"424 593 OFFCURVE",
"410 578 CURVE",
"407 577 OFFCURVE",
"408 565 OFFCURVE",
"411 565 CURVE"
);
}
);
};
layerId = "DB049CBD-EE5A-4C6A-B8D5-3A4D87564362";
paths = (
{
closed = 1;
nodes = (
"327 -12 OFFCURVE",
"393 16 OFFCURVE",
"439 47 CURVE SMOOTH",
"466 65 OFFCURVE",
"519 112 OFFCURVE",
"531 145 CURVE SMOOTH",
"534 153 OFFCURVE",
"528 152 OFFCURVE",
"523 145 CURVE SMOOTH",
"499 111 OFFCURVE",
"470 80 OFFCURVE",
"438 56 CURVE SMOOTH",
"385 17 OFFCURVE",
"320 -4 OFFCURVE",
"248 -4 CURVE SMOOTH",
"112 -4 OFFCURVE",
"55 71 OFFCURVE",
"55 165 CURVE SMOOTH",
"55 323 OFFCURVE",
"217 536 OFFCURVE",
"430 536 CURVE SMOOTH",
"468 536 OFFCURVE",
"541 526 OFFCURVE",
"541 478 CURVE SMOOTH",
"541 475 OFFCURVE",
"540 472 OFFCURVE",
"540 469 CURVE SMOOTH",
"538 455 OFFCURVE",
"528 419 OFFCURVE",
"523 410 CURVE SMOOTH",
"521 406 OFFCURVE",
"529 407 OFFCURVE",
"531 410 CURVE SMOOTH",
"532 411 OFFCURVE",
"538 432 OFFCURVE",
"544 453 CURVE SMOOTH",
"550 473 OFFCURVE",
"557 492 OFFCURVE",
"564 512 CURVE SMOOTH",
"565 515 OFFCURVE",
"567 518 OFFCURVE",
"567 521 CURVE SMOOTH",
"567 524 OFFCURVE",
"564 527 OFFCURVE",
"556 529 CURVE SMOOTH",
"521 537 OFFCURVE",
"487 544 OFFCURVE",
"450 544 CURVE SMOOTH",
"202 544 OFFCURVE",
"27 331 OFFCURVE",
"27 168 CURVE SMOOTH",
"27 69 OFFCURVE",
"93 -12 OFFCURVE",
"249 -12 CURVE SMOOTH"
);
},
{
closed = 1;
nodes = (
"412 566 LINE SMOOTH",
"431 590 OFFCURVE",
"470 642 OFFCURVE",
"480 652 CURVE",
"485 643 OFFCURVE",
"511 577 OFFCURVE",
"511 569 CURVE",
"525 569 LINE",
"522 575 OFFCURVE",
"498 630 OFFCURVE",
"488 661 CURVE",
"480 661 LINE",
"480 661 OFFCURVE",
"424 593 OFFCURVE",
"410 578 CURVE",
"407 577 OFFCURVE",
"408 565 OFFCURVE",
"411 565 CURVE"
);
}
);
width = 518;
}
);
note = Ccircumflex;
unicode = 0108;
},
{
color = 11;
glyphname = Cdotaccent;
lastChange = "2021-08-02 16:25:37 +0000";
layers = (
{
background = {
paths = (
{
closed = 1;
nodes = (
"327 -12 OFFCURVE",
"393 16 OFFCURVE",
"439 47 CURVE SMOOTH",
"466 65 OFFCURVE",
"519 112 OFFCURVE",
"531 145 CURVE SMOOTH",
"534 153 OFFCURVE",
"528 152 OFFCURVE",
"523 145 CURVE SMOOTH",
"499 111 OFFCURVE",
"470 80 OFFCURVE",
"438 56 CURVE SMOOTH",
"385 17 OFFCURVE",
"320 -4 OFFCURVE",
"248 -4 CURVE SMOOTH",
"112 -4 OFFCURVE",
"55 71 OFFCURVE",
"55 165 CURVE SMOOTH",
"55 323 OFFCURVE",
"217 536 OFFCURVE",
"430 536 CURVE SMOOTH",
"468 536 OFFCURVE",
"541 526 OFFCURVE",
"541 478 CURVE SMOOTH",
"541 475 OFFCURVE",
"540 472 OFFCURVE",
"540 469 CURVE SMOOTH",
"538 455 OFFCURVE",
"528 419 OFFCURVE",
"523 410 CURVE SMOOTH",
"521 406 OFFCURVE",
"529 407 OFFCURVE",
"531 410 CURVE SMOOTH",
"532 411 OFFCURVE",
"538 432 OFFCURVE",
"544 453 CURVE SMOOTH",
"550 473 OFFCURVE",
"557 492 OFFCURVE",
"564 512 CURVE SMOOTH",
"565 515 OFFCURVE",
"567 518 OFFCURVE",
"567 521 CURVE SMOOTH",
"567 524 OFFCURVE",
"564 527 OFFCURVE",
"556 529 CURVE SMOOTH",
"521 537 OFFCURVE",
"487 544 OFFCURVE",
"450 544 CURVE SMOOTH",
"202 544 OFFCURVE",
"27 331 OFFCURVE",
"27 168 CURVE SMOOTH",
"27 69 OFFCURVE",
"93 -12 OFFCURVE",
"249 -12 CURVE SMOOTH"
);
},
{
closed = 1;
nodes = (
"468 589 OFFCURVE",
"473 590 OFFCURVE",
"477 595 CURVE SMOOTH",
"485 605 OFFCURVE",
"497 626 OFFCURVE",
"497 637 CURVE SMOOTH",
"497 641 OFFCURVE",
"493 643 OFFCURVE",
"489 643 CURVE SMOOTH",
"475 643 OFFCURVE",
"448 627 OFFCURVE",
"448 605 CURVE SMOOTH",
"448 596 OFFCURVE",
"455 589 OFFCURVE",
"464 589 CURVE SMOOTH"
);
}
);
};
layerId = "DB049CBD-EE5A-4C6A-B8D5-3A4D87564362";
paths = (
{
closed = 1;
nodes = (
"327 -12 OFFCURVE",
"393 16 OFFCURVE",
"439 47 CURVE SMOOTH",
"466 65 OFFCURVE",
"519 112 OFFCURVE",
"531 145 CURVE SMOOTH",
"534 153 OFFCURVE",
"528 152 OFFCURVE",
"523 145 CURVE SMOOTH",
"499 111 OFFCURVE",
"470 80 OFFCURVE",
"438 56 CURVE SMOOTH",
"385 17 OFFCURVE",
"320 -4 OFFCURVE",
"248 -4 CURVE SMOOTH",
"112 -4 OFFCURVE",
"55 71 OFFCURVE",
"55 165 CURVE SMOOTH",
"55 323 OFFCURVE",
"217 536 OFFCURVE",
"430 536 CURVE SMOOTH",
"468 536 OFFCURVE",
"541 526 OFFCURVE",
"541 478 CURVE SMOOTH",
"541 475 OFFCURVE",
"540 472 OFFCURVE",
"540 469 CURVE SMOOTH",
"538 455 OFFCURVE",
"528 419 OFFCURVE",
"523 410 CURVE SMOOTH",
"521 406 OFFCURVE",
"529 407 OFFCURVE",
"531 410 CURVE SMOOTH",
"532 411 OFFCURVE",
"538 432 OFFCURVE",
"544 453 CURVE SMOOTH",
"550 473 OFFCURVE",
"557 492 OFFCURVE",
"564 512 CURVE SMOOTH",
"565 515 OFFCURVE",
"567 518 OFFCURVE",
"567 521 CURVE SMOOTH",
"567 524 OFFCURVE",
"564 527 OFFCURVE",
"556 529 CURVE SMOOTH",
"521 537 OFFCURVE",
"487 544 OFFCURVE",
"450 544 CURVE SMOOTH",
"202 544 OFFCURVE",
"27 331 OFFCURVE",
"27 168 CURVE SMOOTH",
"27 69 OFFCURVE",
"93 -12 OFFCURVE",
"249 -12 CURVE SMOOTH"
);
},
{
closed = 1;
nodes = (
"468 589 OFFCURVE",
"473 590 OFFCURVE",
"477 595 CURVE SMOOTH",
"485 605 OFFCURVE",
"497 626 OFFCURVE",
"497 637 CURVE SMOOTH",
"497 641 OFFCURVE",
"493 643 OFFCURVE",
"489 643 CURVE SMOOTH",
"475 643 OFFCURVE",
"448 627 OFFCURVE",
"448 605 CURVE SMOOTH",
"448 596 OFFCURVE",
"455 589 OFFCURVE",
"464 589 CURVE SMOOTH"
);
}
);
width = 518;
}
);
note = Cdotaccent;
unicode = 010A;
},
{
color = 5;
glyphname = D;
lastChange = "2021-08-02 16:25:37 +0000";
layers = (
{
background = {
paths = (
{
closed = 1;
nodes = (
"42 -8 OFFCURVE",
"74 -7 OFFCURVE",
"105 -7 CURVE SMOOTH",
"144 -7 OFFCURVE",
"181 -9 OFFCURVE",
"218 -9 CURVE SMOOTH",
"287 -9 OFFCURVE",
"355 0 OFFCURVE",
"434 52 CURVE SMOOTH",
"523 111 OFFCURVE",
"593 232 OFFCURVE",
"593 338 CURVE SMOOTH",
"593 438 OFFCURVE",
"532 524 OFFCURVE",
"368 533 CURVE SMOOTH",
"355 534 OFFCURVE",
"342 534 OFFCURVE",
"329 534 CURVE SMOOTH",
"312 534 OFFCURVE",
"293 534 OFFCURVE",
"275 533 CURVE SMOOTH",
"260 532 OFFCURVE",
"245 532 OFFCURVE",
"230 532 CURVE SMOOTH",
"206 532 OFFCURVE",
"183 533 OFFCURVE",
"162 534 CURVE",
"159 535 OFFCURVE",
"156 530 OFFCURVE",
"156 526 CURVE SMOOTH",
"156 525 OFFCURVE",
"157 524 OFFCURVE",
"158 524 CURVE SMOOTH",
"176 526 OFFCURVE",
"194 527 OFFCURVE",
"209 527 CURVE SMOOTH",
"227 526 OFFCURVE",
"233 524 OFFCURVE",
"233 518 CURVE SMOOTH",
"233 515 OFFCURVE",
"231 510 OFFCURVE",
"229 504 CURVE SMOOTH",
"176 350 OFFCURVE",
"107 175 OFFCURVE",
"33 29 CURVE SMOOTH",
"24 11 OFFCURVE",
"15 -2 OFFCURVE",
"5 -8 CURVE",
"7 -14 LINE"
);
},
{
closed = 1;
nodes = (
"158 -2 OFFCURVE",
"118 2 OFFCURVE",
"81 9 CURVE SMOOTH",
"70 11 OFFCURVE",
"64 14 OFFCURVE",
"64 26 CURVE SMOOTH",
"64 34 OFFCURVE",
"67 48 OFFCURVE",
"75 68 CURVE SMOOTH",
"128 206 OFFCURVE",
"193 380 OFFCURVE",
"265 508 CURVE SMOOTH",
"278 532 OFFCURVE",
"332 527 OFFCURVE",
"355 527 CURVE SMOOTH",
"506 527 OFFCURVE",
"562 441 OFFCURVE",
"562 340 CURVE SMOOTH",
"562 239 OFFCURVE",
"505 123 OFFCURVE",
"427 65 CURVE SMOOTH",
"360 15 OFFCURVE",
"279 -2 OFFCURVE",
"199 -2 CURVE SMOOTH"
);
}
);
};
layerId = "DB049CBD-EE5A-4C6A-B8D5-3A4D87564362";
paths = (
{
closed = 1;
nodes = (
"42 -8 OFFCURVE",
"74 -7 OFFCURVE",
"105 -7 CURVE SMOOTH",
"144 -7 OFFCURVE",
"181 -9 OFFCURVE",
"218 -9 CURVE SMOOTH",
"287 -9 OFFCURVE",
"355 0 OFFCURVE",
"434 52 CURVE SMOOTH",
"523 111 OFFCURVE",
"593 232 OFFCURVE",
"593 338 CURVE SMOOTH",
"593 438 OFFCURVE",
"532 524 OFFCURVE",
"368 533 CURVE SMOOTH",
"355 534 OFFCURVE",
"342 534 OFFCURVE",
"329 534 CURVE SMOOTH",
"312 534 OFFCURVE",
"293 534 OFFCURVE",
"275 533 CURVE SMOOTH",
"260 532 OFFCURVE",
"245 532 OFFCURVE",
"230 532 CURVE SMOOTH",
"206 532 OFFCURVE",
"183 533 OFFCURVE",
"162 534 CURVE",
"159 535 OFFCURVE",
"156 530 OFFCURVE",
"156 526 CURVE SMOOTH",
"156 525 OFFCURVE",
"157 524 OFFCURVE",
"158 524 CURVE SMOOTH",
"176 526 OFFCURVE",
"194 527 OFFCURVE",
"209 527 CURVE SMOOTH",
"227 526 OFFCURVE",
"233 524 OFFCURVE",
"233 518 CURVE SMOOTH",
"233 515 OFFCURVE",
"231 510 OFFCURVE",
"229 504 CURVE SMOOTH",
"176 350 OFFCURVE",
"107 175 OFFCURVE",
"33 29 CURVE SMOOTH",
"24 11 OFFCURVE",
"15 -2 OFFCURVE",
"5 -8 CURVE",
"7 -14 LINE"
);
},
{
closed = 1;
nodes = (
"158 -2 OFFCURVE",
"118 2 OFFCURVE",
"81 9 CURVE SMOOTH",
"70 11 OFFCURVE",
"64 14 OFFCURVE",
"64 26 CURVE SMOOTH",
"64 34 OFFCURVE",
"67 48 OFFCURVE",
"75 68 CURVE SMOOTH",
"128 206 OFFCURVE",
"193 380 OFFCURVE",
"265 508 CURVE SMOOTH",
"278 532 OFFCURVE",
"332 527 OFFCURVE",
"355 527 CURVE SMOOTH",
"506 527 OFFCURVE",
"562 441 OFFCURVE",
"562 340 CURVE SMOOTH",
"562 239 OFFCURVE",
"505 123 OFFCURVE",
"427 65 CURVE SMOOTH",
"360 15 OFFCURVE",
"279 -2 OFFCURVE",
"199 -2 CURVE SMOOTH"
);
}
);
width = 571;
}
);
note = D;
unicode = 0044;
},
{
color = 5;
glyphname = Eth;
lastChange = "2021-08-02 16:25:37 +0000";
layers = (
{
background = {
paths = (
{
closed = 1;
nodes = (
"42 -8 OFFCURVE",
"74 -7 OFFCURVE",
"105 -7 CURVE SMOOTH",
"144 -7 OFFCURVE",
"181 -9 OFFCURVE",
"218 -9 CURVE SMOOTH",
"287 -9 OFFCURVE",
"355 0 OFFCURVE",
"434 52 CURVE SMOOTH",
"523 111 OFFCURVE",
"593 232 OFFCURVE",
"593 338 CURVE SMOOTH",
"593 438 OFFCURVE",
"532 524 OFFCURVE",
"368 533 CURVE SMOOTH",
"355 534 OFFCURVE",
"342 534 OFFCURVE",
"329 534 CURVE SMOOTH",
"312 534 OFFCURVE",
"293 534 OFFCURVE",
"275 533 CURVE SMOOTH",
"260 532 OFFCURVE",
"245 532 OFFCURVE",
"230 532 CURVE SMOOTH",
"206 532 OFFCURVE",
"183 533 OFFCURVE",
"162 534 CURVE",
"159 535 OFFCURVE",
"156 530 OFFCURVE",
"156 526 CURVE SMOOTH",
"156 525 OFFCURVE",
"157 524 OFFCURVE",
"158 524 CURVE SMOOTH",
"176 526 OFFCURVE",
"194 527 OFFCURVE",
"209 527 CURVE SMOOTH",
"227 526 OFFCURVE",
"233 524 OFFCURVE",
"233 518 CURVE SMOOTH",
"233 515 OFFCURVE",
"231 510 OFFCURVE",
"229 504 CURVE SMOOTH",
"200 420 OFFCURVE",
"166 330 OFFCURVE",
"130 242 CURVE",
"94 229 OFFCURVE",
"62 216 OFFCURVE",
"56 214 CURVE SMOOTH",
"53 213 OFFCURVE",
"46 200 OFFCURVE",
"46 196 CURVE SMOOTH",
"46 195 OFFCURVE",
"46 195 OFFCURVE",
"47 195 CURVE",
"122 224 LINE",
"94 156 OFFCURVE",
"64 90 OFFCURVE",
"33 29 CURVE SMOOTH",
"24 11 OFFCURVE",
"15 -2 OFFCURVE",
"5 -8 CURVE",
"7 -14 LINE"
);
},
{
closed = 1;
nodes = (
"159 -2 OFFCURVE",
"119 2 OFFCURVE",
"81 9 CURVE SMOOTH",
"70 11 OFFCURVE",
"64 14 OFFCURVE",
"64 26 CURVE SMOOTH",
"64 34 OFFCURVE",
"67 48 OFFCURVE",
"75 68 CURVE SMOOTH",
"137 229 LINE",
"179 244 OFFCURVE",
"221 260 OFFCURVE",
"236 266 CURVE SMOOTH",
"239 267 OFFCURVE",
"247 285 OFFCURVE",
"244 283 CURVE",
"235 280 OFFCURVE",
"189 264 OFFCURVE",
"144 247 CURVE",
"181 339 OFFCURVE",
"222 431 OFFCURVE",
"265 508 CURVE SMOOTH",
"278 532 OFFCURVE",
"332 527 OFFCURVE",
"355 527 CURVE SMOOTH",
"506 527 OFFCURVE",
"562 441 OFFCURVE",
"562 340 CURVE SMOOTH",
"562 239 OFFCURVE",
"505 123 OFFCURVE",
"427 65 CURVE SMOOTH",
"360 15 OFFCURVE",
"279 -2 OFFCURVE",
"199 -2 CURVE SMOOTH"
);
}
);
};
layerId = "DB049CBD-EE5A-4C6A-B8D5-3A4D87564362";
paths = (
{
closed = 1;
nodes = (
"42 -8 OFFCURVE",
"74 -7 OFFCURVE",
"105 -7 CURVE SMOOTH",
"144 -7 OFFCURVE",
"181 -9 OFFCURVE",
"218 -9 CURVE SMOOTH",
"287 -9 OFFCURVE",
"355 0 OFFCURVE",
"434 52 CURVE SMOOTH",
"523 111 OFFCURVE",
"593 232 OFFCURVE",
"593 338 CURVE SMOOTH",
"593 438 OFFCURVE",
"532 524 OFFCURVE",
"368 533 CURVE SMOOTH",
"355 534 OFFCURVE",
"342 534 OFFCURVE",
"329 534 CURVE SMOOTH",
"312 534 OFFCURVE",
"293 534 OFFCURVE",
"275 533 CURVE SMOOTH",
"260 532 OFFCURVE",
"245 532 OFFCURVE",
"230 532 CURVE SMOOTH",
"206 532 OFFCURVE",
"183 533 OFFCURVE",
"162 534 CURVE",
"159 535 OFFCURVE",
"156 530 OFFCURVE",
"156 526 CURVE SMOOTH",
"156 525 OFFCURVE",
"157 524 OFFCURVE",
"158 524 CURVE SMOOTH",
"176 526 OFFCURVE",
"194 527 OFFCURVE",
"209 527 CURVE SMOOTH",
"227 526 OFFCURVE",
"233 524 OFFCURVE",
"233 518 CURVE SMOOTH",
"233 515 OFFCURVE",
"231 510 OFFCURVE",
"229 504 CURVE SMOOTH",
"200 420 OFFCURVE",
"166 330 OFFCURVE",
"130 242 CURVE",
"94 229 OFFCURVE",
"62 216 OFFCURVE",
"56 214 CURVE SMOOTH",
"53 213 OFFCURVE",
"46 200 OFFCURVE",
"46 196 CURVE SMOOTH",
"46 195 OFFCURVE",
"46 195 OFFCURVE",
"47 195 CURVE",
"122 224 LINE",
"94 156 OFFCURVE",
"64 90 OFFCURVE",
"33 29 CURVE SMOOTH",
"24 11 OFFCURVE",
"15 -2 OFFCURVE",
"5 -8 CURVE",
"7 -14 LINE"
);
},
{
closed = 1;
nodes = (
"159 -2 OFFCURVE",
"119 2 OFFCURVE",
"81 9 CURVE SMOOTH",
"70 11 OFFCURVE",
"64 14 OFFCURVE",
"64 26 CURVE SMOOTH",
"64 34 OFFCURVE",
"67 48 OFFCURVE",
"75 68 CURVE SMOOTH",
"137 229 LINE",
"179 244 OFFCURVE",
"221 260 OFFCURVE",
"236 266 CURVE SMOOTH",
"239 267 OFFCURVE",
"247 285 OFFCURVE",
"244 283 CURVE",
"235 280 OFFCURVE",
"189 264 OFFCURVE",
"144 247 CURVE",
"181 339 OFFCURVE",
"222 431 OFFCURVE",
"265 508 CURVE SMOOTH",
"278 532 OFFCURVE",
"332 527 OFFCURVE",
"355 527 CURVE SMOOTH",
"506 527 OFFCURVE",
"562 441 OFFCURVE",
"562 340 CURVE SMOOTH",
"562 239 OFFCURVE",
"505 123 OFFCURVE",
"427 65 CURVE SMOOTH",
"360 15 OFFCURVE",
"279 -2 OFFCURVE",
"199 -2 CURVE SMOOTH"
);
}
);
width = 571;
}
);
note = Eth;
unicode = 00D0;
},
{
color = 11;
glyphname = Dcaron;
lastChange = "2021-08-02 16:25:37 +0000";
layers = (
{
background = {
paths = (
{
closed = 1;
nodes = (
"42 -8 OFFCURVE",
"74 -7 OFFCURVE",
"105 -7 CURVE SMOOTH",
"144 -7 OFFCURVE",
"181 -9 OFFCURVE",
"218 -9 CURVE SMOOTH",
"287 -9 OFFCURVE",
"355 0 OFFCURVE",
"434 52 CURVE SMOOTH",
"523 111 OFFCURVE",
"593 232 OFFCURVE",
"593 338 CURVE SMOOTH",
"593 438 OFFCURVE",
"532 524 OFFCURVE",
"368 533 CURVE SMOOTH",
"355 534 OFFCURVE",
"342 534 OFFCURVE",
"329 534 CURVE SMOOTH",
"312 534 OFFCURVE",
"293 534 OFFCURVE",
"275 533 CURVE SMOOTH",
"260 532 OFFCURVE",
"245 532 OFFCURVE",
"230 532 CURVE SMOOTH",
"206 532 OFFCURVE",
"183 533 OFFCURVE",
"162 534 CURVE",
"159 535 OFFCURVE",
"156 530 OFFCURVE",
"156 526 CURVE SMOOTH",
"156 525 OFFCURVE",
"157 524 OFFCURVE",
"158 524 CURVE SMOOTH",
"176 526 OFFCURVE",
"194 527 OFFCURVE",
"209 527 CURVE SMOOTH",
"227 526 OFFCURVE",
"233 524 OFFCURVE",
"233 518 CURVE SMOOTH",
"233 515 OFFCURVE",
"231 510 OFFCURVE",
"229 504 CURVE SMOOTH",
"176 350 OFFCURVE",
"107 175 OFFCURVE",
"33 29 CURVE SMOOTH",
"24 11 OFFCURVE",
"15 -2 OFFCURVE",
"5 -8 CURVE",
"7 -14 LINE"
);
},
{
closed = 1;
nodes = (
"158 -2 OFFCURVE",
"118 2 OFFCURVE",
"81 9 CURVE SMOOTH",
"70 11 OFFCURVE",
"64 14 OFFCURVE",
"64 26 CURVE SMOOTH",
"64 34 OFFCURVE",
"67 48 OFFCURVE",
"75 68 CURVE SMOOTH",
"128 206 OFFCURVE",
"193 380 OFFCURVE",
"265 508 CURVE SMOOTH",
"278 532 OFFCURVE",
"332 527 OFFCURVE",
"355 527 CURVE SMOOTH",
"506 527 OFFCURVE",
"562 441 OFFCURVE",
"562 340 CURVE SMOOTH",
"562 239 OFFCURVE",
"505 123 OFFCURVE",
"427 65 CURVE SMOOTH",
"360 15 OFFCURVE",
"279 -2 OFFCURVE",
"199 -2 CURVE SMOOTH"
);
},
{
closed = 1;
nodes = (
"401 567 LINE",
"401 567 OFFCURVE",
"457 635 OFFCURVE",
"471 650 CURVE",
"474 651 OFFCURVE",
"473 663 OFFCURVE",
"470 663 CURVE",
"469 662 LINE SMOOTH",
"450 638 OFFCURVE",
"411 586 OFFCURVE",
"401 576 CURVE",
"396 585 OFFCURVE",
"370 651 OFFCURVE",
"370 659 CURVE",
"356 659 LINE",
"359 653 OFFCURVE",
"383 598 OFFCURVE",
"393 567 CURVE"
);
}
);
};
layerId = "DB049CBD-EE5A-4C6A-B8D5-3A4D87564362";
paths = (
{
closed = 1;
nodes = (
"42 -8 OFFCURVE",
"74 -7 OFFCURVE",
"105 -7 CURVE SMOOTH",
"144 -7 OFFCURVE",
"181 -9 OFFCURVE",
"218 -9 CURVE SMOOTH",
"287 -9 OFFCURVE",
"355 0 OFFCURVE",
"434 52 CURVE SMOOTH",
"523 111 OFFCURVE",
"593 232 OFFCURVE",
"593 338 CURVE SMOOTH",
"593 438 OFFCURVE",
"532 524 OFFCURVE",
"368 533 CURVE SMOOTH",
"355 534 OFFCURVE",
"342 534 OFFCURVE",
"329 534 CURVE SMOOTH",
"312 534 OFFCURVE",
"293 534 OFFCURVE",
"275 533 CURVE SMOOTH",
"260 532 OFFCURVE",
"245 532 OFFCURVE",
"230 532 CURVE SMOOTH",
"206 532 OFFCURVE",
"183 533 OFFCURVE",
"162 534 CURVE",
"159 535 OFFCURVE",
"156 530 OFFCURVE",
"156 526 CURVE SMOOTH",
"156 525 OFFCURVE",
"157 524 OFFCURVE",
"158 524 CURVE SMOOTH",
"176 526 OFFCURVE",
"194 527 OFFCURVE",
"209 527 CURVE SMOOTH",
"227 526 OFFCURVE",
"233 524 OFFCURVE",
"233 518 CURVE SMOOTH",
"233 515 OFFCURVE",
"231 510 OFFCURVE",
"229 504 CURVE SMOOTH",
"176 350 OFFCURVE",
"107 175 OFFCURVE",
"33 29 CURVE SMOOTH",
"24 11 OFFCURVE",
"15 -2 OFFCURVE",
"5 -8 CURVE",
"7 -14 LINE"
);
},
{
closed = 1;
nodes = (
"158 -2 OFFCURVE",
"118 2 OFFCURVE",
"81 9 CURVE SMOOTH",
"70 11 OFFCURVE",
"64 14 OFFCURVE",
"64 26 CURVE SMOOTH",
"64 34 OFFCURVE",
"67 48 OFFCURVE",
"75 68 CURVE SMOOTH",
"128 206 OFFCURVE",
"193 380 OFFCURVE",
"265 508 CURVE SMOOTH",
"278 532 OFFCURVE",
"332 527 OFFCURVE",
"355 527 CURVE SMOOTH",
"506 527 OFFCURVE",
"562 441 OFFCURVE",
"562 340 CURVE SMOOTH",
"562 239 OFFCURVE",
"505 123 OFFCURVE",
"427 65 CURVE SMOOTH",
"360 15 OFFCURVE",
"279 -2 OFFCURVE",
"199 -2 CURVE SMOOTH"
);
},
{
closed = 1;
nodes = (
"401 567 LINE",
"401 567 OFFCURVE",
"457 635 OFFCURVE",
"471 650 CURVE",
"474 651 OFFCURVE",
"473 663 OFFCURVE",
"470 663 CURVE",
"469 662 LINE SMOOTH",
"450 638 OFFCURVE",
"411 586 OFFCURVE",
"401 576 CURVE",
"396 585 OFFCURVE",
"370 651 OFFCURVE",
"370 659 CURVE",
"356 659 LINE",
"359 653 OFFCURVE",
"383 598 OFFCURVE",
"393 567 CURVE"
);
}
);
width = 571;
}
);
note = Dcaron;
unicode = 010E;
},
{
color = 11;
glyphname = Dcroat;
lastChange = "2021-08-02 16:25:37 +0000";
layers = (
{
background = {
paths = (
{
closed = 1;
nodes = (
"42 -8 OFFCURVE",
"74 -7 OFFCURVE",
"105 -7 CURVE SMOOTH",
"144 -7 OFFCURVE",
"181 -9 OFFCURVE",
"218 -9 CURVE SMOOTH",
"287 -9 OFFCURVE",
"355 0 OFFCURVE",
"434 52 CURVE SMOOTH",
"523 111 OFFCURVE",
"593 232 OFFCURVE",
"593 338 CURVE SMOOTH",
"593 438 OFFCURVE",
"532 524 OFFCURVE",
"368 533 CURVE SMOOTH",
"355 534 OFFCURVE",
"342 534 OFFCURVE",
"329 534 CURVE SMOOTH",
"312 534 OFFCURVE",
"293 534 OFFCURVE",
"275 533 CURVE SMOOTH",
"260 532 OFFCURVE",
"245 532 OFFCURVE",
"230 532 CURVE SMOOTH",
"206 532 OFFCURVE",
"183 533 OFFCURVE",
"162 534 CURVE",
"159 535 OFFCURVE",
"156 530 OFFCURVE",
"156 526 CURVE SMOOTH",
"156 525 OFFCURVE",
"157 524 OFFCURVE",
"158 524 CURVE SMOOTH",
"176 526 OFFCURVE",
"194 527 OFFCURVE",
"209 527 CURVE SMOOTH",
"227 526 OFFCURVE",
"233 524 OFFCURVE",
"233 518 CURVE SMOOTH",
"233 515 OFFCURVE",
"231 510 OFFCURVE",
"229 504 CURVE SMOOTH",
"176 350 OFFCURVE",
"107 175 OFFCURVE",
"33 29 CURVE SMOOTH",
"24 11 OFFCURVE",
"15 -2 OFFCURVE",
"5 -8 CURVE",
"7 -14 LINE"
);
},
{
closed = 1;
nodes = (
"158 -2 OFFCURVE",
"118 2 OFFCURVE",
"81 9 CURVE SMOOTH",
"70 11 OFFCURVE",
"64 14 OFFCURVE",
"64 26 CURVE SMOOTH",
"64 34 OFFCURVE",
"67 48 OFFCURVE",
"75 68 CURVE SMOOTH",
"128 206 OFFCURVE",
"193 380 OFFCURVE",
"265 508 CURVE SMOOTH",
"278 532 OFFCURVE",
"332 527 OFFCURVE",
"355 527 CURVE SMOOTH",
"506 527 OFFCURVE",
"562 441 OFFCURVE",
"562 340 CURVE SMOOTH",
"562 239 OFFCURVE",
"505 123 OFFCURVE",
"427 65 CURVE SMOOTH",
"360 15 OFFCURVE",
"279 -2 OFFCURVE",
"199 -2 CURVE SMOOTH"
);
},
{
closed = 1;
nodes = (
"361 597 OFFCURVE",
"375 597 OFFCURVE",
"391 597 CURVE SMOOTH",
"479 597 LINE SMOOTH",
"481 597 OFFCURVE",
"484 607 OFFCURVE",
"484 611 CURVE SMOOTH",
"484 612 OFFCURVE",
"484 613 OFFCURVE",
"483 613 CURVE SMOOTH",
"361 613 LINE SMOOTH",
"359 613 OFFCURVE",
"355 603 OFFCURVE",
"355 599 CURVE SMOOTH",
"355 597 OFFCURVE",
"355 597 OFFCURVE",
"356 597 CURVE SMOOTH"
);
}
);
};
layerId = "DB049CBD-EE5A-4C6A-B8D5-3A4D87564362";
paths = (
{
closed = 1;
nodes = (
"42 -8 OFFCURVE",
"74 -7 OFFCURVE",
"105 -7 CURVE SMOOTH",
"144 -7 OFFCURVE",
"181 -9 OFFCURVE",
"218 -9 CURVE SMOOTH",
"287 -9 OFFCURVE",
"355 0 OFFCURVE",
"434 52 CURVE SMOOTH",
"523 111 OFFCURVE",
"593 232 OFFCURVE",
"593 338 CURVE SMOOTH",
"593 438 OFFCURVE",
"532 524 OFFCURVE",
"368 533 CURVE SMOOTH",
"355 534 OFFCURVE",
"342 534 OFFCURVE",
"329 534 CURVE SMOOTH",
"312 534 OFFCURVE",
"293 534 OFFCURVE",
"275 533 CURVE SMOOTH",
"260 532 OFFCURVE",
"245 532 OFFCURVE",
"230 532 CURVE SMOOTH",
"206 532 OFFCURVE",
"183 533 OFFCURVE",
"162 534 CURVE",
"159 535 OFFCURVE",
"156 530 OFFCURVE",
"156 526 CURVE SMOOTH",
"156 525 OFFCURVE",
"157 524 OFFCURVE",
"158 524 CURVE SMOOTH",
"176 526 OFFCURVE",
"194 527 OFFCURVE",
"209 527 CURVE SMOOTH",
"227 526 OFFCURVE",
"233 524 OFFCURVE",
"233 518 CURVE SMOOTH",
"233 515 OFFCURVE",
"231 510 OFFCURVE",
"229 504 CURVE SMOOTH",
"176 350 OFFCURVE",
"107 175 OFFCURVE",
"33 29 CURVE SMOOTH",
"24 11 OFFCURVE",
"15 -2 OFFCURVE",
"5 -8 CURVE",
"7 -14 LINE"
);
},
{
closed = 1;
nodes = (
"158 -2 OFFCURVE",
"118 2 OFFCURVE",
"81 9 CURVE SMOOTH",
"70 11 OFFCURVE",
"64 14 OFFCURVE",
"64 26 CURVE SMOOTH",
"64 34 OFFCURVE",
"67 48 OFFCURVE",
"75 68 CURVE SMOOTH",
"128 206 OFFCURVE",
"193 380 OFFCURVE",
"265 508 CURVE SMOOTH",
"278 532 OFFCURVE",
"332 527 OFFCURVE",
"355 527 CURVE SMOOTH",
"506 527 OFFCURVE",
"562 441 OFFCURVE",
"562 340 CURVE SMOOTH",
"562 239 OFFCURVE",
"505 123 OFFCURVE",
"427 65 CURVE SMOOTH",
"360 15 OFFCURVE",
"279 -2 OFFCURVE",
"199 -2 CURVE SMOOTH"
);
},
{
closed = 1;
nodes = (
"361 597 OFFCURVE",
"375 597 OFFCURVE",
"391 597 CURVE SMOOTH",
"479 597 LINE SMOOTH",
"481 597 OFFCURVE",
"484 607 OFFCURVE",
"484 611 CURVE SMOOTH",
"484 612 OFFCURVE",
"484 613 OFFCURVE",
"483 613 CURVE SMOOTH",
"361 613 LINE SMOOTH",
"359 613 OFFCURVE",
"355 603 OFFCURVE",
"355 599 CURVE SMOOTH",
"355 597 OFFCURVE",
"355 597 OFFCURVE",
"356 597 CURVE SMOOTH"
);
}
);
width = 571;
}
);
note = Dcroat;
unicode = 0110;
},
{
color = 5;
glyphname = E;
lastChange = "2021-08-02 16:25:37 +0000";
layers = (
{
background = {
paths = (
{
closed = 1;
nodes = (
"295 -3 OFFCURVE",
"359 -2 OFFCURVE",
"382 2 CURVE SMOOTH",
"393 4 OFFCURVE",
"411 64 OFFCURVE",
"422 97 CURVE SMOOTH",
"423 101 OFFCURVE",
"414 102 OFFCURVE",
"413 100 CURVE",
"408 66 OFFCURVE",
"387 37 OFFCURVE",
"382 33 CURVE SMOOTH",
"362 19 OFFCURVE",
"322 13 OFFCURVE",
"280 9 CURVE SMOOTH",
"258 7 OFFCURVE",
"233 7 OFFCURVE",
"208 7 CURVE SMOOTH",
"170 7 OFFCURVE",
"135 8 OFFCURVE",
"118 10 CURVE SMOOTH",
"84 13 OFFCURVE",
"73 22 OFFCURVE",
"73 39 CURVE SMOOTH",
"73 48 OFFCURVE",
"76 59 OFFCURVE",
"80 72 CURVE SMOOTH",
"98 128 OFFCURVE",
"130 209 OFFCURVE",
"163 287 CURVE",
"183 288 OFFCURVE",
"203 288 OFFCURVE",
"224 288 CURVE SMOOTH",
"285 288 LINE SMOOTH",
"332 287 OFFCURVE",
"344 278 OFFCURVE",
"344 260 CURVE SMOOTH",
"344 242 OFFCURVE",
"338 231 OFFCURVE",
"334 225 CURVE SMOOTH",
"332 222 OFFCURVE",
"343 224 OFFCURVE",
"344 227 CURVE SMOOTH",
"349 243 OFFCURVE",
"353 260 OFFCURVE",
"366 291 CURVE",
"366 292 OFFCURVE",
"371 299 OFFCURVE",
"365 299 CURVE SMOOTH",
"311 299 OFFCURVE",
"259 298 OFFCURVE",
"206 297 CURVE SMOOTH",
"193 296 OFFCURVE",
"179 296 OFFCURVE",
"166 296 CURVE",
"200 376 OFFCURVE",
"235 451 OFFCURVE",
"253 490 CURVE SMOOTH",
"261 506 OFFCURVE",
"269 519 OFFCURVE",
"293 522 CURVE SMOOTH",
"314 525 OFFCURVE",
"338 526 OFFCURVE",
"361 526 CURVE SMOOTH",
"373 526 OFFCURVE",
"384 525 OFFCURVE",
"395 525 CURVE SMOOTH",
"450 523 OFFCURVE",
"478 515 OFFCURVE",
"473 489 CURVE SMOOTH",
"471 474 OFFCURVE",
"456 429 OFFCURVE",
"457 429 CURVE SMOOTH",
"460 429 OFFCURVE",
"462 430 OFFCURVE",
"463 432 CURVE SMOOTH",
"473 462 OFFCURVE",
"482 495 OFFCURVE",
"495 526 CURVE",
"495 527 OFFCURVE",
"500 534 OFFCURVE",
"494 534 CURVE SMOOTH",
"440 534 OFFCURVE",
"389 533 OFFCURVE",
"335 532 CURVE SMOOTH",
"307 531 OFFCURVE",
"281 531 OFFCURVE",
"253 531 CURVE SMOOTH",
"229 531 OFFCURVE",
"183 533 OFFCURVE",
"163 534 CURVE SMOOTH",
"160 534 OFFCURVE",
"157 530 OFFCURVE",
"157 527 CURVE SMOOTH",
"157 526 OFFCURVE",
"158 525 OFFCURVE",
"159 525 CURVE SMOOTH",
"172 525 OFFCURVE",
"191 526 OFFCURVE",
"206 526 CURVE SMOOTH",
"220 526 OFFCURVE",
"229 524 OFFCURVE",
"229 512 CURVE SMOOTH",
"229 508 OFFCURVE",
"228 502 OFFCURVE",
"226 495 CURVE SMOOTH",
"203 430 OFFCURVE",
"178 363 OFFCURVE",
"151 296 CURVE",
"113 296 LINE SMOOTH",
"102 296 OFFCURVE",
"89 285 OFFCURVE",
"89 282 CURVE",
"90 282 LINE SMOOTH",
"109 284 OFFCURVE",
"128 285 OFFCURVE",
"148 286 CURVE",
"121 220 OFFCURVE",
"93 155 OFFCURVE",
"66 93 CURVE SMOOTH",
"42 41 OFFCURVE",
"35 17 OFFCURVE",
"35 6 CURVE SMOOTH",
"35 -1 OFFCURVE",
"38 -2 OFFCURVE",
"42 -2 CURVE SMOOTH",
"73 -2 OFFCURVE",
"152 -3 OFFCURVE",
"227 -3 CURVE SMOOTH"
);
}
);
};
layerId = "DB049CBD-EE5A-4C6A-B8D5-3A4D87564362";
paths = (
{
closed = 1;
nodes = (
"295 -3 OFFCURVE",
"359 -2 OFFCURVE",
"382 2 CURVE SMOOTH",
"393 4 OFFCURVE",
"411 64 OFFCURVE",
"422 97 CURVE SMOOTH",
"423 101 OFFCURVE",
"414 102 OFFCURVE",
"413 100 CURVE",
"408 66 OFFCURVE",
"387 37 OFFCURVE",
"382 33 CURVE SMOOTH",
"362 19 OFFCURVE",
"322 13 OFFCURVE",
"280 9 CURVE SMOOTH",
"258 7 OFFCURVE",
"233 7 OFFCURVE",
"208 7 CURVE SMOOTH",
"170 7 OFFCURVE",
"135 8 OFFCURVE",
"118 10 CURVE SMOOTH",
"84 13 OFFCURVE",
"73 22 OFFCURVE",
"73 39 CURVE SMOOTH",
"73 48 OFFCURVE",
"76 59 OFFCURVE",
"80 72 CURVE SMOOTH",
"98 128 OFFCURVE",
"130 209 OFFCURVE",
"163 287 CURVE",
"183 288 OFFCURVE",
"203 288 OFFCURVE",
"224 288 CURVE SMOOTH",
"285 288 LINE SMOOTH",
"332 287 OFFCURVE",
"344 278 OFFCURVE",
"344 260 CURVE SMOOTH",
"344 242 OFFCURVE",
"338 231 OFFCURVE",
"334 225 CURVE SMOOTH",
"332 222 OFFCURVE",
"343 224 OFFCURVE",
"344 227 CURVE SMOOTH",
"349 243 OFFCURVE",
"353 260 OFFCURVE",
"366 291 CURVE",
"366 292 OFFCURVE",
"371 299 OFFCURVE",
"365 299 CURVE SMOOTH",
"311 299 OFFCURVE",
"259 298 OFFCURVE",
"206 297 CURVE SMOOTH",
"193 296 OFFCURVE",
"179 296 OFFCURVE",
"166 296 CURVE",
"200 376 OFFCURVE",
"235 451 OFFCURVE",
"253 490 CURVE SMOOTH",
"261 506 OFFCURVE",
"269 519 OFFCURVE",
"293 522 CURVE SMOOTH",
"314 525 OFFCURVE",
"338 526 OFFCURVE",
"361 526 CURVE SMOOTH",
"373 526 OFFCURVE",
"384 525 OFFCURVE",
"395 525 CURVE SMOOTH",
"450 523 OFFCURVE",
"478 515 OFFCURVE",
"473 489 CURVE SMOOTH",
"471 474 OFFCURVE",
"456 429 OFFCURVE",
"457 429 CURVE SMOOTH",
"460 429 OFFCURVE",
"462 430 OFFCURVE",
"463 432 CURVE SMOOTH",
"473 462 OFFCURVE",
"482 495 OFFCURVE",
"495 526 CURVE",
"495 527 OFFCURVE",
"500 534 OFFCURVE",
"494 534 CURVE SMOOTH",
"440 534 OFFCURVE",
"389 533 OFFCURVE",
"335 532 CURVE SMOOTH",
"307 531 OFFCURVE",
"281 531 OFFCURVE",
"253 531 CURVE SMOOTH",
"229 531 OFFCURVE",
"183 533 OFFCURVE",
"163 534 CURVE SMOOTH",
"160 534 OFFCURVE",
"157 530 OFFCURVE",
"157 527 CURVE SMOOTH",
"157 526 OFFCURVE",
"158 525 OFFCURVE",
"159 525 CURVE SMOOTH",
"172 525 OFFCURVE",
"191 526 OFFCURVE",
"206 526 CURVE SMOOTH",
"220 526 OFFCURVE",
"229 524 OFFCURVE",
"229 512 CURVE SMOOTH",
"229 508 OFFCURVE",
"228 502 OFFCURVE",
"226 495 CURVE SMOOTH",
"203 430 OFFCURVE",
"178 363 OFFCURVE",
"151 296 CURVE",
"113 296 LINE SMOOTH",
"102 296 OFFCURVE",
"89 285 OFFCURVE",
"89 282 CURVE",
"90 282 LINE SMOOTH",
"109 284 OFFCURVE",
"128 285 OFFCURVE",
"148 286 CURVE",
"121 220 OFFCURVE",
"93 155 OFFCURVE",
"66 93 CURVE SMOOTH",
"42 41 OFFCURVE",
"35 17 OFFCURVE",
"35 6 CURVE SMOOTH",
"35 -1 OFFCURVE",
"38 -2 OFFCURVE",
"42 -2 CURVE SMOOTH",
"73 -2 OFFCURVE",
"152 -3 OFFCURVE",
"227 -3 CURVE SMOOTH"
);
}
);
width = 443;
}
);
note = E;
unicode = 0045;
},
{
color = 11;
glyphname = Eacute;
lastChange = "2021-08-02 16:25:37 +0000";
layers = (
{
background = {
paths = (
{
closed = 1;
nodes = (
"295 -3 OFFCURVE",
"359 -2 OFFCURVE",
"382 2 CURVE SMOOTH",
"393 4 OFFCURVE",
"411 64 OFFCURVE",
"422 97 CURVE SMOOTH",
"423 101 OFFCURVE",
"414 102 OFFCURVE",
"413 100 CURVE",
"408 66 OFFCURVE",
"387 37 OFFCURVE",
"382 33 CURVE SMOOTH",
"362 19 OFFCURVE",
"322 13 OFFCURVE",
"280 9 CURVE SMOOTH",
"258 7 OFFCURVE",
"233 7 OFFCURVE",
"208 7 CURVE SMOOTH",
"170 7 OFFCURVE",
"135 8 OFFCURVE",
"118 10 CURVE SMOOTH",
"84 13 OFFCURVE",
"73 22 OFFCURVE",
"73 39 CURVE SMOOTH",
"73 48 OFFCURVE",
"76 59 OFFCURVE",
"80 72 CURVE SMOOTH",
"98 128 OFFCURVE",
"130 209 OFFCURVE",
"163 287 CURVE",
"183 288 OFFCURVE",
"203 288 OFFCURVE",
"224 288 CURVE SMOOTH",
"285 288 LINE SMOOTH",
"332 287 OFFCURVE",
"344 278 OFFCURVE",
"344 260 CURVE SMOOTH",
"344 242 OFFCURVE",
"338 231 OFFCURVE",
"334 225 CURVE SMOOTH",
"332 222 OFFCURVE",
"343 224 OFFCURVE",
"344 227 CURVE SMOOTH",
"349 243 OFFCURVE",
"353 260 OFFCURVE",
"366 291 CURVE",
"366 292 OFFCURVE",
"371 299 OFFCURVE",
"365 299 CURVE SMOOTH",
"311 299 OFFCURVE",
"259 298 OFFCURVE",
"206 297 CURVE SMOOTH",
"193 296 OFFCURVE",
"179 296 OFFCURVE",
"166 296 CURVE",
"200 376 OFFCURVE",
"235 451 OFFCURVE",
"253 490 CURVE SMOOTH",
"261 506 OFFCURVE",
"269 519 OFFCURVE",
"293 522 CURVE SMOOTH",
"314 525 OFFCURVE",
"338 526 OFFCURVE",
"361 526 CURVE SMOOTH",
"373 526 OFFCURVE",
"384 525 OFFCURVE",
"395 525 CURVE SMOOTH",
"450 523 OFFCURVE",
"478 515 OFFCURVE",
"473 489 CURVE SMOOTH",
"471 474 OFFCURVE",
"456 429 OFFCURVE",
"457 429 CURVE SMOOTH",
"460 429 OFFCURVE",
"462 430 OFFCURVE",
"463 432 CURVE SMOOTH",
"473 462 OFFCURVE",
"482 495 OFFCURVE",
"495 526 CURVE",
"495 527 OFFCURVE",
"500 534 OFFCURVE",
"494 534 CURVE SMOOTH",
"440 534 OFFCURVE",
"389 533 OFFCURVE",
"335 532 CURVE SMOOTH",
"307 531 OFFCURVE",
"281 531 OFFCURVE",
"253 531 CURVE SMOOTH",
"229 531 OFFCURVE",
"183 533 OFFCURVE",
"163 534 CURVE SMOOTH",
"160 534 OFFCURVE",
"157 530 OFFCURVE",
"157 527 CURVE SMOOTH",
"157 526 OFFCURVE",
"158 525 OFFCURVE",
"159 525 CURVE SMOOTH",
"172 525 OFFCURVE",
"191 526 OFFCURVE",
"206 526 CURVE SMOOTH",
"220 526 OFFCURVE",
"229 524 OFFCURVE",
"229 512 CURVE SMOOTH",
"229 508 OFFCURVE",
"228 502 OFFCURVE",
"226 495 CURVE SMOOTH",
"203 430 OFFCURVE",
"178 363 OFFCURVE",
"151 296 CURVE",
"113 296 LINE SMOOTH",
"102 296 OFFCURVE",
"89 285 OFFCURVE",
"89 282 CURVE",
"90 282 LINE SMOOTH",
"109 284 OFFCURVE",
"128 285 OFFCURVE",
"148 286 CURVE",
"121 220 OFFCURVE",
"93 155 OFFCURVE",
"66 93 CURVE SMOOTH",
"42 41 OFFCURVE",
"35 17 OFFCURVE",
"35 6 CURVE SMOOTH",
"35 -1 OFFCURVE",
"38 -2 OFFCURVE",
"42 -2 CURVE SMOOTH",
"73 -2 OFFCURVE",
"152 -3 OFFCURVE",
"227 -3 CURVE SMOOTH"
);
},
{
closed = 1;
nodes = (
"351 595 OFFCURVE",
"419 633 OFFCURVE",
"431 642 CURVE SMOOTH",
"434 644 OFFCURVE",
"428 656 OFFCURVE",
"426 654 CURVE",
"336 591 LINE SMOOTH",
"333 589 OFFCURVE",
"332 581 OFFCURVE",
"336 584 CURVE SMOOTH"
);
}
);
};
layerId = "DB049CBD-EE5A-4C6A-B8D5-3A4D87564362";
paths = (
{
closed = 1;
nodes = (
"295 -3 OFFCURVE",
"359 -2 OFFCURVE",
"382 2 CURVE SMOOTH",
"393 4 OFFCURVE",
"411 64 OFFCURVE",
"422 97 CURVE SMOOTH",
"423 101 OFFCURVE",
"414 102 OFFCURVE",
"413 100 CURVE",
"408 66 OFFCURVE",
"387 37 OFFCURVE",
"382 33 CURVE SMOOTH",
"362 19 OFFCURVE",
"322 13 OFFCURVE",
"280 9 CURVE SMOOTH",
"258 7 OFFCURVE",
"233 7 OFFCURVE",
"208 7 CURVE SMOOTH",
"170 7 OFFCURVE",
"135 8 OFFCURVE",
"118 10 CURVE SMOOTH",
"84 13 OFFCURVE",
"73 22 OFFCURVE",
"73 39 CURVE SMOOTH",
"73 48 OFFCURVE",
"76 59 OFFCURVE",
"80 72 CURVE SMOOTH",
"98 128 OFFCURVE",
"130 209 OFFCURVE",
"163 287 CURVE",
"183 288 OFFCURVE",
"203 288 OFFCURVE",
"224 288 CURVE SMOOTH",
"285 288 LINE SMOOTH",
"332 287 OFFCURVE",
"344 278 OFFCURVE",
"344 260 CURVE SMOOTH",
"344 242 OFFCURVE",
"338 231 OFFCURVE",
"334 225 CURVE SMOOTH",
"332 222 OFFCURVE",
"343 224 OFFCURVE",
"344 227 CURVE SMOOTH",
"349 243 OFFCURVE",
"353 260 OFFCURVE",
"366 291 CURVE",
"366 292 OFFCURVE",
"371 299 OFFCURVE",
"365 299 CURVE SMOOTH",
"311 299 OFFCURVE",
"259 298 OFFCURVE",
"206 297 CURVE SMOOTH",
"193 296 OFFCURVE",
"179 296 OFFCURVE",
"166 296 CURVE",
"200 376 OFFCURVE",
"235 451 OFFCURVE",
"253 490 CURVE SMOOTH",
"261 506 OFFCURVE",
"269 519 OFFCURVE",
"293 522 CURVE SMOOTH",
"314 525 OFFCURVE",
"338 526 OFFCURVE",
"361 526 CURVE SMOOTH",
"373 526 OFFCURVE",
"384 525 OFFCURVE",
"395 525 CURVE SMOOTH",
"450 523 OFFCURVE",
"478 515 OFFCURVE",
"473 489 CURVE SMOOTH",
"471 474 OFFCURVE",
"456 429 OFFCURVE",
"457 429 CURVE SMOOTH",
"460 429 OFFCURVE",
"462 430 OFFCURVE",
"463 432 CURVE SMOOTH",
"473 462 OFFCURVE",
"482 495 OFFCURVE",
"495 526 CURVE",
"495 527 OFFCURVE",
"500 534 OFFCURVE",
"494 534 CURVE SMOOTH",
"440 534 OFFCURVE",
"389 533 OFFCURVE",
"335 532 CURVE SMOOTH",
"307 531 OFFCURVE",
"281 531 OFFCURVE",
"253 531 CURVE SMOOTH",
"229 531 OFFCURVE",
"183 533 OFFCURVE",
"163 534 CURVE SMOOTH",
"160 534 OFFCURVE",
"157 530 OFFCURVE",
"157 527 CURVE SMOOTH",
"157 526 OFFCURVE",
"158 525 OFFCURVE",
"159 525 CURVE SMOOTH",
"172 525 OFFCURVE",
"191 526 OFFCURVE",
"206 526 CURVE SMOOTH",
"220 526 OFFCURVE",
"229 524 OFFCURVE",
"229 512 CURVE SMOOTH",
"229 508 OFFCURVE",
"228 502 OFFCURVE",
"226 495 CURVE SMOOTH",
"203 430 OFFCURVE",
"178 363 OFFCURVE",
"151 296 CURVE",
"113 296 LINE SMOOTH",
"102 296 OFFCURVE",
"89 285 OFFCURVE",
"89 282 CURVE",
"90 282 LINE SMOOTH",
"109 284 OFFCURVE",
"128 285 OFFCURVE",
"148 286 CURVE",
"121 220 OFFCURVE",
"93 155 OFFCURVE",
"66 93 CURVE SMOOTH",
"42 41 OFFCURVE",
"35 17 OFFCURVE",
"35 6 CURVE SMOOTH",
"35 -1 OFFCURVE",
"38 -2 OFFCURVE",
"42 -2 CURVE SMOOTH",
"73 -2 OFFCURVE",
"152 -3 OFFCURVE",
"227 -3 CURVE SMOOTH"
);
},
{
closed = 1;
nodes = (
"351 595 OFFCURVE",
"419 633 OFFCURVE",
"431 642 CURVE SMOOTH",
"434 644 OFFCURVE",
"428 656 OFFCURVE",
"426 654 CURVE",
"336 591 LINE SMOOTH",
"333 589 OFFCURVE",
"332 581 OFFCURVE",
"336 584 CURVE SMOOTH"
);
}
);
width = 443;
}
);
note = Eacute;
unicode = 00C9;
},
{
color = 11;
glyphname = Ebreve;
lastChange = "2021-08-02 16:25:37 +0000";
layers = (
{
background = {
paths = (
{
closed = 1;
nodes = (
"295 -3 OFFCURVE",
"359 -2 OFFCURVE",
"382 2 CURVE SMOOTH",
"393 4 OFFCURVE",
"411 64 OFFCURVE",
"422 97 CURVE SMOOTH",
"423 101 OFFCURVE",
"414 102 OFFCURVE",
"413 100 CURVE",
"408 66 OFFCURVE",
"387 37 OFFCURVE",
"382 33 CURVE SMOOTH",
"362 19 OFFCURVE",
"322 13 OFFCURVE",
"280 9 CURVE SMOOTH",
"258 7 OFFCURVE",
"233 7 OFFCURVE",
"208 7 CURVE SMOOTH",
"170 7 OFFCURVE",
"135 8 OFFCURVE",
"118 10 CURVE SMOOTH",
"84 13 OFFCURVE",
"73 22 OFFCURVE",
"73 39 CURVE SMOOTH",
"73 48 OFFCURVE",
"76 59 OFFCURVE",
"80 72 CURVE SMOOTH",
"98 128 OFFCURVE",
"130 209 OFFCURVE",
"163 287 CURVE",
"183 288 OFFCURVE",
"203 288 OFFCURVE",
"224 288 CURVE SMOOTH",
"285 288 LINE SMOOTH",
"332 287 OFFCURVE",
"344 278 OFFCURVE",
"344 260 CURVE SMOOTH",
"344 242 OFFCURVE",
"338 231 OFFCURVE",
"334 225 CURVE SMOOTH",
"332 222 OFFCURVE",
"343 224 OFFCURVE",
"344 227 CURVE SMOOTH",
"349 243 OFFCURVE",
"353 260 OFFCURVE",
"366 291 CURVE",
"366 292 OFFCURVE",
"371 299 OFFCURVE",
"365 299 CURVE SMOOTH",
"311 299 OFFCURVE",
"259 298 OFFCURVE",
"206 297 CURVE SMOOTH",
"193 296 OFFCURVE",
"179 296 OFFCURVE",
"166 296 CURVE",
"200 376 OFFCURVE",
"235 451 OFFCURVE",
"253 490 CURVE SMOOTH",
"261 506 OFFCURVE",
"269 519 OFFCURVE",
"293 522 CURVE SMOOTH",
"314 525 OFFCURVE",
"338 526 OFFCURVE",
"361 526 CURVE SMOOTH",
"373 526 OFFCURVE",
"384 525 OFFCURVE",
"395 525 CURVE SMOOTH",
"450 523 OFFCURVE",
"478 515 OFFCURVE",
"473 489 CURVE SMOOTH",
"471 474 OFFCURVE",
"456 429 OFFCURVE",
"457 429 CURVE SMOOTH",
"460 429 OFFCURVE",
"462 430 OFFCURVE",
"463 432 CURVE SMOOTH",
"473 462 OFFCURVE",
"482 495 OFFCURVE",
"495 526 CURVE",
"495 527 OFFCURVE",
"500 534 OFFCURVE",
"494 534 CURVE SMOOTH",
"440 534 OFFCURVE",
"389 533 OFFCURVE",
"335 532 CURVE SMOOTH",
"307 531 OFFCURVE",
"281 531 OFFCURVE",
"253 531 CURVE SMOOTH",
"229 531 OFFCURVE",
"183 533 OFFCURVE",
"163 534 CURVE SMOOTH",
"160 534 OFFCURVE",
"157 530 OFFCURVE",
"157 527 CURVE SMOOTH",
"157 526 OFFCURVE",
"158 525 OFFCURVE",
"159 525 CURVE SMOOTH",
"172 525 OFFCURVE",
"191 526 OFFCURVE",
"206 526 CURVE SMOOTH",
"220 526 OFFCURVE",
"229 524 OFFCURVE",
"229 512 CURVE SMOOTH",
"229 508 OFFCURVE",
"228 502 OFFCURVE",
"226 495 CURVE SMOOTH",
"203 430 OFFCURVE",
"178 363 OFFCURVE",
"151 296 CURVE",
"113 296 LINE SMOOTH",
"102 296 OFFCURVE",
"89 285 OFFCURVE",
"89 282 CURVE",
"90 282 LINE SMOOTH",
"109 284 OFFCURVE",
"128 285 OFFCURVE",
"148 286 CURVE",
"121 220 OFFCURVE",
"93 155 OFFCURVE",
"66 93 CURVE SMOOTH",
"42 41 OFFCURVE",
"35 17 OFFCURVE",
"35 6 CURVE SMOOTH",
"35 -1 OFFCURVE",
"38 -2 OFFCURVE",
"42 -2 CURVE SMOOTH",
"73 -2 OFFCURVE",
"152 -3 OFFCURVE",
"227 -3 CURVE SMOOTH"
);
},
{
closed = 1;
nodes = (
"401 583 OFFCURVE",
"432 604 OFFCURVE",
"451 628 CURVE SMOOTH",
"454 632 OFFCURVE",
"460 640 OFFCURVE",
"460 645 CURVE SMOOTH",
"460 647 OFFCURVE",
"459 647 OFFCURVE",
"457 647 CURVE SMOOTH",
"455 647 LINE",
"435 626 OFFCURVE",
"416 597 OFFCURVE",
"382 597 CURVE SMOOTH",
"356 597 OFFCURVE",
"350 618 OFFCURVE",
"350 640 CURVE SMOOTH",
"350 643 OFFCURVE",
"349 646 OFFCURVE",
"345 646 CURVE SMOOTH",
"335 646 OFFCURVE",
"327 636 OFFCURVE",
"327 626 CURVE SMOOTH",
"327 600 OFFCURVE",
"344 583 OFFCURVE",
"370 583 CURVE SMOOTH"
);
}
);
};
layerId = "DB049CBD-EE5A-4C6A-B8D5-3A4D87564362";
paths = (
{
closed = 1;
nodes = (
"295 -3 OFFCURVE",
"359 -2 OFFCURVE",
"382 2 CURVE SMOOTH",
"393 4 OFFCURVE",
"411 64 OFFCURVE",
"422 97 CURVE SMOOTH",
"423 101 OFFCURVE",
"414 102 OFFCURVE",
"413 100 CURVE",
"408 66 OFFCURVE",
"387 37 OFFCURVE",
"382 33 CURVE SMOOTH",
"362 19 OFFCURVE",
"322 13 OFFCURVE",
"280 9 CURVE SMOOTH",
"258 7 OFFCURVE",
"233 7 OFFCURVE",
"208 7 CURVE SMOOTH",
"170 7 OFFCURVE",
"135 8 OFFCURVE",
"118 10 CURVE SMOOTH",
"84 13 OFFCURVE",
"73 22 OFFCURVE",
"73 39 CURVE SMOOTH",
"73 48 OFFCURVE",
"76 59 OFFCURVE",
"80 72 CURVE SMOOTH",
"98 128 OFFCURVE",
"130 209 OFFCURVE",
"163 287 CURVE",
"183 288 OFFCURVE",
"203 288 OFFCURVE",
"224 288 CURVE SMOOTH",
"285 288 LINE SMOOTH",
"332 287 OFFCURVE",
"344 278 OFFCURVE",
"344 260 CURVE SMOOTH",
"344 242 OFFCURVE",
"338 231 OFFCURVE",
"334 225 CURVE SMOOTH",
"332 222 OFFCURVE",
"343 224 OFFCURVE",
"344 227 CURVE SMOOTH",
"349 243 OFFCURVE",
"353 260 OFFCURVE",
"366 291 CURVE",
"366 292 OFFCURVE",
"371 299 OFFCURVE",
"365 299 CURVE SMOOTH",
"311 299 OFFCURVE",
"259 298 OFFCURVE",
"206 297 CURVE SMOOTH",
"193 296 OFFCURVE",
"179 296 OFFCURVE",
"166 296 CURVE",
"200 376 OFFCURVE",
"235 451 OFFCURVE",
"253 490 CURVE SMOOTH",
"261 506 OFFCURVE",
"269 519 OFFCURVE",
"293 522 CURVE SMOOTH",
"314 525 OFFCURVE",
"338 526 OFFCURVE",
"361 526 CURVE SMOOTH",
"373 526 OFFCURVE",
"384 525 OFFCURVE",
"395 525 CURVE SMOOTH",
"450 523 OFFCURVE",
"478 515 OFFCURVE",
"473 489 CURVE SMOOTH",
"471 474 OFFCURVE",
"456 429 OFFCURVE",
"457 429 CURVE SMOOTH",
"460 429 OFFCURVE",
"462 430 OFFCURVE",
"463 432 CURVE SMOOTH",
"473 462 OFFCURVE",
"482 495 OFFCURVE",
"495 526 CURVE",
"495 527 OFFCURVE",
"500 534 OFFCURVE",
"494 534 CURVE SMOOTH",
"440 534 OFFCURVE",
"389 533 OFFCURVE",
"335 532 CURVE SMOOTH",
"307 531 OFFCURVE",
"281 531 OFFCURVE",
"253 531 CURVE SMOOTH",
"229 531 OFFCURVE",
"183 533 OFFCURVE",
"163 534 CURVE SMOOTH",
"160 534 OFFCURVE",
"157 530 OFFCURVE",
"157 527 CURVE SMOOTH",
"157 526 OFFCURVE",
"158 525 OFFCURVE",
"159 525 CURVE SMOOTH",
"172 525 OFFCURVE",
"191 526 OFFCURVE",
"206 526 CURVE SMOOTH",
"220 526 OFFCURVE",
"229 524 OFFCURVE",
"229 512 CURVE SMOOTH",
"229 508 OFFCURVE",
"228 502 OFFCURVE",
"226 495 CURVE SMOOTH",
"203 430 OFFCURVE",
"178 363 OFFCURVE",
"151 296 CURVE",
"113 296 LINE SMOOTH",
"102 296 OFFCURVE",
"89 285 OFFCURVE",
"89 282 CURVE",
"90 282 LINE SMOOTH",
"109 284 OFFCURVE",
"128 285 OFFCURVE",
"148 286 CURVE",
"121 220 OFFCURVE",
"93 155 OFFCURVE",
"66 93 CURVE SMOOTH",
"42 41 OFFCURVE",
"35 17 OFFCURVE",
"35 6 CURVE SMOOTH",
"35 -1 OFFCURVE",
"38 -2 OFFCURVE",
"42 -2 CURVE SMOOTH",
"73 -2 OFFCURVE",
"152 -3 OFFCURVE",
"227 -3 CURVE SMOOTH"
);
},
{
closed = 1;
nodes = (
"401 583 OFFCURVE",
"432 604 OFFCURVE",
"451 628 CURVE SMOOTH",
"454 632 OFFCURVE",
"460 640 OFFCURVE",
"460 645 CURVE SMOOTH",
"460 647 OFFCURVE",
"459 647 OFFCURVE",
"457 647 CURVE SMOOTH",
"455 647 LINE",
"435 626 OFFCURVE",
"416 597 OFFCURVE",
"382 597 CURVE SMOOTH",
"356 597 OFFCURVE",
"350 618 OFFCURVE",
"350 640 CURVE SMOOTH",
"350 643 OFFCURVE",
"349 646 OFFCURVE",
"345 646 CURVE SMOOTH",
"335 646 OFFCURVE",
"327 636 OFFCURVE",
"327 626 CURVE SMOOTH",
"327 600 OFFCURVE",
"344 583 OFFCURVE",
"370 583 CURVE SMOOTH"
);
}
);
width = 443;
}
);
note = Ebreve;
unicode = 0114;
},
{
color = 11;
glyphname = Ecaron;
lastChange = "2021-08-02 16:25:37 +0000";
layers = (
{
background = {
paths = (
{
closed = 1;
nodes = (
"295 -3 OFFCURVE",
"359 -2 OFFCURVE",
"382 2 CURVE SMOOTH",
"393 4 OFFCURVE",
"411 64 OFFCURVE",
"422 97 CURVE SMOOTH",
"423 101 OFFCURVE",
"414 102 OFFCURVE",
"413 100 CURVE",
"408 66 OFFCURVE",
"387 37 OFFCURVE",
"382 33 CURVE SMOOTH",
"362 19 OFFCURVE",
"322 13 OFFCURVE",
"280 9 CURVE SMOOTH",
"258 7 OFFCURVE",
"233 7 OFFCURVE",
"208 7 CURVE SMOOTH",
"170 7 OFFCURVE",
"135 8 OFFCURVE",
"118 10 CURVE SMOOTH",
"84 13 OFFCURVE",
"73 22 OFFCURVE",
"73 39 CURVE SMOOTH",
"73 48 OFFCURVE",
"76 59 OFFCURVE",
"80 72 CURVE SMOOTH",
"98 128 OFFCURVE",
"130 209 OFFCURVE",
"163 287 CURVE",
"183 288 OFFCURVE",
"203 288 OFFCURVE",
"224 288 CURVE SMOOTH",
"285 288 LINE SMOOTH",
"332 287 OFFCURVE",
"344 278 OFFCURVE",
"344 260 CURVE SMOOTH",
"344 242 OFFCURVE",
"338 231 OFFCURVE",
"334 225 CURVE SMOOTH",
"332 222 OFFCURVE",
"343 224 OFFCURVE",
"344 227 CURVE SMOOTH",
"349 243 OFFCURVE",
"353 260 OFFCURVE",
"366 291 CURVE",
"366 292 OFFCURVE",
"371 299 OFFCURVE",
"365 299 CURVE SMOOTH",
"311 299 OFFCURVE",
"259 298 OFFCURVE",
"206 297 CURVE SMOOTH",
"193 296 OFFCURVE",
"179 296 OFFCURVE",
"166 296 CURVE",
"200 376 OFFCURVE",
"235 451 OFFCURVE",
"253 490 CURVE SMOOTH",
"261 506 OFFCURVE",
"269 519 OFFCURVE",
"293 522 CURVE SMOOTH",
"314 525 OFFCURVE",
"338 526 OFFCURVE",
"361 526 CURVE SMOOTH",
"373 526 OFFCURVE",
"384 525 OFFCURVE",
"395 525 CURVE SMOOTH",
"450 523 OFFCURVE",
"478 515 OFFCURVE",
"473 489 CURVE SMOOTH",
"471 474 OFFCURVE",
"456 429 OFFCURVE",
"457 429 CURVE SMOOTH",
"460 429 OFFCURVE",
"462 430 OFFCURVE",
"463 432 CURVE SMOOTH",
"473 462 OFFCURVE",
"482 495 OFFCURVE",
"495 526 CURVE",
"495 527 OFFCURVE",
"500 534 OFFCURVE",
"494 534 CURVE SMOOTH",
"440 534 OFFCURVE",
"389 533 OFFCURVE",
"335 532 CURVE SMOOTH",
"307 531 OFFCURVE",
"281 531 OFFCURVE",
"253 531 CURVE SMOOTH",
"229 531 OFFCURVE",
"183 533 OFFCURVE",
"163 534 CURVE SMOOTH",
"160 534 OFFCURVE",
"157 530 OFFCURVE",
"157 527 CURVE SMOOTH",
"157 526 OFFCURVE",
"158 525 OFFCURVE",
"159 525 CURVE SMOOTH",
"172 525 OFFCURVE",
"191 526 OFFCURVE",
"206 526 CURVE SMOOTH",
"220 526 OFFCURVE",
"229 524 OFFCURVE",
"229 512 CURVE SMOOTH",
"229 508 OFFCURVE",
"228 502 OFFCURVE",
"226 495 CURVE SMOOTH",
"203 430 OFFCURVE",
"178 363 OFFCURVE",
"151 296 CURVE",
"113 296 LINE SMOOTH",
"102 296 OFFCURVE",
"89 285 OFFCURVE",
"89 282 CURVE",
"90 282 LINE SMOOTH",
"109 284 OFFCURVE",
"128 285 OFFCURVE",
"148 286 CURVE",
"121 220 OFFCURVE",
"93 155 OFFCURVE",
"66 93 CURVE SMOOTH",
"42 41 OFFCURVE",
"35 17 OFFCURVE",
"35 6 CURVE SMOOTH",
"35 -1 OFFCURVE",
"38 -2 OFFCURVE",
"42 -2 CURVE SMOOTH",
"73 -2 OFFCURVE",
"152 -3 OFFCURVE",
"227 -3 CURVE SMOOTH"
);
},
{
closed = 1;
nodes = (
"378 569 LINE",
"378 569 OFFCURVE",
"434 637 OFFCURVE",
"448 652 CURVE",
"451 653 OFFCURVE",
"450 665 OFFCURVE",
"447 665 CURVE",
"446 664 LINE SMOOTH",
"427 640 OFFCURVE",
"388 588 OFFCURVE",
"378 578 CURVE",
"373 587 OFFCURVE",
"347 653 OFFCURVE",
"347 661 CURVE",
"333 661 LINE",
"336 655 OFFCURVE",
"360 600 OFFCURVE",
"370 569 CURVE"
);
}
);
};
layerId = "DB049CBD-EE5A-4C6A-B8D5-3A4D87564362";
paths = (
{
closed = 1;
nodes = (
"295 -3 OFFCURVE",
"359 -2 OFFCURVE",
"382 2 CURVE SMOOTH",
"393 4 OFFCURVE",
"411 64 OFFCURVE",
"422 97 CURVE SMOOTH",
"423 101 OFFCURVE",
"414 102 OFFCURVE",
"413 100 CURVE",
"408 66 OFFCURVE",
"387 37 OFFCURVE",
"382 33 CURVE SMOOTH",
"362 19 OFFCURVE",
"322 13 OFFCURVE",
"280 9 CURVE SMOOTH",
"258 7 OFFCURVE",
"233 7 OFFCURVE",
"208 7 CURVE SMOOTH",
"170 7 OFFCURVE",
"135 8 OFFCURVE",
"118 10 CURVE SMOOTH",
"84 13 OFFCURVE",
"73 22 OFFCURVE",
"73 39 CURVE SMOOTH",
"73 48 OFFCURVE",
"76 59 OFFCURVE",
"80 72 CURVE SMOOTH",
"98 128 OFFCURVE",
"130 209 OFFCURVE",
"163 287 CURVE",
"183 288 OFFCURVE",
"203 288 OFFCURVE",
"224 288 CURVE SMOOTH",
"285 288 LINE SMOOTH",
"332 287 OFFCURVE",
"344 278 OFFCURVE",
"344 260 CURVE SMOOTH",
"344 242 OFFCURVE",
"338 231 OFFCURVE",
"334 225 CURVE SMOOTH",
"332 222 OFFCURVE",
"343 224 OFFCURVE",
"344 227 CURVE SMOOTH",
"349 243 OFFCURVE",
"353 260 OFFCURVE",
"366 291 CURVE",
"366 292 OFFCURVE",
"371 299 OFFCURVE",
"365 299 CURVE SMOOTH",
"311 299 OFFCURVE",
"259 298 OFFCURVE",
"206 297 CURVE SMOOTH",
"193 296 OFFCURVE",
"179 296 OFFCURVE",
"166 296 CURVE",
"200 376 OFFCURVE",
"235 451 OFFCURVE",
"253 490 CURVE SMOOTH",
"261 506 OFFCURVE",
"269 519 OFFCURVE",
"293 522 CURVE SMOOTH",
"314 525 OFFCURVE",
"338 526 OFFCURVE",
"361 526 CURVE SMOOTH",
"373 526 OFFCURVE",
"384 525 OFFCURVE",
"395 525 CURVE SMOOTH",
"450 523 OFFCURVE",
"478 515 OFFCURVE",
"473 489 CURVE SMOOTH",
"471 474 OFFCURVE",
"456 429 OFFCURVE",
"457 429 CURVE SMOOTH",
"460 429 OFFCURVE",
"462 430 OFFCURVE",
"463 432 CURVE SMOOTH",
"473 462 OFFCURVE",
"482 495 OFFCURVE",
"495 526 CURVE",
"495 527 OFFCURVE",
"500 534 OFFCURVE",
"494 534 CURVE SMOOTH",
"440 534 OFFCURVE",
"389 533 OFFCURVE",
"335 532 CURVE SMOOTH",
"307 531 OFFCURVE",
"281 531 OFFCURVE",
"253 531 CURVE SMOOTH",
"229 531 OFFCURVE",
"183 533 OFFCURVE",
"163 534 CURVE SMOOTH",
"160 534 OFFCURVE",
"157 530 OFFCURVE",
"157 527 CURVE SMOOTH",
"157 526 OFFCURVE",
"158 525 OFFCURVE",
"159 525 CURVE SMOOTH",
"172 525 OFFCURVE",
"191 526 OFFCURVE",
"206 526 CURVE SMOOTH",
"220 526 OFFCURVE",
"229 524 OFFCURVE",
"229 512 CURVE SMOOTH",
"229 508 OFFCURVE",
"228 502 OFFCURVE",
"226 495 CURVE SMOOTH",
"203 430 OFFCURVE",
"178 363 OFFCURVE",
"151 296 CURVE",
"113 296 LINE SMOOTH",
"102 296 OFFCURVE",
"89 285 OFFCURVE",
"89 282 CURVE",
"90 282 LINE SMOOTH",
"109 284 OFFCURVE",
"128 285 OFFCURVE",
"148 286 CURVE",
"121 220 OFFCURVE",
"93 155 OFFCURVE",
"66 93 CURVE SMOOTH",
"42 41 OFFCURVE",
"35 17 OFFCURVE",
"35 6 CURVE SMOOTH",
"35 -1 OFFCURVE",
"38 -2 OFFCURVE",
"42 -2 CURVE SMOOTH",
"73 -2 OFFCURVE",
"152 -3 OFFCURVE",
"227 -3 CURVE SMOOTH"
);
},
{
closed = 1;
nodes = (
"378 569 LINE",
"378 569 OFFCURVE",
"434 637 OFFCURVE",
"448 652 CURVE",
"451 653 OFFCURVE",
"450 665 OFFCURVE",
"447 665 CURVE",
"446 664 LINE SMOOTH",
"427 640 OFFCURVE",
"388 588 OFFCURVE",
"378 578 CURVE",
"373 587 OFFCURVE",
"347 653 OFFCURVE",
"347 661 CURVE",
"333 661 LINE",
"336 655 OFFCURVE",
"360 600 OFFCURVE",
"370 569 CURVE"
);
}
);
width = 443;
}
);
note = Ecaron;
unicode = 011A;
},
{
color = 11;
glyphname = Ecircumflex;
lastChange = "2021-08-02 16:25:37 +0000";
layers = (
{
background = {
paths = (
{
closed = 1;
nodes = (
"295 -3 OFFCURVE",
"359 -2 OFFCURVE",
"382 2 CURVE SMOOTH",
"393 4 OFFCURVE",
"411 64 OFFCURVE",
"422 97 CURVE SMOOTH",
"423 101 OFFCURVE",
"414 102 OFFCURVE",
"413 100 CURVE",
"408 66 OFFCURVE",
"387 37 OFFCURVE",
"382 33 CURVE SMOOTH",
"362 19 OFFCURVE",
"322 13 OFFCURVE",
"280 9 CURVE SMOOTH",
"258 7 OFFCURVE",
"233 7 OFFCURVE",
"208 7 CURVE SMOOTH",
"170 7 OFFCURVE",
"135 8 OFFCURVE",
"118 10 CURVE SMOOTH",
"84 13 OFFCURVE",
"73 22 OFFCURVE",
"73 39 CURVE SMOOTH",
"73 48 OFFCURVE",
"76 59 OFFCURVE",
"80 72 CURVE SMOOTH",
"98 128 OFFCURVE",
"130 209 OFFCURVE",
"163 287 CURVE",
"183 288 OFFCURVE",
"203 288 OFFCURVE",
"224 288 CURVE SMOOTH",
"285 288 LINE SMOOTH",
"332 287 OFFCURVE",
"344 278 OFFCURVE",
"344 260 CURVE SMOOTH",
"344 242 OFFCURVE",
"338 231 OFFCURVE",
"334 225 CURVE SMOOTH",
"332 222 OFFCURVE",
"343 224 OFFCURVE",
"344 227 CURVE SMOOTH",
"349 243 OFFCURVE",
"353 260 OFFCURVE",
"366 291 CURVE",
"366 292 OFFCURVE",
"371 299 OFFCURVE",
"365 299 CURVE SMOOTH",
"311 299 OFFCURVE",
"259 298 OFFCURVE",
"206 297 CURVE SMOOTH",
"193 296 OFFCURVE",
"179 296 OFFCURVE",
"166 296 CURVE",
"200 376 OFFCURVE",
"235 451 OFFCURVE",
"253 490 CURVE SMOOTH",
"261 506 OFFCURVE",
"269 519 OFFCURVE",
"293 522 CURVE SMOOTH",
"314 525 OFFCURVE",
"338 526 OFFCURVE",
"361 526 CURVE SMOOTH",
"373 526 OFFCURVE",
"384 525 OFFCURVE",
"395 525 CURVE SMOOTH",
"450 523 OFFCURVE",
"478 515 OFFCURVE",
"473 489 CURVE SMOOTH",
"471 474 OFFCURVE",
"456 429 OFFCURVE",
"457 429 CURVE SMOOTH",
"460 429 OFFCURVE",
"462 430 OFFCURVE",
"463 432 CURVE SMOOTH",
"473 462 OFFCURVE",
"482 495 OFFCURVE",
"495 526 CURVE",
"495 527 OFFCURVE",
"500 534 OFFCURVE",
"494 534 CURVE SMOOTH",
"440 534 OFFCURVE",
"389 533 OFFCURVE",
"335 532 CURVE SMOOTH",
"307 531 OFFCURVE",
"281 531 OFFCURVE",
"253 531 CURVE SMOOTH",
"229 531 OFFCURVE",
"183 533 OFFCURVE",
"163 534 CURVE SMOOTH",
"160 534 OFFCURVE",
"157 530 OFFCURVE",
"157 527 CURVE SMOOTH",
"157 526 OFFCURVE",
"158 525 OFFCURVE",
"159 525 CURVE SMOOTH",
"172 525 OFFCURVE",
"191 526 OFFCURVE",
"206 526 CURVE SMOOTH",
"220 526 OFFCURVE",
"229 524 OFFCURVE",
"229 512 CURVE SMOOTH",
"229 508 OFFCURVE",
"228 502 OFFCURVE",
"226 495 CURVE SMOOTH",
"203 430 OFFCURVE",
"178 363 OFFCURVE",
"151 296 CURVE",
"113 296 LINE SMOOTH",
"102 296 OFFCURVE",
"89 285 OFFCURVE",
"89 282 CURVE",
"90 282 LINE SMOOTH",
"109 284 OFFCURVE",
"128 285 OFFCURVE",
"148 286 CURVE",
"121 220 OFFCURVE",
"93 155 OFFCURVE",
"66 93 CURVE SMOOTH",
"42 41 OFFCURVE",
"35 17 OFFCURVE",
"35 6 CURVE SMOOTH",
"35 -1 OFFCURVE",
"38 -2 OFFCURVE",
"42 -2 CURVE SMOOTH",
"73 -2 OFFCURVE",
"152 -3 OFFCURVE",
"227 -3 CURVE SMOOTH"
);
},
{
closed = 1;
nodes = (
"292 553 LINE SMOOTH",
"311 577 OFFCURVE",
"350 629 OFFCURVE",
"360 639 CURVE",
"365 630 OFFCURVE",
"391 564 OFFCURVE",
"391 556 CURVE",
"405 556 LINE",
"402 562 OFFCURVE",
"378 617 OFFCURVE",
"368 648 CURVE",
"360 648 LINE",
"360 648 OFFCURVE",
"304 580 OFFCURVE",
"290 565 CURVE",
"287 564 OFFCURVE",
"288 552 OFFCURVE",
"291 552 CURVE"
);
}
);
};
layerId = "DB049CBD-EE5A-4C6A-B8D5-3A4D87564362";
paths = (
{
closed = 1;
nodes = (
"295 -3 OFFCURVE",
"359 -2 OFFCURVE",
"382 2 CURVE SMOOTH",
"393 4 OFFCURVE",
"411 64 OFFCURVE",
"422 97 CURVE SMOOTH",
"423 101 OFFCURVE",
"414 102 OFFCURVE",
"413 100 CURVE",
"408 66 OFFCURVE",
"387 37 OFFCURVE",
"382 33 CURVE SMOOTH",
"362 19 OFFCURVE",
"322 13 OFFCURVE",
"280 9 CURVE SMOOTH",
"258 7 OFFCURVE",
"233 7 OFFCURVE",
"208 7 CURVE SMOOTH",
"170 7 OFFCURVE",
"135 8 OFFCURVE",
"118 10 CURVE SMOOTH",
"84 13 OFFCURVE",
"73 22 OFFCURVE",
"73 39 CURVE SMOOTH",
"73 48 OFFCURVE",
"76 59 OFFCURVE",
"80 72 CURVE SMOOTH",
"98 128 OFFCURVE",
"130 209 OFFCURVE",
"163 287 CURVE",
"183 288 OFFCURVE",
"203 288 OFFCURVE",
"224 288 CURVE SMOOTH",
"285 288 LINE SMOOTH",
"332 287 OFFCURVE",
"344 278 OFFCURVE",
"344 260 CURVE SMOOTH",
"344 242 OFFCURVE",
"338 231 OFFCURVE",
"334 225 CURVE SMOOTH",
"332 222 OFFCURVE",
"343 224 OFFCURVE",
"344 227 CURVE SMOOTH",
"349 243 OFFCURVE",
"353 260 OFFCURVE",
"366 291 CURVE",
"366 292 OFFCURVE",
"371 299 OFFCURVE",
"365 299 CURVE SMOOTH",
"311 299 OFFCURVE",
"259 298 OFFCURVE",
"206 297 CURVE SMOOTH",
"193 296 OFFCURVE",
"179 296 OFFCURVE",
"166 296 CURVE",
"200 376 OFFCURVE",
"235 451 OFFCURVE",
"253 490 CURVE SMOOTH",
"261 506 OFFCURVE",
"269 519 OFFCURVE",
"293 522 CURVE SMOOTH",
"314 525 OFFCURVE",
"338 526 OFFCURVE",
"361 526 CURVE SMOOTH",
"373 526 OFFCURVE",
"384 525 OFFCURVE",
"395 525 CURVE SMOOTH",
"450 523 OFFCURVE",
"478 515 OFFCURVE",
"473 489 CURVE SMOOTH",
"471 474 OFFCURVE",
"456 429 OFFCURVE",
"457 429 CURVE SMOOTH",
"460 429 OFFCURVE",
"462 430 OFFCURVE",
"463 432 CURVE SMOOTH",
"473 462 OFFCURVE",
"482 495 OFFCURVE",
"495 526 CURVE",
"495 527 OFFCURVE",
"500 534 OFFCURVE",
"494 534 CURVE SMOOTH",
"440 534 OFFCURVE",
"389 533 OFFCURVE",
"335 532 CURVE SMOOTH",
"307 531 OFFCURVE",
"281 531 OFFCURVE",
"253 531 CURVE SMOOTH",
"229 531 OFFCURVE",
"183 533 OFFCURVE",
"163 534 CURVE SMOOTH",
"160 534 OFFCURVE",
"157 530 OFFCURVE",
"157 527 CURVE SMOOTH",
"157 526 OFFCURVE",
"158 525 OFFCURVE",
"159 525 CURVE SMOOTH",
"172 525 OFFCURVE",
"191 526 OFFCURVE",
"206 526 CURVE SMOOTH",
"220 526 OFFCURVE",
"229 524 OFFCURVE",
"229 512 CURVE SMOOTH",
"229 508 OFFCURVE",
"228 502 OFFCURVE",
"226 495 CURVE SMOOTH",
"203 430 OFFCURVE",
"178 363 OFFCURVE",
"151 296 CURVE",
"113 296 LINE SMOOTH",
"102 296 OFFCURVE",
"89 285 OFFCURVE",
"89 282 CURVE",
"90 282 LINE SMOOTH",
"109 284 OFFCURVE",
"128 285 OFFCURVE",
"148 286 CURVE",
"121 220 OFFCURVE",
"93 155 OFFCURVE",
"66 93 CURVE SMOOTH",
"42 41 OFFCURVE",
"35 17 OFFCURVE",
"35 6 CURVE SMOOTH",
"35 -1 OFFCURVE",
"38 -2 OFFCURVE",
"42 -2 CURVE SMOOTH",
"73 -2 OFFCURVE",
"152 -3 OFFCURVE",
"227 -3 CURVE SMOOTH"
);
},
{
closed = 1;
nodes = (
"292 553 LINE SMOOTH",
"311 577 OFFCURVE",
"350 629 OFFCURVE",
"360 639 CURVE",
"365 630 OFFCURVE",
"391 564 OFFCURVE",
"391 556 CURVE",
"405 556 LINE",
"402 562 OFFCURVE",
"378 617 OFFCURVE",
"368 648 CURVE",
"360 648 LINE",
"360 648 OFFCURVE",
"304 580 OFFCURVE",
"290 565 CURVE",
"287 564 OFFCURVE",
"288 552 OFFCURVE",
"291 552 CURVE"
);
}
);
width = 443;
}
);
note = Ecircumflex;
unicode = 00CA;
},
{
color = 11;
glyphname = Edieresis;
lastChange = "2021-08-02 16:25:37 +0000";
layers = (
{
background = {
paths = (
{
closed = 1;
nodes = (
"295 -3 OFFCURVE",
"359 -2 OFFCURVE",
"382 2 CURVE SMOOTH",
"393 4 OFFCURVE",
"411 64 OFFCURVE",
"422 97 CURVE SMOOTH",
"423 101 OFFCURVE",
"414 102 OFFCURVE",
"413 100 CURVE",
"408 66 OFFCURVE",
"387 37 OFFCURVE",
"382 33 CURVE SMOOTH",
"362 19 OFFCURVE",
"322 13 OFFCURVE",
"280 9 CURVE SMOOTH",
"258 7 OFFCURVE",
"233 7 OFFCURVE",
"208 7 CURVE SMOOTH",
"170 7 OFFCURVE",
"135 8 OFFCURVE",
"118 10 CURVE SMOOTH",
"84 13 OFFCURVE",
"73 22 OFFCURVE",
"73 39 CURVE SMOOTH",
"73 48 OFFCURVE",
"76 59 OFFCURVE",
"80 72 CURVE SMOOTH",
"98 128 OFFCURVE",
"130 209 OFFCURVE",
"163 287 CURVE",
"183 288 OFFCURVE",
"203 288 OFFCURVE",
"224 288 CURVE SMOOTH",
"285 288 LINE SMOOTH",
"332 287 OFFCURVE",
"344 278 OFFCURVE",
"344 260 CURVE SMOOTH",
"344 242 OFFCURVE",
"338 231 OFFCURVE",
"334 225 CURVE SMOOTH",
"332 222 OFFCURVE",
"343 224 OFFCURVE",
"344 227 CURVE SMOOTH",
"349 243 OFFCURVE",
"353 260 OFFCURVE",
"366 291 CURVE",
"366 292 OFFCURVE",
"371 299 OFFCURVE",
"365 299 CURVE SMOOTH",
"311 299 OFFCURVE",
"259 298 OFFCURVE",
"206 297 CURVE SMOOTH",
"193 296 OFFCURVE",
"179 296 OFFCURVE",
"166 296 CURVE",
"200 376 OFFCURVE",
"235 451 OFFCURVE",
"253 490 CURVE SMOOTH",
"261 506 OFFCURVE",
"269 519 OFFCURVE",
"293 522 CURVE SMOOTH",
"314 525 OFFCURVE",
"338 526 OFFCURVE",
"361 526 CURVE SMOOTH",
"373 526 OFFCURVE",
"384 525 OFFCURVE",
"395 525 CURVE SMOOTH",
"450 523 OFFCURVE",
"478 515 OFFCURVE",
"473 489 CURVE SMOOTH",
"471 474 OFFCURVE",
"456 429 OFFCURVE",
"457 429 CURVE SMOOTH",
"460 429 OFFCURVE",
"462 430 OFFCURVE",
"463 432 CURVE SMOOTH",
"473 462 OFFCURVE",
"482 495 OFFCURVE",
"495 526 CURVE",
"495 527 OFFCURVE",
"500 534 OFFCURVE",
"494 534 CURVE SMOOTH",
"440 534 OFFCURVE",
"389 533 OFFCURVE",
"335 532 CURVE SMOOTH",
"307 531 OFFCURVE",
"281 531 OFFCURVE",
"253 531 CURVE SMOOTH",
"229 531 OFFCURVE",
"183 533 OFFCURVE",
"163 534 CURVE SMOOTH",
"160 534 OFFCURVE",
"157 530 OFFCURVE",
"157 527 CURVE SMOOTH",
"157 526 OFFCURVE",
"158 525 OFFCURVE",
"159 525 CURVE SMOOTH",
"172 525 OFFCURVE",
"191 526 OFFCURVE",
"206 526 CURVE SMOOTH",
"220 526 OFFCURVE",
"229 524 OFFCURVE",
"229 512 CURVE SMOOTH",
"229 508 OFFCURVE",
"228 502 OFFCURVE",
"226 495 CURVE SMOOTH",
"203 430 OFFCURVE",
"178 363 OFFCURVE",
"151 296 CURVE",
"113 296 LINE SMOOTH",
"102 296 OFFCURVE",
"89 285 OFFCURVE",
"89 282 CURVE",
"90 282 LINE SMOOTH",
"109 284 OFFCURVE",
"128 285 OFFCURVE",
"148 286 CURVE",
"121 220 OFFCURVE",
"93 155 OFFCURVE",
"66 93 CURVE SMOOTH",
"42 41 OFFCURVE",
"35 17 OFFCURVE",
"35 6 CURVE SMOOTH",
"35 -1 OFFCURVE",
"38 -2 OFFCURVE",
"42 -2 CURVE SMOOTH",
"73 -2 OFFCURVE",
"152 -3 OFFCURVE",
"227 -3 CURVE SMOOTH"
);
},
{
closed = 1;
nodes = (
"314 578 OFFCURVE",
"317 579 OFFCURVE",
"320 583 CURVE SMOOTH",
"326 589 OFFCURVE",
"336 604 OFFCURVE",
"336 613 CURVE SMOOTH",
"336 625 OFFCURVE",
"305 611 OFFCURVE",
"301 593 CURVE",
"298 585 OFFCURVE",
"304 578 OFFCURVE",
"310 578 CURVE SMOOTH"
);
},
{
closed = 1;
nodes = (
"394 578 OFFCURVE",
"398 579 OFFCURVE",
"401 583 CURVE SMOOTH",
"407 589 OFFCURVE",
"415 603 OFFCURVE",
"416 612 CURVE SMOOTH",
"416 616 OFFCURVE",
"414 618 OFFCURVE",
"410 618 CURVE SMOOTH",
"400 618 OFFCURVE",
"380 605 OFFCURVE",
"380 590 CURVE SMOOTH",
"380 583 OFFCURVE",
"385 578 OFFCURVE",
"391 578 CURVE SMOOTH"
);
}
);
};
layerId = "DB049CBD-EE5A-4C6A-B8D5-3A4D87564362";
paths = (
{
closed = 1;
nodes = (
"295 -3 OFFCURVE",
"359 -2 OFFCURVE",
"382 2 CURVE SMOOTH",
"393 4 OFFCURVE",
"411 64 OFFCURVE",
"422 97 CURVE SMOOTH",
"423 101 OFFCURVE",
"414 102 OFFCURVE",
"413 100 CURVE",
"408 66 OFFCURVE",
"387 37 OFFCURVE",
"382 33 CURVE SMOOTH",
"362 19 OFFCURVE",
"322 13 OFFCURVE",
"280 9 CURVE SMOOTH",
"258 7 OFFCURVE",
"233 7 OFFCURVE",
"208 7 CURVE SMOOTH",
"170 7 OFFCURVE",
"135 8 OFFCURVE",
"118 10 CURVE SMOOTH",
"84 13 OFFCURVE",
"73 22 OFFCURVE",
"73 39 CURVE SMOOTH",
"73 48 OFFCURVE",
"76 59 OFFCURVE",
"80 72 CURVE SMOOTH",
"98 128 OFFCURVE",
"130 209 OFFCURVE",
"163 287 CURVE",
"183 288 OFFCURVE",
"203 288 OFFCURVE",
"224 288 CURVE SMOOTH",
"285 288 LINE SMOOTH",
"332 287 OFFCURVE",
"344 278 OFFCURVE",
"344 260 CURVE SMOOTH",
"344 242 OFFCURVE",
"338 231 OFFCURVE",
"334 225 CURVE SMOOTH",
"332 222 OFFCURVE",
"343 224 OFFCURVE",
"344 227 CURVE SMOOTH",
"349 243 OFFCURVE",
"353 260 OFFCURVE",
"366 291 CURVE",
"366 292 OFFCURVE",
"371 299 OFFCURVE",
"365 299 CURVE SMOOTH",
"311 299 OFFCURVE",
"259 298 OFFCURVE",
"206 297 CURVE SMOOTH",
"193 296 OFFCURVE",
"179 296 OFFCURVE",
"166 296 CURVE",
"200 376 OFFCURVE",
"235 451 OFFCURVE",
"253 490 CURVE SMOOTH",
"261 506 OFFCURVE",
"269 519 OFFCURVE",
"293 522 CURVE SMOOTH",
"314 525 OFFCURVE",
"338 526 OFFCURVE",
"361 526 CURVE SMOOTH",
"373 526 OFFCURVE",
"384 525 OFFCURVE",
"395 525 CURVE SMOOTH",
"450 523 OFFCURVE",
"478 515 OFFCURVE",
"473 489 CURVE SMOOTH",
"471 474 OFFCURVE",
"456 429 OFFCURVE",
"457 429 CURVE SMOOTH",
"460 429 OFFCURVE",
"462 430 OFFCURVE",
"463 432 CURVE SMOOTH",
"473 462 OFFCURVE",
"482 495 OFFCURVE",
"495 526 CURVE",
"495 527 OFFCURVE",
"500 534 OFFCURVE",
"494 534 CURVE SMOOTH",
"440 534 OFFCURVE",
"389 533 OFFCURVE",
"335 532 CURVE SMOOTH",
"307 531 OFFCURVE",
"281 531 OFFCURVE",
"253 531 CURVE SMOOTH",
"229 531 OFFCURVE",
"183 533 OFFCURVE",
"163 534 CURVE SMOOTH",
"160 534 OFFCURVE",
"157 530 OFFCURVE",
"157 527 CURVE SMOOTH",
"157 526 OFFCURVE",
"158 525 OFFCURVE",
"159 525 CURVE SMOOTH",
"172 525 OFFCURVE",
"191 526 OFFCURVE",
"206 526 CURVE SMOOTH",
"220 526 OFFCURVE",
"229 524 OFFCURVE",
"229 512 CURVE SMOOTH",
"229 508 OFFCURVE",
"228 502 OFFCURVE",
"226 495 CURVE SMOOTH",
"203 430 OFFCURVE",
"178 363 OFFCURVE",
"151 296 CURVE",
"113 296 LINE SMOOTH",
"102 296 OFFCURVE",
"89 285 OFFCURVE",
"89 282 CURVE",
"90 282 LINE SMOOTH",
"109 284 OFFCURVE",
"128 285 OFFCURVE",
"148 286 CURVE",
"121 220 OFFCURVE",
"93 155 OFFCURVE",
"66 93 CURVE SMOOTH",
"42 41 OFFCURVE",
"35 17 OFFCURVE",
"35 6 CURVE SMOOTH",
"35 -1 OFFCURVE",
"38 -2 OFFCURVE",
"42 -2 CURVE SMOOTH",
"73 -2 OFFCURVE",
"152 -3 OFFCURVE",
"227 -3 CURVE SMOOTH"
);
},
{
closed = 1;
nodes = (
"314 578 OFFCURVE",
"317 579 OFFCURVE",
"320 583 CURVE SMOOTH",
"326 589 OFFCURVE",
"336 604 OFFCURVE",
"336 613 CURVE SMOOTH",
"336 625 OFFCURVE",
"305 611 OFFCURVE",
"301 593 CURVE",
"298 585 OFFCURVE",
"304 578 OFFCURVE",
"310 578 CURVE SMOOTH"
);
},
{
closed = 1;
nodes = (
"394 578 OFFCURVE",
"398 579 OFFCURVE",
"401 583 CURVE SMOOTH",
"407 589 OFFCURVE",
"415 603 OFFCURVE",
"416 612 CURVE SMOOTH",
"416 616 OFFCURVE",
"414 618 OFFCURVE",
"410 618 CURVE SMOOTH",
"400 618 OFFCURVE",
"380 605 OFFCURVE",
"380 590 CURVE SMOOTH",
"380 583 OFFCURVE",
"385 578 OFFCURVE",
"391 578 CURVE SMOOTH"
);
}
);
width = 443;
}
);
note = Edieresis;
unicode = 00CB;
},
{
color = 11;
glyphname = Edotaccent;
lastChange = "2021-08-02 16:25:37 +0000";
layers = (
{
background = {
paths = (
{
closed = 1;
nodes = (
"295 -3 OFFCURVE",
"359 -2 OFFCURVE",
"382 2 CURVE SMOOTH",
"393 4 OFFCURVE",
"411 64 OFFCURVE",
"422 97 CURVE SMOOTH",
"423 101 OFFCURVE",
"414 102 OFFCURVE",
"413 100 CURVE",
"408 66 OFFCURVE",
"387 37 OFFCURVE",
"382 33 CURVE SMOOTH",
"362 19 OFFCURVE",
"322 13 OFFCURVE",
"280 9 CURVE SMOOTH",
"258 7 OFFCURVE",
"233 7 OFFCURVE",
"208 7 CURVE SMOOTH",
"170 7 OFFCURVE",
"135 8 OFFCURVE",
"118 10 CURVE SMOOTH",
"84 13 OFFCURVE",
"73 22 OFFCURVE",
"73 39 CURVE SMOOTH",
"73 48 OFFCURVE",
"76 59 OFFCURVE",
"80 72 CURVE SMOOTH",
"98 128 OFFCURVE",
"130 209 OFFCURVE",
"163 287 CURVE",
"183 288 OFFCURVE",
"203 288 OFFCURVE",
"224 288 CURVE SMOOTH",
"285 288 LINE SMOOTH",
"332 287 OFFCURVE",
"344 278 OFFCURVE",
"344 260 CURVE SMOOTH",
"344 242 OFFCURVE",
"338 231 OFFCURVE",
"334 225 CURVE SMOOTH",
"332 222 OFFCURVE",
"343 224 OFFCURVE",
"344 227 CURVE SMOOTH",
"349 243 OFFCURVE",
"353 260 OFFCURVE",
"366 291 CURVE",
"366 292 OFFCURVE",
"371 299 OFFCURVE",
"365 299 CURVE SMOOTH",
"311 299 OFFCURVE",
"259 298 OFFCURVE",
"206 297 CURVE SMOOTH",
"193 296 OFFCURVE",
"179 296 OFFCURVE",
"166 296 CURVE",
"200 376 OFFCURVE",
"235 451 OFFCURVE",
"253 490 CURVE SMOOTH",
"261 506 OFFCURVE",
"269 519 OFFCURVE",
"293 522 CURVE SMOOTH",
"314 525 OFFCURVE",
"338 526 OFFCURVE",
"361 526 CURVE SMOOTH",
"373 526 OFFCURVE",
"384 525 OFFCURVE",
"395 525 CURVE SMOOTH",
"450 523 OFFCURVE",
"478 515 OFFCURVE",
"473 489 CURVE SMOOTH",
"471 474 OFFCURVE",
"456 429 OFFCURVE",
"457 429 CURVE SMOOTH",
"460 429 OFFCURVE",
"462 430 OFFCURVE",
"463 432 CURVE SMOOTH",
"473 462 OFFCURVE",
"482 495 OFFCURVE",
"495 526 CURVE",
"495 527 OFFCURVE",
"500 534 OFFCURVE",
"494 534 CURVE SMOOTH",
"440 534 OFFCURVE",
"389 533 OFFCURVE",
"335 532 CURVE SMOOTH",
"307 531 OFFCURVE",
"281 531 OFFCURVE",
"253 531 CURVE SMOOTH",
"229 531 OFFCURVE",
"183 533 OFFCURVE",
"163 534 CURVE SMOOTH",
"160 534 OFFCURVE",
"157 530 OFFCURVE",
"157 527 CURVE SMOOTH",
"157 526 OFFCURVE",
"158 525 OFFCURVE",
"159 525 CURVE SMOOTH",
"172 525 OFFCURVE",
"191 526 OFFCURVE",
"206 526 CURVE SMOOTH",
"220 526 OFFCURVE",
"229 524 OFFCURVE",
"229 512 CURVE SMOOTH",
"229 508 OFFCURVE",
"228 502 OFFCURVE",
"226 495 CURVE SMOOTH",
"203 430 OFFCURVE",
"178 363 OFFCURVE",
"151 296 CURVE",
"113 296 LINE SMOOTH",
"102 296 OFFCURVE",
"89 285 OFFCURVE",
"89 282 CURVE",
"90 282 LINE SMOOTH",
"109 284 OFFCURVE",
"128 285 OFFCURVE",
"148 286 CURVE",
"121 220 OFFCURVE",
"93 155 OFFCURVE",
"66 93 CURVE SMOOTH",
"42 41 OFFCURVE",
"35 17 OFFCURVE",
"35 6 CURVE SMOOTH",
"35 -1 OFFCURVE",
"38 -2 OFFCURVE",
"42 -2 CURVE SMOOTH",
"73 -2 OFFCURVE",
"152 -3 OFFCURVE",
"227 -3 CURVE SMOOTH"
);
},
{
closed = 1;
nodes = (
"367 586 OFFCURVE",
"372 587 OFFCURVE",
"376 592 CURVE SMOOTH",
"384 602 OFFCURVE",
"396 623 OFFCURVE",
"396 634 CURVE SMOOTH",
"396 638 OFFCURVE",
"392 640 OFFCURVE",
"388 640 CURVE SMOOTH",
"374 640 OFFCURVE",
"347 624 OFFCURVE",
"347 602 CURVE SMOOTH",
"347 593 OFFCURVE",
"354 586 OFFCURVE",
"363 586 CURVE SMOOTH"
);
}
);
};
layerId = "DB049CBD-EE5A-4C6A-B8D5-3A4D87564362";
paths = (
{
closed = 1;
nodes = (
"295 -3 OFFCURVE",
"359 -2 OFFCURVE",
"382 2 CURVE SMOOTH",
"393 4 OFFCURVE",
"411 64 OFFCURVE",
"422 97 CURVE SMOOTH",
"423 101 OFFCURVE",
"414 102 OFFCURVE",
"413 100 CURVE",
"408 66 OFFCURVE",
"387 37 OFFCURVE",
"382 33 CURVE SMOOTH",
"362 19 OFFCURVE",
"322 13 OFFCURVE",
"280 9 CURVE SMOOTH",
"258 7 OFFCURVE",
"233 7 OFFCURVE",
"208 7 CURVE SMOOTH",
"170 7 OFFCURVE",
"135 8 OFFCURVE",
"118 10 CURVE SMOOTH",
"84 13 OFFCURVE",
"73 22 OFFCURVE",
"73 39 CURVE SMOOTH",
"73 48 OFFCURVE",
"76 59 OFFCURVE",
"80 72 CURVE SMOOTH",
"98 128 OFFCURVE",
"130 209 OFFCURVE",
"163 287 CURVE",
"183 288 OFFCURVE",
"203 288 OFFCURVE",
"224 288 CURVE SMOOTH",
"285 288 LINE SMOOTH",
"332 287 OFFCURVE",
"344 278 OFFCURVE",
"344 260 CURVE SMOOTH",
"344 242 OFFCURVE",
"338 231 OFFCURVE",
"334 225 CURVE SMOOTH",
"332 222 OFFCURVE",
"343 224 OFFCURVE",
"344 227 CURVE SMOOTH",
"349 243 OFFCURVE",
"353 260 OFFCURVE",
"366 291 CURVE",
"366 292 OFFCURVE",
"371 299 OFFCURVE",
"365 299 CURVE SMOOTH",
"311 299 OFFCURVE",
"259 298 OFFCURVE",
"206 297 CURVE SMOOTH",
"193 296 OFFCURVE",
"179 296 OFFCURVE",
"166 296 CURVE",
"200 376 OFFCURVE",
"235 451 OFFCURVE",
"253 490 CURVE SMOOTH",
"261 506 OFFCURVE",
"269 519 OFFCURVE",
"293 522 CURVE SMOOTH",
"314 525 OFFCURVE",
"338 526 OFFCURVE",
"361 526 CURVE SMOOTH",
"373 526 OFFCURVE",
"384 525 OFFCURVE",
"395 525 CURVE SMOOTH",
"450 523 OFFCURVE",
"478 515 OFFCURVE",
"473 489 CURVE SMOOTH",
"471 474 OFFCURVE",
"456 429 OFFCURVE",
"457 429 CURVE SMOOTH",
"460 429 OFFCURVE",
"462 430 OFFCURVE",
"463 432 CURVE SMOOTH",
"473 462 OFFCURVE",
"482 495 OFFCURVE",
"495 526 CURVE",
"495 527 OFFCURVE",
"500 534 OFFCURVE",
"494 534 CURVE SMOOTH",
"440 534 OFFCURVE",
"389 533 OFFCURVE",
"335 532 CURVE SMOOTH",
"307 531 OFFCURVE",
"281 531 OFFCURVE",
"253 531 CURVE SMOOTH",
"229 531 OFFCURVE",
"183 533 OFFCURVE",
"163 534 CURVE SMOOTH",
"160 534 OFFCURVE",
"157 530 OFFCURVE",
"157 527 CURVE SMOOTH",
"157 526 OFFCURVE",
"158 525 OFFCURVE",
"159 525 CURVE SMOOTH",
"172 525 OFFCURVE",
"191 526 OFFCURVE",
"206 526 CURVE SMOOTH",
"220 526 OFFCURVE",
"229 524 OFFCURVE",
"229 512 CURVE SMOOTH",
"229 508 OFFCURVE",
"228 502 OFFCURVE",
"226 495 CURVE SMOOTH",
"203 430 OFFCURVE",
"178 363 OFFCURVE",
"151 296 CURVE",
"113 296 LINE SMOOTH",
"102 296 OFFCURVE",
"89 285 OFFCURVE",
"89 282 CURVE",
"90 282 LINE SMOOTH",
"109 284 OFFCURVE",
"128 285 OFFCURVE",
"148 286 CURVE",
"121 220 OFFCURVE",
"93 155 OFFCURVE",
"66 93 CURVE SMOOTH",
"42 41 OFFCURVE",
"35 17 OFFCURVE",
"35 6 CURVE SMOOTH",
"35 -1 OFFCURVE",
"38 -2 OFFCURVE",
"42 -2 CURVE SMOOTH",
"73 -2 OFFCURVE",
"152 -3 OFFCURVE",
"227 -3 CURVE SMOOTH"
);
},
{
closed = 1;
nodes = (
"367 586 OFFCURVE",
"372 587 OFFCURVE",
"376 592 CURVE SMOOTH",
"384 602 OFFCURVE",
"396 623 OFFCURVE",
"396 634 CURVE SMOOTH",
"396 638 OFFCURVE",
"392 640 OFFCURVE",
"388 640 CURVE SMOOTH",
"374 640 OFFCURVE",
"347 624 OFFCURVE",
"347 602 CURVE SMOOTH",
"347 593 OFFCURVE",
"354 586 OFFCURVE",
"363 586 CURVE SMOOTH"
);
}
);
width = 443;
}
);
note = Edotaccent;
unicode = 0116;
},
{
color = 11;
glyphname = Egrave;
lastChange = "2021-08-02 16:25:37 +0000";
layers = (
{
background = {
paths = (
{
closed = 1;
nodes = (
"295 -3 OFFCURVE",
"359 -2 OFFCURVE",
"382 2 CURVE SMOOTH",
"393 4 OFFCURVE",
"411 64 OFFCURVE",
"422 97 CURVE SMOOTH",
"423 101 OFFCURVE",
"414 102 OFFCURVE",
"413 100 CURVE",
"408 66 OFFCURVE",
"387 37 OFFCURVE",
"382 33 CURVE SMOOTH",
"362 19 OFFCURVE",
"322 13 OFFCURVE",
"280 9 CURVE SMOOTH",
"258 7 OFFCURVE",
"233 7 OFFCURVE",
"208 7 CURVE SMOOTH",
"170 7 OFFCURVE",
"135 8 OFFCURVE",
"118 10 CURVE SMOOTH",
"84 13 OFFCURVE",
"73 22 OFFCURVE",
"73 39 CURVE SMOOTH",
"73 48 OFFCURVE",
"76 59 OFFCURVE",
"80 72 CURVE SMOOTH",
"98 128 OFFCURVE",
"130 209 OFFCURVE",
"163 287 CURVE",
"183 288 OFFCURVE",
"203 288 OFFCURVE",
"224 288 CURVE SMOOTH",
"285 288 LINE SMOOTH",
"332 287 OFFCURVE",
"344 278 OFFCURVE",
"344 260 CURVE SMOOTH",
"344 242 OFFCURVE",
"338 231 OFFCURVE",
"334 225 CURVE SMOOTH",
"332 222 OFFCURVE",
"343 224 OFFCURVE",
"344 227 CURVE SMOOTH",
"349 243 OFFCURVE",
"353 260 OFFCURVE",
"366 291 CURVE",
"366 292 OFFCURVE",
"371 299 OFFCURVE",
"365 299 CURVE SMOOTH",
"311 299 OFFCURVE",
"259 298 OFFCURVE",
"206 297 CURVE SMOOTH",
"193 296 OFFCURVE",
"179 296 OFFCURVE",
"166 296 CURVE",
"200 376 OFFCURVE",
"235 451 OFFCURVE",
"253 490 CURVE SMOOTH",
"261 506 OFFCURVE",
"269 519 OFFCURVE",
"293 522 CURVE SMOOTH",
"314 525 OFFCURVE",
"338 526 OFFCURVE",
"361 526 CURVE SMOOTH",
"373 526 OFFCURVE",
"384 525 OFFCURVE",
"395 525 CURVE SMOOTH",
"450 523 OFFCURVE",
"478 515 OFFCURVE",
"473 489 CURVE SMOOTH",
"471 474 OFFCURVE",
"456 429 OFFCURVE",
"457 429 CURVE SMOOTH",
"460 429 OFFCURVE",
"462 430 OFFCURVE",
"463 432 CURVE SMOOTH",
"473 462 OFFCURVE",
"482 495 OFFCURVE",
"495 526 CURVE",
"495 527 OFFCURVE",
"500 534 OFFCURVE",
"494 534 CURVE SMOOTH",
"440 534 OFFCURVE",
"389 533 OFFCURVE",
"335 532 CURVE SMOOTH",
"307 531 OFFCURVE",
"281 531 OFFCURVE",
"253 531 CURVE SMOOTH",
"229 531 OFFCURVE",
"183 533 OFFCURVE",
"163 534 CURVE SMOOTH",
"160 534 OFFCURVE",
"157 530 OFFCURVE",
"157 527 CURVE SMOOTH",
"157 526 OFFCURVE",
"158 525 OFFCURVE",
"159 525 CURVE SMOOTH",
"172 525 OFFCURVE",
"191 526 OFFCURVE",
"206 526 CURVE SMOOTH",
"220 526 OFFCURVE",
"229 524 OFFCURVE",
"229 512 CURVE SMOOTH",
"229 508 OFFCURVE",
"228 502 OFFCURVE",
"226 495 CURVE SMOOTH",
"203 430 OFFCURVE",
"178 363 OFFCURVE",
"151 296 CURVE",
"113 296 LINE SMOOTH",
"102 296 OFFCURVE",
"89 285 OFFCURVE",
"89 282 CURVE",
"90 282 LINE SMOOTH",
"109 284 OFFCURVE",
"128 285 OFFCURVE",
"148 286 CURVE",
"121 220 OFFCURVE",
"93 155 OFFCURVE",
"66 93 CURVE SMOOTH",
"42 41 OFFCURVE",
"35 17 OFFCURVE",
"35 6 CURVE SMOOTH",
"35 -1 OFFCURVE",
"38 -2 OFFCURVE",
"42 -2 CURVE SMOOTH",
"73 -2 OFFCURVE",
"152 -3 OFFCURVE",
"227 -3 CURVE SMOOTH"
);
},
{
closed = 1;
nodes = (
"345 556 OFFCURVE",
"353 555 OFFCURVE",
"350 559 CURVE SMOOTH",
"339 574 OFFCURVE",
"301 642 OFFCURVE",
"292 654 CURVE SMOOTH",
"290 657 OFFCURVE",
"278 651 OFFCURVE",
"280 649 CURVE",
"343 559 LINE SMOOTH"
);
}
);
};
layerId = "DB049CBD-EE5A-4C6A-B8D5-3A4D87564362";
paths = (
{
closed = 1;
nodes = (
"295 -3 OFFCURVE",
"359 -2 OFFCURVE",
"382 2 CURVE SMOOTH",
"393 4 OFFCURVE",
"411 64 OFFCURVE",
"422 97 CURVE SMOOTH",
"423 101 OFFCURVE",
"414 102 OFFCURVE",
"413 100 CURVE",
"408 66 OFFCURVE",
"387 37 OFFCURVE",
"382 33 CURVE SMOOTH",
"362 19 OFFCURVE",
"322 13 OFFCURVE",
"280 9 CURVE SMOOTH",
"258 7 OFFCURVE",
"233 7 OFFCURVE",
"208 7 CURVE SMOOTH",
"170 7 OFFCURVE",
"135 8 OFFCURVE",
"118 10 CURVE SMOOTH",
"84 13 OFFCURVE",
"73 22 OFFCURVE",
"73 39 CURVE SMOOTH",
"73 48 OFFCURVE",
"76 59 OFFCURVE",
"80 72 CURVE SMOOTH",
"98 128 OFFCURVE",
"130 209 OFFCURVE",
"163 287 CURVE",
"183 288 OFFCURVE",
"203 288 OFFCURVE",
"224 288 CURVE SMOOTH",
"285 288 LINE SMOOTH",
"332 287 OFFCURVE",
"344 278 OFFCURVE",
"344 260 CURVE SMOOTH",
"344 242 OFFCURVE",
"338 231 OFFCURVE",
"334 225 CURVE SMOOTH",
"332 222 OFFCURVE",
"343 224 OFFCURVE",
"344 227 CURVE SMOOTH",
"349 243 OFFCURVE",
"353 260 OFFCURVE",
"366 291 CURVE",
"366 292 OFFCURVE",
"371 299 OFFCURVE",
"365 299 CURVE SMOOTH",
"311 299 OFFCURVE",
"259 298 OFFCURVE",
"206 297 CURVE SMOOTH",
"193 296 OFFCURVE",
"179 296 OFFCURVE",
"166 296 CURVE",
"200 376 OFFCURVE",
"235 451 OFFCURVE",
"253 490 CURVE SMOOTH",
"261 506 OFFCURVE",
"269 519 OFFCURVE",
"293 522 CURVE SMOOTH",
"314 525 OFFCURVE",
"338 526 OFFCURVE",
"361 526 CURVE SMOOTH",
"373 526 OFFCURVE",
"384 525 OFFCURVE",
"395 525 CURVE SMOOTH",
"450 523 OFFCURVE",
"478 515 OFFCURVE",
"473 489 CURVE SMOOTH",
"471 474 OFFCURVE",
"456 429 OFFCURVE",
"457 429 CURVE SMOOTH",
"460 429 OFFCURVE",
"462 430 OFFCURVE",
"463 432 CURVE SMOOTH",
"473 462 OFFCURVE",
"482 495 OFFCURVE",
"495 526 CURVE",
"495 527 OFFCURVE",
"500 534 OFFCURVE",
"494 534 CURVE SMOOTH",
"440 534 OFFCURVE",
"389 533 OFFCURVE",
"335 532 CURVE SMOOTH",
"307 531 OFFCURVE",
"281 531 OFFCURVE",
"253 531 CURVE SMOOTH",
"229 531 OFFCURVE",
"183 533 OFFCURVE",
"163 534 CURVE SMOOTH",
"160 534 OFFCURVE",
"157 530 OFFCURVE",
"157 527 CURVE SMOOTH",
"157 526 OFFCURVE",
"158 525 OFFCURVE",
"159 525 CURVE SMOOTH",
"172 525 OFFCURVE",
"191 526 OFFCURVE",
"206 526 CURVE SMOOTH",
"220 526 OFFCURVE",
"229 524 OFFCURVE",
"229 512 CURVE SMOOTH",
"229 508 OFFCURVE",
"228 502 OFFCURVE",
"226 495 CURVE SMOOTH",
"203 430 OFFCURVE",
"178 363 OFFCURVE",
"151 296 CURVE",
"113 296 LINE SMOOTH",
"102 296 OFFCURVE",
"89 285 OFFCURVE",
"89 282 CURVE",
"90 282 LINE SMOOTH",
"109 284 OFFCURVE",
"128 285 OFFCURVE",
"148 286 CURVE",
"121 220 OFFCURVE",
"93 155 OFFCURVE",
"66 93 CURVE SMOOTH",
"42 41 OFFCURVE",
"35 17 OFFCURVE",
"35 6 CURVE SMOOTH",
"35 -1 OFFCURVE",
"38 -2 OFFCURVE",
"42 -2 CURVE SMOOTH",
"73 -2 OFFCURVE",
"152 -3 OFFCURVE",
"227 -3 CURVE SMOOTH"
);
},
{
closed = 1;
nodes = (
"345 556 OFFCURVE",
"353 555 OFFCURVE",
"350 559 CURVE SMOOTH",
"339 574 OFFCURVE",
"301 642 OFFCURVE",
"292 654 CURVE SMOOTH",
"290 657 OFFCURVE",
"278 651 OFFCURVE",
"280 649 CURVE",
"343 559 LINE SMOOTH"
);
}
);
width = 443;
}
);
note = Egrave;
unicode = 00C8;
},
{
color = 11;
glyphname = Emacron;
lastChange = "2021-08-02 16:25:37 +0000";
layers = (
{
background = {
paths = (
{
closed = 1;
nodes = (
"295 -3 OFFCURVE",
"359 -2 OFFCURVE",
"382 2 CURVE SMOOTH",
"393 4 OFFCURVE",
"411 64 OFFCURVE",
"422 97 CURVE SMOOTH",
"423 101 OFFCURVE",
"414 102 OFFCURVE",
"413 100 CURVE",
"408 66 OFFCURVE",
"387 37 OFFCURVE",
"382 33 CURVE SMOOTH",
"362 19 OFFCURVE",
"322 13 OFFCURVE",
"280 9 CURVE SMOOTH",
"258 7 OFFCURVE",
"233 7 OFFCURVE",
"208 7 CURVE SMOOTH",
"170 7 OFFCURVE",
"135 8 OFFCURVE",
"118 10 CURVE SMOOTH",
"84 13 OFFCURVE",
"73 22 OFFCURVE",
"73 39 CURVE SMOOTH",
"73 48 OFFCURVE",
"76 59 OFFCURVE",
"80 72 CURVE SMOOTH",
"98 128 OFFCURVE",
"130 209 OFFCURVE",
"163 287 CURVE",
"183 288 OFFCURVE",
"203 288 OFFCURVE",
"224 288 CURVE SMOOTH",
"285 288 LINE SMOOTH",
"332 287 OFFCURVE",
"344 278 OFFCURVE",
"344 260 CURVE SMOOTH",
"344 242 OFFCURVE",
"338 231 OFFCURVE",
"334 225 CURVE SMOOTH",
"332 222 OFFCURVE",
"343 224 OFFCURVE",
"344 227 CURVE SMOOTH",
"349 243 OFFCURVE",
"353 260 OFFCURVE",
"366 291 CURVE",
"366 292 OFFCURVE",
"371 299 OFFCURVE",
"365 299 CURVE SMOOTH",
"311 299 OFFCURVE",
"259 298 OFFCURVE",
"206 297 CURVE SMOOTH",
"193 296 OFFCURVE",
"179 296 OFFCURVE",
"166 296 CURVE",
"200 376 OFFCURVE",
"235 451 OFFCURVE",
"253 490 CURVE SMOOTH",
"261 506 OFFCURVE",
"269 519 OFFCURVE",
"293 522 CURVE SMOOTH",
"314 525 OFFCURVE",
"338 526 OFFCURVE",
"361 526 CURVE SMOOTH",
"373 526 OFFCURVE",
"384 525 OFFCURVE",
"395 525 CURVE SMOOTH",
"450 523 OFFCURVE",
"478 515 OFFCURVE",
"473 489 CURVE SMOOTH",
"471 474 OFFCURVE",
"456 429 OFFCURVE",
"457 429 CURVE SMOOTH",
"460 429 OFFCURVE",
"462 430 OFFCURVE",
"463 432 CURVE SMOOTH",
"473 462 OFFCURVE",
"482 495 OFFCURVE",
"495 526 CURVE",
"495 527 OFFCURVE",
"500 534 OFFCURVE",
"494 534 CURVE SMOOTH",
"440 534 OFFCURVE",
"389 533 OFFCURVE",
"335 532 CURVE SMOOTH",
"307 531 OFFCURVE",
"281 531 OFFCURVE",
"253 531 CURVE SMOOTH",
"229 531 OFFCURVE",
"183 533 OFFCURVE",
"163 534 CURVE SMOOTH",
"160 534 OFFCURVE",
"157 530 OFFCURVE",
"157 527 CURVE SMOOTH",
"157 526 OFFCURVE",
"158 525 OFFCURVE",
"159 525 CURVE SMOOTH",
"172 525 OFFCURVE",
"191 526 OFFCURVE",
"206 526 CURVE SMOOTH",
"220 526 OFFCURVE",
"229 524 OFFCURVE",
"229 512 CURVE SMOOTH",
"229 508 OFFCURVE",
"228 502 OFFCURVE",
"226 495 CURVE SMOOTH",
"203 430 OFFCURVE",
"178 363 OFFCURVE",
"151 296 CURVE",
"113 296 LINE SMOOTH",
"102 296 OFFCURVE",
"89 285 OFFCURVE",
"89 282 CURVE",
"90 282 LINE SMOOTH",
"109 284 OFFCURVE",
"128 285 OFFCURVE",
"148 286 CURVE",
"121 220 OFFCURVE",
"93 155 OFFCURVE",
"66 93 CURVE SMOOTH",
"42 41 OFFCURVE",
"35 17 OFFCURVE",
"35 6 CURVE SMOOTH",
"35 -1 OFFCURVE",
"38 -2 OFFCURVE",
"42 -2 CURVE SMOOTH",
"73 -2 OFFCURVE",
"152 -3 OFFCURVE",
"227 -3 CURVE SMOOTH"
);
},
{
closed = 1;
nodes = (
"308 590 OFFCURVE",
"322 590 OFFCURVE",
"338 590 CURVE SMOOTH",
"426 590 LINE SMOOTH",
"428 590 OFFCURVE",
"431 600 OFFCURVE",
"431 604 CURVE SMOOTH",
"431 605 OFFCURVE",
"431 606 OFFCURVE",
"430 606 CURVE SMOOTH",
"308 606 LINE SMOOTH",
"306 606 OFFCURVE",
"302 596 OFFCURVE",
"302 592 CURVE SMOOTH",
"302 590 OFFCURVE",
"302 590 OFFCURVE",
"303 590 CURVE SMOOTH"
);
}
);
};
layerId = "DB049CBD-EE5A-4C6A-B8D5-3A4D87564362";
paths = (
{
closed = 1;
nodes = (
"295 -3 OFFCURVE",
"359 -2 OFFCURVE",
"382 2 CURVE SMOOTH",
"393 4 OFFCURVE",
"411 64 OFFCURVE",
"422 97 CURVE SMOOTH",
"423 101 OFFCURVE",
"414 102 OFFCURVE",
"413 100 CURVE",
"408 66 OFFCURVE",
"387 37 OFFCURVE",
"382 33 CURVE SMOOTH",
"362 19 OFFCURVE",
"322 13 OFFCURVE",
"280 9 CURVE SMOOTH",
"258 7 OFFCURVE",
"233 7 OFFCURVE",
"208 7 CURVE SMOOTH",
"170 7 OFFCURVE",
"135 8 OFFCURVE",
"118 10 CURVE SMOOTH",
"84 13 OFFCURVE",
"73 22 OFFCURVE",
"73 39 CURVE SMOOTH",
"73 48 OFFCURVE",
"76 59 OFFCURVE",
"80 72 CURVE SMOOTH",
"98 128 OFFCURVE",
"130 209 OFFCURVE",
"163 287 CURVE",
"183 288 OFFCURVE",
"203 288 OFFCURVE",
"224 288 CURVE SMOOTH",
"285 288 LINE SMOOTH",
"332 287 OFFCURVE",
"344 278 OFFCURVE",
"344 260 CURVE SMOOTH",
"344 242 OFFCURVE",
"338 231 OFFCURVE",
"334 225 CURVE SMOOTH",
"332 222 OFFCURVE",
"343 224 OFFCURVE",
"344 227 CURVE SMOOTH",
"349 243 OFFCURVE",
"353 260 OFFCURVE",
"366 291 CURVE",
"366 292 OFFCURVE",
"371 299 OFFCURVE",
"365 299 CURVE SMOOTH",
"311 299 OFFCURVE",
"259 298 OFFCURVE",
"206 297 CURVE SMOOTH",
"193 296 OFFCURVE",
"179 296 OFFCURVE",
"166 296 CURVE",
"200 376 OFFCURVE",
"235 451 OFFCURVE",
"253 490 CURVE SMOOTH",
"261 506 OFFCURVE",
"269 519 OFFCURVE",
"293 522 CURVE SMOOTH",
"314 525 OFFCURVE",
"338 526 OFFCURVE",
"361 526 CURVE SMOOTH",
"373 526 OFFCURVE",
"384 525 OFFCURVE",
"395 525 CURVE SMOOTH",
"450 523 OFFCURVE",
"478 515 OFFCURVE",
"473 489 CURVE SMOOTH",
"471 474 OFFCURVE",
"456 429 OFFCURVE",
"457 429 CURVE SMOOTH",
"460 429 OFFCURVE",
"462 430 OFFCURVE",
"463 432 CURVE SMOOTH",
"473 462 OFFCURVE",
"482 495 OFFCURVE",
"495 526 CURVE",
"495 527 OFFCURVE",
"500 534 OFFCURVE",
"494 534 CURVE SMOOTH",
"440 534 OFFCURVE",
"389 533 OFFCURVE",
"335 532 CURVE SMOOTH",
"307 531 OFFCURVE",
"281 531 OFFCURVE",
"253 531 CURVE SMOOTH",
"229 531 OFFCURVE",
"183 533 OFFCURVE",
"163 534 CURVE SMOOTH",
"160 534 OFFCURVE",
"157 530 OFFCURVE",
"157 527 CURVE SMOOTH",
"157 526 OFFCURVE",
"158 525 OFFCURVE",
"159 525 CURVE SMOOTH",
"172 525 OFFCURVE",
"191 526 OFFCURVE",
"206 526 CURVE SMOOTH",
"220 526 OFFCURVE",
"229 524 OFFCURVE",
"229 512 CURVE SMOOTH",
"229 508 OFFCURVE",
"228 502 OFFCURVE",
"226 495 CURVE SMOOTH",
"203 430 OFFCURVE",
"178 363 OFFCURVE",
"151 296 CURVE",
"113 296 LINE SMOOTH",
"102 296 OFFCURVE",
"89 285 OFFCURVE",
"89 282 CURVE",
"90 282 LINE SMOOTH",
"109 284 OFFCURVE",
"128 285 OFFCURVE",
"148 286 CURVE",
"121 220 OFFCURVE",
"93 155 OFFCURVE",
"66 93 CURVE SMOOTH",
"42 41 OFFCURVE",
"35 17 OFFCURVE",
"35 6 CURVE SMOOTH",
"35 -1 OFFCURVE",
"38 -2 OFFCURVE",
"42 -2 CURVE SMOOTH",
"73 -2 OFFCURVE",
"152 -3 OFFCURVE",
"227 -3 CURVE SMOOTH"
);
},
{
closed = 1;
nodes = (
"308 590 OFFCURVE",
"322 590 OFFCURVE",
"338 590 CURVE SMOOTH",
"426 590 LINE SMOOTH",
"428 590 OFFCURVE",
"431 600 OFFCURVE",
"431 604 CURVE SMOOTH",
"431 605 OFFCURVE",
"431 606 OFFCURVE",
"430 606 CURVE SMOOTH",
"308 606 LINE SMOOTH",
"306 606 OFFCURVE",
"302 596 OFFCURVE",
"302 592 CURVE SMOOTH",
"302 590 OFFCURVE",
"302 590 OFFCURVE",
"303 590 CURVE SMOOTH"
);
}
);
width = 443;
}
);
note = Emacron;
unicode = 0112;
},
{
color = 11;
glyphname = Eogonek;
lastChange = "2021-08-02 16:25:37 +0000";
layers = (
{
background = {
paths = (
{
closed = 1;
nodes = (
"295 -3 OFFCURVE",
"359 -2 OFFCURVE",
"382 2 CURVE SMOOTH",
"393 4 OFFCURVE",
"411 64 OFFCURVE",
"422 97 CURVE SMOOTH",
"423 101 OFFCURVE",
"414 102 OFFCURVE",
"413 100 CURVE",
"408 66 OFFCURVE",
"387 37 OFFCURVE",
"382 33 CURVE SMOOTH",
"362 19 OFFCURVE",
"322 13 OFFCURVE",
"280 9 CURVE SMOOTH",
"258 7 OFFCURVE",
"233 7 OFFCURVE",
"208 7 CURVE SMOOTH",
"170 7 OFFCURVE",
"135 8 OFFCURVE",
"118 10 CURVE SMOOTH",
"84 13 OFFCURVE",
"73 22 OFFCURVE",
"73 39 CURVE SMOOTH",
"73 48 OFFCURVE",
"76 59 OFFCURVE",
"80 72 CURVE SMOOTH",
"98 128 OFFCURVE",
"130 209 OFFCURVE",
"163 287 CURVE",
"183 288 OFFCURVE",
"203 288 OFFCURVE",
"224 288 CURVE SMOOTH",
"285 288 LINE SMOOTH",
"332 287 OFFCURVE",
"344 278 OFFCURVE",
"344 260 CURVE SMOOTH",
"344 242 OFFCURVE",
"338 231 OFFCURVE",
"334 225 CURVE SMOOTH",
"332 222 OFFCURVE",
"343 224 OFFCURVE",
"344 227 CURVE SMOOTH",
"349 243 OFFCURVE",
"353 260 OFFCURVE",
"366 291 CURVE",
"366 292 OFFCURVE",
"371 299 OFFCURVE",
"365 299 CURVE SMOOTH",
"311 299 OFFCURVE",
"259 298 OFFCURVE",
"206 297 CURVE SMOOTH",
"193 296 OFFCURVE",
"179 296 OFFCURVE",
"166 296 CURVE",
"200 376 OFFCURVE",
"235 451 OFFCURVE",
"253 490 CURVE SMOOTH",
"261 506 OFFCURVE",
"269 519 OFFCURVE",
"293 522 CURVE SMOOTH",
"314 525 OFFCURVE",
"338 526 OFFCURVE",
"361 526 CURVE SMOOTH",
"373 526 OFFCURVE",
"384 525 OFFCURVE",
"395 525 CURVE SMOOTH",
"450 523 OFFCURVE",
"478 515 OFFCURVE",
"473 489 CURVE SMOOTH",
"471 474 OFFCURVE",
"456 429 OFFCURVE",
"457 429 CURVE SMOOTH",
"460 429 OFFCURVE",
"462 430 OFFCURVE",
"463 432 CURVE SMOOTH",
"473 462 OFFCURVE",
"482 495 OFFCURVE",
"495 526 CURVE",
"495 527 OFFCURVE",
"500 534 OFFCURVE",
"494 534 CURVE SMOOTH",
"440 534 OFFCURVE",
"389 533 OFFCURVE",
"335 532 CURVE SMOOTH",
"307 531 OFFCURVE",
"281 531 OFFCURVE",
"253 531 CURVE SMOOTH",
"229 531 OFFCURVE",
"183 533 OFFCURVE",
"163 534 CURVE SMOOTH",
"160 534 OFFCURVE",
"157 530 OFFCURVE",
"157 527 CURVE SMOOTH",
"157 526 OFFCURVE",
"158 525 OFFCURVE",
"159 525 CURVE SMOOTH",
"172 525 OFFCURVE",
"191 526 OFFCURVE",
"206 526 CURVE SMOOTH",
"220 526 OFFCURVE",
"229 524 OFFCURVE",
"229 512 CURVE SMOOTH",
"229 508 OFFCURVE",
"228 502 OFFCURVE",
"226 495 CURVE SMOOTH",
"203 430 OFFCURVE",
"178 363 OFFCURVE",
"151 296 CURVE",
"113 296 LINE SMOOTH",
"102 296 OFFCURVE",
"89 285 OFFCURVE",
"89 282 CURVE",
"90 282 LINE SMOOTH",
"109 284 OFFCURVE",
"128 285 OFFCURVE",
"148 286 CURVE",
"121 220 OFFCURVE",
"93 155 OFFCURVE",
"66 93 CURVE SMOOTH",
"42 41 OFFCURVE",
"35 17 OFFCURVE",
"35 6 CURVE SMOOTH",
"35 -1 OFFCURVE",
"38 -2 OFFCURVE",
"42 -2 CURVE SMOOTH",
"73 -2 OFFCURVE",
"152 -3 OFFCURVE",
"227 -3 CURVE SMOOTH"
);
},
{
closed = 1;
nodes = (
"126 -191 OFFCURVE",
"138 -184 OFFCURVE",
"148 -176 CURVE SMOOTH",
"168 -161 OFFCURVE",
"193 -132 OFFCURVE",
"207 -113 CURVE SMOOTH",
"211 -108 OFFCURVE",
"207 -101 OFFCURVE",
"206 -103 CURVE SMOOTH",
"192 -122 OFFCURVE",
"168 -157 OFFCURVE",
"148 -170 CURVE SMOOTH",
"141 -174 OFFCURVE",
"136 -177 OFFCURVE",
"131 -177 CURVE SMOOTH",
"125 -177 OFFCURVE",
"122 -172 OFFCURVE",
"122 -159 CURVE SMOOTH",
"122 -93 OFFCURVE",
"168 -32 OFFCURVE",
"200 -13 CURVE SMOOTH",
"204 -11 OFFCURVE",
"205 -3 OFFCURVE",
"201 -3 CURVE SMOOTH",
"200 -3 OFFCURVE",
"199 -3 OFFCURVE",
"198 -4 CURVE SMOOTH",
"150 -41 OFFCURVE",
"105 -111 OFFCURVE",
"105 -171 CURVE SMOOTH",
"105 -186 OFFCURVE",
"110 -191 OFFCURVE",
"118 -191 CURVE SMOOTH"
);
}
);
};
layerId = "DB049CBD-EE5A-4C6A-B8D5-3A4D87564362";
paths = (
{
closed = 1;
nodes = (
"295 -3 OFFCURVE",
"359 -2 OFFCURVE",
"382 2 CURVE SMOOTH",
"393 4 OFFCURVE",
"411 64 OFFCURVE",
"422 97 CURVE SMOOTH",
"423 101 OFFCURVE",
"414 102 OFFCURVE",
"413 100 CURVE",
"408 66 OFFCURVE",
"387 37 OFFCURVE",
"382 33 CURVE SMOOTH",
"362 19 OFFCURVE",
"322 13 OFFCURVE",
"280 9 CURVE SMOOTH",
"258 7 OFFCURVE",
"233 7 OFFCURVE",
"208 7 CURVE SMOOTH",
"170 7 OFFCURVE",
"135 8 OFFCURVE",
"118 10 CURVE SMOOTH",
"84 13 OFFCURVE",
"73 22 OFFCURVE",
"73 39 CURVE SMOOTH",
"73 48 OFFCURVE",
"76 59 OFFCURVE",
"80 72 CURVE SMOOTH",
"98 128 OFFCURVE",
"130 209 OFFCURVE",
"163 287 CURVE",
"183 288 OFFCURVE",
"203 288 OFFCURVE",
"224 288 CURVE SMOOTH",
"285 288 LINE SMOOTH",
"332 287 OFFCURVE",
"344 278 OFFCURVE",
"344 260 CURVE SMOOTH",
"344 242 OFFCURVE",
"338 231 OFFCURVE",
"334 225 CURVE SMOOTH",
"332 222 OFFCURVE",
"343 224 OFFCURVE",
"344 227 CURVE SMOOTH",
"349 243 OFFCURVE",
"353 260 OFFCURVE",
"366 291 CURVE",
"366 292 OFFCURVE",
"371 299 OFFCURVE",
"365 299 CURVE SMOOTH",
"311 299 OFFCURVE",
"259 298 OFFCURVE",
"206 297 CURVE SMOOTH",
"193 296 OFFCURVE",
"179 296 OFFCURVE",
"166 296 CURVE",
"200 376 OFFCURVE",
"235 451 OFFCURVE",
"253 490 CURVE SMOOTH",
"261 506 OFFCURVE",
"269 519 OFFCURVE",
"293 522 CURVE SMOOTH",
"314 525 OFFCURVE",
"338 526 OFFCURVE",
"361 526 CURVE SMOOTH",
"373 526 OFFCURVE",
"384 525 OFFCURVE",
"395 525 CURVE SMOOTH",
"450 523 OFFCURVE",
"478 515 OFFCURVE",
"473 489 CURVE SMOOTH",
"471 474 OFFCURVE",
"456 429 OFFCURVE",
"457 429 CURVE SMOOTH",
"460 429 OFFCURVE",
"462 430 OFFCURVE",
"463 432 CURVE SMOOTH",
"473 462 OFFCURVE",
"482 495 OFFCURVE",
"495 526 CURVE",
"495 527 OFFCURVE",
"500 534 OFFCURVE",
"494 534 CURVE SMOOTH",
"440 534 OFFCURVE",
"389 533 OFFCURVE",
"335 532 CURVE SMOOTH",
"307 531 OFFCURVE",
"281 531 OFFCURVE",
"253 531 CURVE SMOOTH",
"229 531 OFFCURVE",
"183 533 OFFCURVE",
"163 534 CURVE SMOOTH",
"160 534 OFFCURVE",
"157 530 OFFCURVE",
"157 527 CURVE SMOOTH",
"157 526 OFFCURVE",
"158 525 OFFCURVE",
"159 525 CURVE SMOOTH",
"172 525 OFFCURVE",
"191 526 OFFCURVE",
"206 526 CURVE SMOOTH",
"220 526 OFFCURVE",
"229 524 OFFCURVE",
"229 512 CURVE SMOOTH",
"229 508 OFFCURVE",
"228 502 OFFCURVE",
"226 495 CURVE SMOOTH",
"203 430 OFFCURVE",
"178 363 OFFCURVE",
"151 296 CURVE",
"113 296 LINE SMOOTH",
"102 296 OFFCURVE",
"89 285 OFFCURVE",
"89 282 CURVE",
"90 282 LINE SMOOTH",
"109 284 OFFCURVE",
"128 285 OFFCURVE",
"148 286 CURVE",
"121 220 OFFCURVE",
"93 155 OFFCURVE",
"66 93 CURVE SMOOTH",
"42 41 OFFCURVE",
"35 17 OFFCURVE",
"35 6 CURVE SMOOTH",
"35 -1 OFFCURVE",
"38 -2 OFFCURVE",
"42 -2 CURVE SMOOTH",
"73 -2 OFFCURVE",
"152 -3 OFFCURVE",
"227 -3 CURVE SMOOTH"
);
},
{
closed = 1;
nodes = (
"126 -191 OFFCURVE",
"138 -184 OFFCURVE",
"148 -176 CURVE SMOOTH",
"168 -161 OFFCURVE",
"193 -132 OFFCURVE",
"207 -113 CURVE SMOOTH",
"211 -108 OFFCURVE",
"207 -101 OFFCURVE",
"206 -103 CURVE SMOOTH",
"192 -122 OFFCURVE",
"168 -157 OFFCURVE",
"148 -170 CURVE SMOOTH",
"141 -174 OFFCURVE",
"136 -177 OFFCURVE",
"131 -177 CURVE SMOOTH",
"125 -177 OFFCURVE",
"122 -172 OFFCURVE",
"122 -159 CURVE SMOOTH",
"122 -93 OFFCURVE",
"168 -32 OFFCURVE",
"200 -13 CURVE SMOOTH",
"204 -11 OFFCURVE",
"205 -3 OFFCURVE",
"201 -3 CURVE SMOOTH",
"200 -3 OFFCURVE",
"199 -3 OFFCURVE",
"198 -4 CURVE SMOOTH",
"150 -41 OFFCURVE",
"105 -111 OFFCURVE",
"105 -171 CURVE SMOOTH",
"105 -186 OFFCURVE",
"110 -191 OFFCURVE",
"118 -191 CURVE SMOOTH"
);
}
);
width = 443;
}
);
note = Eogonek;
unicode = 0118;
},
{
color = 5;
glyphname = F;
lastChange = "2021-08-02 16:25:37 +0000";
layers = (
{
background = {
paths = (
{
closed = 1;
nodes = (
"26 -1 OFFCURVE",
"29 -1 OFFCURVE",
"32 0 CURVE",
"54 2 OFFCURVE",
"107 -1 OFFCURVE",
"132 0 CURVE SMOOTH",
"135 0 OFFCURVE",
"138 4 OFFCURVE",
"138 6 CURVE SMOOTH",
"138 7 OFFCURVE",
"138 7 OFFCURVE",
"137 7 CURVE SMOOTH",
"131 6 OFFCURVE",
"123 6 OFFCURVE",
"113 6 CURVE SMOOTH",
"97 6 OFFCURVE",
"79 7 OFFCURVE",
"68 11 CURVE SMOOTH",
"56 15 OFFCURVE",
"50 26 OFFCURVE",
"50 39 CURVE SMOOTH",
"50 50 OFFCURVE",
"54 62 OFFCURVE",
"57 72 CURVE SMOOTH",
"75 127 OFFCURVE",
"108 208 OFFCURVE",
"140 286 CURVE",
"163 288 OFFCURVE",
"189 289 OFFCURVE",
"211 289 CURVE SMOOTH",
"230 289 OFFCURVE",
"283 289 OFFCURVE",
"301 284 CURVE SMOOTH",
"321 278 OFFCURVE",
"323 267 OFFCURVE",
"321 251 CURVE SMOOTH",
"318 238 OFFCURVE",
"314 230 OFFCURVE",
"312 225 CURVE SMOOTH",
"310 222 OFFCURVE",
"321 224 OFFCURVE",
"322 227 CURVE SMOOTH",
"326 243 OFFCURVE",
"330 260 OFFCURVE",
"343 291 CURVE",
"344 292 OFFCURVE",
"348 299 OFFCURVE",
"342 299 CURVE SMOOTH",
"297 299 OFFCURVE",
"254 298 OFFCURVE",
"209 297 CURVE SMOOTH",
"188 297 OFFCURVE",
"166 296 OFFCURVE",
"144 296 CURVE",
"178 376 OFFCURVE",
"212 452 OFFCURVE",
"231 490 CURVE SMOOTH",
"238 506 OFFCURVE",
"247 519 OFFCURVE",
"271 522 CURVE SMOOTH",
"292 525 OFFCURVE",
"315 526 OFFCURVE",
"339 526 CURVE SMOOTH",
"350 526 OFFCURVE",
"362 525 OFFCURVE",
"373 525 CURVE SMOOTH",
"424 523 OFFCURVE",
"451 516 OFFCURVE",
"451 494 CURVE SMOOTH",
"451 490 OFFCURVE",
"439 443 OFFCURVE",
"433 431 CURVE SMOOTH",
"431 428 OFFCURVE",
"439 428 OFFCURVE",
"441 432 CURVE",
"451 462 OFFCURVE",
"460 495 OFFCURVE",
"473 526 CURVE",
"473 527 OFFCURVE",
"478 534 OFFCURVE",
"472 534 CURVE SMOOTH",
"418 534 OFFCURVE",
"366 533 OFFCURVE",
"313 532 CURVE SMOOTH",
"283 531 OFFCURVE",
"254 531 OFFCURVE",
"223 531 CURVE SMOOTH",
"196 531 OFFCURVE",
"164 533 OFFCURVE",
"141 534 CURVE SMOOTH",
"138 534 OFFCURVE",
"132 527 OFFCURVE",
"132 525 CURVE SMOOTH",
"132 524 OFFCURVE",
"133 524 OFFCURVE",
"134 524 CURVE SMOOTH",
"139 524 OFFCURVE",
"169 526 OFFCURVE",
"184 526 CURVE SMOOTH",
"198 526 OFFCURVE",
"207 524 OFFCURVE",
"207 513 CURVE SMOOTH",
"207 509 OFFCURVE",
"206 505 OFFCURVE",
"204 499 CURVE SMOOTH",
"182 433 OFFCURVE",
"156 364 OFFCURVE",
"129 296 CURVE",
"112 296 LINE SMOOTH",
"101 296 OFFCURVE",
"92 284 OFFCURVE",
"92 281 CURVE SMOOTH",
"92 280 OFFCURVE",
"92 280 OFFCURVE",
"93 280 CURVE SMOOTH",
"101 281 OFFCURVE",
"112 283 OFFCURVE",
"124 284 CURVE",
"98 219 OFFCURVE",
"70 154 OFFCURVE",
"44 93 CURVE SMOOTH",
"22 44 OFFCURVE",
"13 20 OFFCURVE",
"13 9 CURVE SMOOTH",
"13 1 OFFCURVE",
"17 -1 OFFCURVE",
"23 -1 CURVE SMOOTH"
);
}
);
};
layerId = "DB049CBD-EE5A-4C6A-B8D5-3A4D87564362";
paths = (
{
closed = 1;
nodes = (
"26 -1 OFFCURVE",
"29 -1 OFFCURVE",
"32 0 CURVE",
"54 2 OFFCURVE",
"107 -1 OFFCURVE",
"132 0 CURVE SMOOTH",
"135 0 OFFCURVE",
"138 4 OFFCURVE",
"138 6 CURVE SMOOTH",
"138 7 OFFCURVE",
"138 7 OFFCURVE",
"137 7 CURVE SMOOTH",
"131 6 OFFCURVE",
"123 6 OFFCURVE",
"113 6 CURVE SMOOTH",
"97 6 OFFCURVE",
"79 7 OFFCURVE",
"68 11 CURVE SMOOTH",
"56 15 OFFCURVE",
"50 26 OFFCURVE",
"50 39 CURVE SMOOTH",
"50 50 OFFCURVE",
"54 62 OFFCURVE",
"57 72 CURVE SMOOTH",
"75 127 OFFCURVE",
"108 208 OFFCURVE",
"140 286 CURVE",
"163 288 OFFCURVE",
"189 289 OFFCURVE",
"211 289 CURVE SMOOTH",
"230 289 OFFCURVE",
"283 289 OFFCURVE",
"301 284 CURVE SMOOTH",
"321 278 OFFCURVE",
"323 267 OFFCURVE",
"321 251 CURVE SMOOTH",
"318 238 OFFCURVE",
"314 230 OFFCURVE",
"312 225 CURVE SMOOTH",
"310 222 OFFCURVE",
"321 224 OFFCURVE",
"322 227 CURVE SMOOTH",
"326 243 OFFCURVE",
"330 260 OFFCURVE",
"343 291 CURVE",
"344 292 OFFCURVE",
"348 299 OFFCURVE",
"342 299 CURVE SMOOTH",
"297 299 OFFCURVE",
"254 298 OFFCURVE",
"209 297 CURVE SMOOTH",
"188 297 OFFCURVE",
"166 296 OFFCURVE",
"144 296 CURVE",
"178 376 OFFCURVE",
"212 452 OFFCURVE",
"231 490 CURVE SMOOTH",
"238 506 OFFCURVE",
"247 519 OFFCURVE",
"271 522 CURVE SMOOTH",
"292 525 OFFCURVE",
"315 526 OFFCURVE",
"339 526 CURVE SMOOTH",
"350 526 OFFCURVE",
"362 525 OFFCURVE",
"373 525 CURVE SMOOTH",
"424 523 OFFCURVE",
"451 516 OFFCURVE",
"451 494 CURVE SMOOTH",
"451 490 OFFCURVE",
"439 443 OFFCURVE",
"433 431 CURVE SMOOTH",
"431 428 OFFCURVE",
"439 428 OFFCURVE",
"441 432 CURVE",
"451 462 OFFCURVE",
"460 495 OFFCURVE",
"473 526 CURVE",
"473 527 OFFCURVE",
"478 534 OFFCURVE",
"472 534 CURVE SMOOTH",
"418 534 OFFCURVE",
"366 533 OFFCURVE",
"313 532 CURVE SMOOTH",
"283 531 OFFCURVE",
"254 531 OFFCURVE",
"223 531 CURVE SMOOTH",
"196 531 OFFCURVE",
"164 533 OFFCURVE",
"141 534 CURVE SMOOTH",
"138 534 OFFCURVE",
"132 527 OFFCURVE",
"132 525 CURVE SMOOTH",
"132 524 OFFCURVE",
"133 524 OFFCURVE",
"134 524 CURVE SMOOTH",
"139 524 OFFCURVE",
"169 526 OFFCURVE",
"184 526 CURVE SMOOTH",
"198 526 OFFCURVE",
"207 524 OFFCURVE",
"207 513 CURVE SMOOTH",
"207 509 OFFCURVE",
"206 505 OFFCURVE",
"204 499 CURVE SMOOTH",
"182 433 OFFCURVE",
"156 364 OFFCURVE",
"129 296 CURVE",
"112 296 LINE SMOOTH",
"101 296 OFFCURVE",
"92 284 OFFCURVE",
"92 281 CURVE SMOOTH",
"92 280 OFFCURVE",
"92 280 OFFCURVE",
"93 280 CURVE SMOOTH",
"101 281 OFFCURVE",
"112 283 OFFCURVE",
"124 284 CURVE",
"98 219 OFFCURVE",
"70 154 OFFCURVE",
"44 93 CURVE SMOOTH",
"22 44 OFFCURVE",
"13 20 OFFCURVE",
"13 9 CURVE SMOOTH",
"13 1 OFFCURVE",
"17 -1 OFFCURVE",
"23 -1 CURVE SMOOTH"
);
}
);
width = 371;
}
);
note = F;
unicode = 0046;
},
{
color = 5;
glyphname = G;
lastChange = "2021-08-02 16:25:37 +0000";
layers = (
{
background = {
paths = (
{
closed = 1;
nodes = (
"243 -297 OFFCURVE",
"294 -264 OFFCURVE",
"335 -217 CURVE SMOOTH",
"419 -119 OFFCURVE",
"491 86 OFFCURVE",
"541 207 CURVE SMOOTH",
"552 233 OFFCURVE",
"562 248 OFFCURVE",
"569 256 CURVE SMOOTH",
"582 272 OFFCURVE",
"600 275 OFFCURVE",
"616 275 CURVE SMOOTH",
"622 275 OFFCURVE",
"628 274 OFFCURVE",
"633 274 CURVE SMOOTH",
"635 274 OFFCURVE",
"639 281 OFFCURVE",
"636 281 CURVE SMOOTH",
"612 281 OFFCURVE",
"578 278 OFFCURVE",
"550 278 CURVE SMOOTH",
"544 278 OFFCURVE",
"461 280 OFFCURVE",
"437 281 CURVE SMOOTH",
"433 281 OFFCURVE",
"429 274 OFFCURVE",
"434 274 CURVE SMOOTH",
"447 274 OFFCURVE",
"472 275 OFFCURVE",
"493 272 CURVE SMOOTH",
"520 267 OFFCURVE",
"529 256 OFFCURVE",
"529 241 CURVE SMOOTH",
"529 236 OFFCURVE",
"528 231 OFFCURVE",
"527 226 CURVE SMOOTH",
"513 178 OFFCURVE",
"495 147 OFFCURVE",
"482 130 CURVE SMOOTH",
"418 39 OFFCURVE",
"332 -6 OFFCURVE",
"247 -6 CURVE SMOOTH",
"121 -6 OFFCURVE",
"69 69 OFFCURVE",
"69 163 CURVE SMOOTH",
"69 248 OFFCURVE",
"112 350 OFFCURVE",
"184 424 CURVE SMOOTH",
"245 488 OFFCURVE",
"347 536 OFFCURVE",
"444 536 CURVE SMOOTH",
"478 536 OFFCURVE",
"513 529 OFFCURVE",
"544 516 CURVE SMOOTH",
"567 506 OFFCURVE",
"583 489 OFFCURVE",
"579 461 CURVE SMOOTH",
"577 447 OFFCURVE",
"567 412 OFFCURVE",
"562 403 CURVE SMOOTH",
"560 399 OFFCURVE",
"568 400 OFFCURVE",
"570 403 CURVE",
"582 446 LINE SMOOTH",
"588 466 OFFCURVE",
"595 485 OFFCURVE",
"603 505 CURVE SMOOTH",
"604 508 OFFCURVE",
"605 510 OFFCURVE",
"605 513 CURVE SMOOTH",
"605 517 OFFCURVE",
"603 520 OFFCURVE",
"594 522 CURVE SMOOTH",
"542 534 OFFCURVE",
"491 543 OFFCURVE",
"443 543 CURVE SMOOTH",
"347 543 OFFCURVE",
"260 513 OFFCURVE",
"178 438 CURVE SMOOTH",
"94 362 OFFCURVE",
"43 257 OFFCURVE",
"43 167 CURVE SMOOTH",
"43 68 OFFCURVE",
"104 -12 OFFCURVE",
"247 -12 CURVE SMOOTH",
"361 -12 OFFCURVE",
"453 68 OFFCURVE",
"494 133 CURVE",
"449 18 OFFCURVE",
"378 -152 OFFCURVE",
"326 -213 CURVE SMOOTH",
"291 -253 OFFCURVE",
"249 -276 OFFCURVE",
"189 -276 CURVE SMOOTH",
"148 -276 OFFCURVE",
"111 -252 OFFCURVE",
"111 -203 CURVE SMOOTH",
"111 -188 OFFCURVE",
"113 -171 OFFCURVE",
"123 -152 CURVE SMOOTH",
"126 -146 OFFCURVE",
"133 -137 OFFCURVE",
"140 -130 CURVE",
"143 -125 OFFCURVE",
"139 -120 OFFCURVE",
"134 -129 CURVE SMOOTH",
"118 -152 LINE SMOOTH",
"102 -179 OFFCURVE",
"97 -205 OFFCURVE",
"97 -226 CURVE SMOOTH",
"97 -277 OFFCURVE",
"135 -297 OFFCURVE",
"178 -297 CURVE SMOOTH"
);
}
);
};
layerId = "DB049CBD-EE5A-4C6A-B8D5-3A4D87564362";
paths = (
{
closed = 1;
nodes = (
"243 -297 OFFCURVE",
"294 -264 OFFCURVE",
"335 -217 CURVE SMOOTH",
"419 -119 OFFCURVE",
"491 86 OFFCURVE",
"541 207 CURVE SMOOTH",
"552 233 OFFCURVE",
"562 248 OFFCURVE",
"569 256 CURVE SMOOTH",
"582 272 OFFCURVE",
"600 275 OFFCURVE",
"616 275 CURVE SMOOTH",
"622 275 OFFCURVE",
"628 274 OFFCURVE",
"633 274 CURVE SMOOTH",
"635 274 OFFCURVE",
"639 281 OFFCURVE",
"636 281 CURVE SMOOTH",
"612 281 OFFCURVE",
"578 278 OFFCURVE",
"550 278 CURVE SMOOTH",
"544 278 OFFCURVE",
"461 280 OFFCURVE",
"437 281 CURVE SMOOTH",
"433 281 OFFCURVE",
"429 274 OFFCURVE",
"434 274 CURVE SMOOTH",
"447 274 OFFCURVE",
"472 275 OFFCURVE",
"493 272 CURVE SMOOTH",
"520 267 OFFCURVE",
"529 256 OFFCURVE",
"529 241 CURVE SMOOTH",
"529 236 OFFCURVE",
"528 231 OFFCURVE",
"527 226 CURVE SMOOTH",
"513 178 OFFCURVE",
"495 147 OFFCURVE",
"482 130 CURVE SMOOTH",
"418 39 OFFCURVE",
"332 -6 OFFCURVE",
"247 -6 CURVE SMOOTH",
"121 -6 OFFCURVE",
"69 69 OFFCURVE",
"69 163 CURVE SMOOTH",
"69 248 OFFCURVE",
"112 350 OFFCURVE",
"184 424 CURVE SMOOTH",
"245 488 OFFCURVE",
"347 536 OFFCURVE",
"444 536 CURVE SMOOTH",
"478 536 OFFCURVE",
"513 529 OFFCURVE",
"544 516 CURVE SMOOTH",
"567 506 OFFCURVE",
"583 489 OFFCURVE",
"579 461 CURVE SMOOTH",
"577 447 OFFCURVE",
"567 412 OFFCURVE",
"562 403 CURVE SMOOTH",
"560 399 OFFCURVE",
"568 400 OFFCURVE",
"570 403 CURVE",
"582 446 LINE SMOOTH",
"588 466 OFFCURVE",
"595 485 OFFCURVE",
"603 505 CURVE SMOOTH",
"604 508 OFFCURVE",
"605 510 OFFCURVE",
"605 513 CURVE SMOOTH",
"605 517 OFFCURVE",
"603 520 OFFCURVE",
"594 522 CURVE SMOOTH",
"542 534 OFFCURVE",
"491 543 OFFCURVE",
"443 543 CURVE SMOOTH",
"347 543 OFFCURVE",
"260 513 OFFCURVE",
"178 438 CURVE SMOOTH",
"94 362 OFFCURVE",
"43 257 OFFCURVE",
"43 167 CURVE SMOOTH",
"43 68 OFFCURVE",
"104 -12 OFFCURVE",
"247 -12 CURVE SMOOTH",
"361 -12 OFFCURVE",
"453 68 OFFCURVE",
"494 133 CURVE",
"449 18 OFFCURVE",
"378 -152 OFFCURVE",
"326 -213 CURVE SMOOTH",
"291 -253 OFFCURVE",
"249 -276 OFFCURVE",
"189 -276 CURVE SMOOTH",
"148 -276 OFFCURVE",
"111 -252 OFFCURVE",
"111 -203 CURVE SMOOTH",
"111 -188 OFFCURVE",
"113 -171 OFFCURVE",
"123 -152 CURVE SMOOTH",
"126 -146 OFFCURVE",
"133 -137 OFFCURVE",
"140 -130 CURVE",
"143 -125 OFFCURVE",
"139 -120 OFFCURVE",
"134 -129 CURVE SMOOTH",
"118 -152 LINE SMOOTH",
"102 -179 OFFCURVE",
"97 -205 OFFCURVE",
"97 -226 CURVE SMOOTH",
"97 -277 OFFCURVE",
"135 -297 OFFCURVE",
"178 -297 CURVE SMOOTH"
);
}
);
width = 564;
}
);
note = G;
unicode = 0047;
},
{
color = 11;
glyphname = Gbreve;
lastChange = "2021-08-02 16:25:37 +0000";
layers = (
{
background = {
paths = (
{
closed = 1;
nodes = (
"243 -297 OFFCURVE",
"294 -264 OFFCURVE",
"335 -217 CURVE SMOOTH",
"419 -119 OFFCURVE",
"491 86 OFFCURVE",
"541 207 CURVE SMOOTH",
"552 233 OFFCURVE",
"562 248 OFFCURVE",
"569 256 CURVE SMOOTH",
"582 272 OFFCURVE",
"600 275 OFFCURVE",
"616 275 CURVE SMOOTH",
"622 275 OFFCURVE",
"628 274 OFFCURVE",
"633 274 CURVE SMOOTH",
"635 274 OFFCURVE",
"639 281 OFFCURVE",
"636 281 CURVE SMOOTH",
"612 281 OFFCURVE",
"578 278 OFFCURVE",
"550 278 CURVE SMOOTH",
"544 278 OFFCURVE",
"461 280 OFFCURVE",
"437 281 CURVE SMOOTH",
"433 281 OFFCURVE",
"429 274 OFFCURVE",
"434 274 CURVE SMOOTH",
"447 274 OFFCURVE",
"472 275 OFFCURVE",
"493 272 CURVE SMOOTH",
"520 267 OFFCURVE",
"529 256 OFFCURVE",
"529 241 CURVE SMOOTH",
"529 236 OFFCURVE",
"528 231 OFFCURVE",
"527 226 CURVE SMOOTH",
"513 178 OFFCURVE",
"495 147 OFFCURVE",
"482 130 CURVE SMOOTH",
"418 39 OFFCURVE",
"332 -6 OFFCURVE",
"247 -6 CURVE SMOOTH",
"121 -6 OFFCURVE",
"69 69 OFFCURVE",
"69 163 CURVE SMOOTH",
"69 248 OFFCURVE",
"112 350 OFFCURVE",
"184 424 CURVE SMOOTH",
"245 488 OFFCURVE",
"347 536 OFFCURVE",
"444 536 CURVE SMOOTH",
"478 536 OFFCURVE",
"513 529 OFFCURVE",
"544 516 CURVE SMOOTH",
"567 506 OFFCURVE",
"583 489 OFFCURVE",
"579 461 CURVE SMOOTH",
"577 447 OFFCURVE",
"567 412 OFFCURVE",
"562 403 CURVE SMOOTH",
"560 399 OFFCURVE",
"568 400 OFFCURVE",
"570 403 CURVE",
"582 446 LINE SMOOTH",
"588 466 OFFCURVE",
"595 485 OFFCURVE",
"603 505 CURVE SMOOTH",
"604 508 OFFCURVE",
"605 510 OFFCURVE",
"605 513 CURVE SMOOTH",
"605 517 OFFCURVE",
"603 520 OFFCURVE",
"594 522 CURVE SMOOTH",
"542 534 OFFCURVE",
"491 543 OFFCURVE",
"443 543 CURVE SMOOTH",
"347 543 OFFCURVE",
"260 513 OFFCURVE",
"178 438 CURVE SMOOTH",
"94 362 OFFCURVE",
"43 257 OFFCURVE",
"43 167 CURVE SMOOTH",
"43 68 OFFCURVE",
"104 -12 OFFCURVE",
"247 -12 CURVE SMOOTH",
"361 -12 OFFCURVE",
"453 68 OFFCURVE",
"494 133 CURVE",
"449 18 OFFCURVE",
"378 -152 OFFCURVE",
"326 -213 CURVE SMOOTH",
"291 -253 OFFCURVE",
"249 -276 OFFCURVE",
"189 -276 CURVE SMOOTH",
"148 -276 OFFCURVE",
"111 -252 OFFCURVE",
"111 -203 CURVE SMOOTH",
"111 -188 OFFCURVE",
"113 -171 OFFCURVE",
"123 -152 CURVE SMOOTH",
"126 -146 OFFCURVE",
"133 -137 OFFCURVE",
"140 -130 CURVE",
"143 -125 OFFCURVE",
"139 -120 OFFCURVE",
"134 -129 CURVE SMOOTH",
"118 -152 LINE SMOOTH",
"102 -179 OFFCURVE",
"97 -205 OFFCURVE",
"97 -226 CURVE SMOOTH",
"97 -277 OFFCURVE",
"135 -297 OFFCURVE",
"178 -297 CURVE SMOOTH"
);
},
{
closed = 1;
nodes = (
"504 599 OFFCURVE",
"535 620 OFFCURVE",
"554 644 CURVE SMOOTH",
"557 648 OFFCURVE",
"563 656 OFFCURVE",
"563 661 CURVE SMOOTH",
"563 663 OFFCURVE",
"562 663 OFFCURVE",
"560 663 CURVE SMOOTH",
"558 663 LINE",
"538 642 OFFCURVE",
"519 613 OFFCURVE",
"485 613 CURVE SMOOTH",
"459 613 OFFCURVE",
"453 634 OFFCURVE",
"453 656 CURVE SMOOTH",
"453 659 OFFCURVE",
"452 662 OFFCURVE",
"448 662 CURVE SMOOTH",
"438 662 OFFCURVE",
"430 652 OFFCURVE",
"430 642 CURVE SMOOTH",
"430 616 OFFCURVE",
"447 599 OFFCURVE",
"473 599 CURVE SMOOTH"
);
}
);
};
layerId = "DB049CBD-EE5A-4C6A-B8D5-3A4D87564362";
paths = (
{
closed = 1;
nodes = (
"243 -297 OFFCURVE",
"294 -264 OFFCURVE",
"335 -217 CURVE SMOOTH",
"419 -119 OFFCURVE",
"491 86 OFFCURVE",
"541 207 CURVE SMOOTH",
"552 233 OFFCURVE",
"562 248 OFFCURVE",
"569 256 CURVE SMOOTH",
"582 272 OFFCURVE",
"600 275 OFFCURVE",
"616 275 CURVE SMOOTH",
"622 275 OFFCURVE",
"628 274 OFFCURVE",
"633 274 CURVE SMOOTH",
"635 274 OFFCURVE",
"639 281 OFFCURVE",
"636 281 CURVE SMOOTH",
"612 281 OFFCURVE",
"578 278 OFFCURVE",
"550 278 CURVE SMOOTH",
"544 278 OFFCURVE",
"461 280 OFFCURVE",
"437 281 CURVE SMOOTH",
"433 281 OFFCURVE",
"429 274 OFFCURVE",
"434 274 CURVE SMOOTH",
"447 274 OFFCURVE",
"472 275 OFFCURVE",
"493 272 CURVE SMOOTH",
"520 267 OFFCURVE",
"529 256 OFFCURVE",
"529 241 CURVE SMOOTH",
"529 236 OFFCURVE",
"528 231 OFFCURVE",
"527 226 CURVE SMOOTH",
"513 178 OFFCURVE",
"495 147 OFFCURVE",
"482 130 CURVE SMOOTH",
"418 39 OFFCURVE",
"332 -6 OFFCURVE",
"247 -6 CURVE SMOOTH",
"121 -6 OFFCURVE",
"69 69 OFFCURVE",
"69 163 CURVE SMOOTH",
"69 248 OFFCURVE",
"112 350 OFFCURVE",
"184 424 CURVE SMOOTH",
"245 488 OFFCURVE",
"347 536 OFFCURVE",
"444 536 CURVE SMOOTH",
"478 536 OFFCURVE",
"513 529 OFFCURVE",
"544 516 CURVE SMOOTH",
"567 506 OFFCURVE",
"583 489 OFFCURVE",
"579 461 CURVE SMOOTH",
"577 447 OFFCURVE",
"567 412 OFFCURVE",
"562 403 CURVE SMOOTH",
"560 399 OFFCURVE",
"568 400 OFFCURVE",
"570 403 CURVE",
"582 446 LINE SMOOTH",
"588 466 OFFCURVE",
"595 485 OFFCURVE",
"603 505 CURVE SMOOTH",
"604 508 OFFCURVE",
"605 510 OFFCURVE",
"605 513 CURVE SMOOTH",
"605 517 OFFCURVE",
"603 520 OFFCURVE",
"594 522 CURVE SMOOTH",
"542 534 OFFCURVE",
"491 543 OFFCURVE",
"443 543 CURVE SMOOTH",
"347 543 OFFCURVE",
"260 513 OFFCURVE",
"178 438 CURVE SMOOTH",
"94 362 OFFCURVE",
"43 257 OFFCURVE",
"43 167 CURVE SMOOTH",
"43 68 OFFCURVE",
"104 -12 OFFCURVE",
"247 -12 CURVE SMOOTH",
"361 -12 OFFCURVE",
"453 68 OFFCURVE",
"494 133 CURVE",
"449 18 OFFCURVE",
"378 -152 OFFCURVE",
"326 -213 CURVE SMOOTH",
"291 -253 OFFCURVE",
"249 -276 OFFCURVE",
"189 -276 CURVE SMOOTH",
"148 -276 OFFCURVE",
"111 -252 OFFCURVE",
"111 -203 CURVE SMOOTH",
"111 -188 OFFCURVE",
"113 -171 OFFCURVE",
"123 -152 CURVE SMOOTH",
"126 -146 OFFCURVE",
"133 -137 OFFCURVE",
"140 -130 CURVE",
"143 -125 OFFCURVE",
"139 -120 OFFCURVE",
"134 -129 CURVE SMOOTH",
"118 -152 LINE SMOOTH",
"102 -179 OFFCURVE",
"97 -205 OFFCURVE",
"97 -226 CURVE SMOOTH",
"97 -277 OFFCURVE",
"135 -297 OFFCURVE",
"178 -297 CURVE SMOOTH"
);
},
{
closed = 1;
nodes = (
"504 599 OFFCURVE",
"535 620 OFFCURVE",
"554 644 CURVE SMOOTH",
"557 648 OFFCURVE",
"563 656 OFFCURVE",
"563 661 CURVE SMOOTH",
"563 663 OFFCURVE",
"562 663 OFFCURVE",
"560 663 CURVE SMOOTH",
"558 663 LINE",
"538 642 OFFCURVE",
"519 613 OFFCURVE",
"485 613 CURVE SMOOTH",
"459 613 OFFCURVE",
"453 634 OFFCURVE",
"453 656 CURVE SMOOTH",
"453 659 OFFCURVE",
"452 662 OFFCURVE",
"448 662 CURVE SMOOTH",
"438 662 OFFCURVE",
"430 652 OFFCURVE",
"430 642 CURVE SMOOTH",
"430 616 OFFCURVE",
"447 599 OFFCURVE",
"473 599 CURVE SMOOTH"
);
}
);
width = 564;
}
);
note = Gbreve;
unicode = 011E;
},
